<svg xmlns="http://www.w3.org/2000/svg" xmlns:xlink="http://www.w3.org/1999/xlink" width="2000" zoomAndPan="magnify" viewBox="0 0 1500 1499.999933" height="2000" preserveAspectRatio="xMidYMid meet" version="1.0"><path fill="#000000" d="M 745.746094 1424.96875 L 116.667969 795.839844 C 36.933594 716.097656 -6.988281 610.046875 -6.988281 497.285156 C -6.988281 384.492188 36.933594 278.472656 116.667969 198.699219 C 196.40625 118.957031 302.414062 75.03125 415.199219 75.03125 C 527.984375 75.03125 633.992188 118.957031 713.730469 198.699219 L 745.746094 230.71875 L 777.730469 198.730469 C 857.464844 118.988281 963.507812 75.0625 1076.257812 75.0625 C 1189.042969 75.0625 1295.054688 118.988281 1374.789062 198.730469 L 1384.359375 208.296875 L 1384.359375 208.632812 C 1458.046875 287.160156 1498.449219 389.140625 1498.449219 497.316406 C 1498.449219 610.109375 1454.523438 716.128906 1374.789062 795.871094 Z M 415.230469 140.375 C 319.910156 140.375 230.273438 177.496094 162.902344 244.90625 C 95.496094 312.3125 58.378906 401.957031 58.378906 497.285156 C 58.378906 592.609375 95.496094 682.226562 162.902344 749.636719 L 745.746094 1332.558594 L 1328.617188 749.636719 C 1396.023438 682.226562 1433.140625 592.609375 1433.140625 497.285156 C 1433.140625 401.957031 1396.023438 312.34375 1328.617188 244.933594 L 1326.644531 242.960938 C 1259.484375 176.796875 1170.667969 140.375 1076.289062 140.375 C 980.972656 140.375 891.363281 177.496094 823.960938 244.90625 L 745.746094 323.097656 L 667.558594 244.90625 C 600.15625 177.496094 510.546875 140.375 415.230469 140.375 Z M 415.230469 140.375 " fill-opacity="1" fill-rule="nonzero"/></svg>