<svg xmlns="http://www.w3.org/2000/svg" xmlns:xlink="http://www.w3.org/1999/xlink" width="2000" zoomAndPan="magnify" viewBox="0 0 1500 1499.999933" height="2000" preserveAspectRatio="xMidYMid meet" version="1.0"><path fill="#000000" d="M 1278.558594 1500 L 220.5625 1500 C 191.5625 1500 168.71875 1476.273438 168.71875 1447.277344 L 168.71875 52.722656 C 168.71875 23.726562 191.5625 0 220.5625 0 L 1278.558594 0 C 1307.558594 0 1331.28125 23.726562 1331.28125 52.722656 L 1331.28125 1447.277344 C 1331.28125 1476.273438 1307.558594 1500 1278.558594 1500 Z M 220.5625 35.148438 C 211.773438 35.148438 203.867188 43.058594 203.867188 52.722656 L 203.867188 1447.277344 C 203.867188 1456.941406 211.773438 1464.851562 220.5625 1464.851562 L 1278.558594 1464.851562 C 1288.226562 1464.851562 1296.132812 1456.941406 1296.132812 1447.277344 L 1296.132812 52.722656 C 1296.132812 43.058594 1288.226562 35.148438 1278.558594 35.148438 Z M 220.5625 35.148438 " fill-opacity="1" fill-rule="evenodd"/><path fill="#000000" d="M 1145.871094 1405.976562 L 369.945312 1405.976562 C 365.554688 1405.976562 361.160156 1404.21875 357.644531 1400.703125 L 267.136719 1310.191406 C 263.621094 1307.558594 261.863281 1303.164062 261.863281 1297.890625 L 261.863281 201.230469 C 261.863281 196.835938 263.621094 192.441406 267.136719 188.929688 L 357.644531 99.296875 C 361.160156 95.78125 365.554688 94.023438 369.945312 94.023438 L 1130.050781 94.023438 C 1134.445312 94.023438 1138.839844 95.78125 1142.355469 99.296875 L 1231.984375 188.929688 C 1235.5 192.441406 1237.257812 196.835938 1237.257812 201.230469 L 1237.257812 1313.707031 C 1237.257812 1364.675781 1195.957031 1405.976562 1145.871094 1405.976562 Z M 376.976562 1370.824219 L 1145.871094 1370.824219 C 1176.625 1370.824219 1202.109375 1345.34375 1202.109375 1313.707031 L 1202.109375 209.140625 L 1122.144531 129.175781 L 376.976562 129.175781 L 297.011719 209.140625 L 297.011719 1290.859375 Z M 376.976562 1370.824219 " fill-opacity="1" fill-rule="evenodd"/><path fill="#000000" d="M 262.742188 1420.914062 C 253.074219 1420.914062 245.167969 1413.003906 245.167969 1403.339844 L 245.167969 1394.550781 C 245.167969 1384.886719 253.074219 1376.976562 262.742188 1376.976562 C 272.40625 1376.976562 280.316406 1384.886719 280.316406 1394.550781 L 280.316406 1403.339844 C 280.316406 1413.003906 272.40625 1420.914062 262.742188 1420.914062 Z M 1237.257812 122.144531 C 1227.59375 122.144531 1219.683594 114.234375 1219.683594 104.570312 L 1219.683594 96.660156 C 1219.683594 86.996094 1227.59375 79.085938 1237.257812 79.085938 C 1246.925781 79.085938 1254.832031 86.996094 1254.832031 96.660156 L 1254.832031 104.570312 C 1254.832031 114.234375 1246.925781 122.144531 1237.257812 122.144531 Z M 262.742188 122.144531 C 253.074219 122.144531 245.167969 114.234375 245.167969 104.570312 L 245.167969 96.660156 C 245.167969 86.996094 253.074219 79.085938 262.742188 79.085938 C 272.40625 79.085938 280.316406 86.996094 280.316406 96.660156 L 280.316406 104.570312 C 280.316406 114.234375 272.40625 122.144531 262.742188 122.144531 Z M 262.742188 122.144531 " fill-opacity="1" fill-rule="evenodd"/><path fill="#000000" d="M 749.5625 972.757812 C 536.027344 972.757812 362.917969 798.769531 362.917969 585.238281 C 362.917969 371.703125 536.027344 198.59375 749.5625 198.59375 C 963.09375 198.59375 1137.082031 371.703125 1137.082031 585.238281 C 1137.082031 743.410156 1043.058594 884.007812 896.308594 943.761719 C 887.523438 948.15625 876.976562 943.761719 873.460938 934.972656 C 869.945312 925.308594 874.339844 915.640625 883.128906 911.246094 C 1015.816406 856.765625 1101.933594 729.351562 1101.933594 585.238281 C 1101.933594 391.035156 943.761719 233.742188 749.5625 233.742188 C 555.359375 233.742188 398.066406 391.035156 398.066406 585.238281 C 398.066406 779.4375 555.359375 937.609375 749.5625 937.609375 C 775.921875 937.609375 801.40625 934.972656 826.890625 929.699219 C 836.554688 927.066406 845.34375 933.214844 847.101562 942.882812 C 849.734375 952.546875 843.585938 961.335938 833.917969 963.972656 C 806.679688 970.121094 778.558594 972.757812 749.5625 972.757812 Z M 749.5625 972.757812 " fill-opacity="1" fill-rule="evenodd"/><path fill="#000000" d="M 749.5625 678.382812 C 698.59375 678.382812 657.292969 636.203125 657.292969 585.238281 C 657.292969 534.269531 698.59375 492.96875 749.5625 492.96875 C 800.527344 492.96875 842.707031 534.269531 842.707031 585.238281 C 842.707031 636.203125 800.527344 678.382812 749.5625 678.382812 Z M 749.5625 528.121094 C 717.925781 528.121094 692.441406 553.601562 692.441406 585.238281 C 692.441406 616.871094 717.925781 643.234375 749.5625 643.234375 C 781.195312 643.234375 807.558594 616.871094 807.558594 585.238281 C 807.558594 553.601562 781.195312 528.121094 749.5625 528.121094 Z M 749.5625 528.121094 " fill-opacity="1" fill-rule="evenodd"/><path fill="#000000" d="M 1037.785156 1188.050781 C 1007.910156 1188.050781 978.03125 1171.351562 954.304688 1139.71875 L 716.167969 824.253906 C 710.894531 818.101562 711.773438 807.558594 717.925781 801.40625 C 724.078125 795.253906 733.742188 794.375 740.773438 799.648438 L 1063.269531 1029.875 C 1103.691406 1060.632812 1120.386719 1101.054688 1108.085938 1137.960938 C 1098.417969 1167.839844 1069.421875 1188.050781 1037.785156 1188.050781 Z M 813.707031 894.550781 L 982.425781 1118.628906 C 999.121094 1140.597656 1018.453125 1152.898438 1037.785156 1152.898438 C 1054.480469 1152.898438 1069.421875 1142.355469 1074.691406 1126.539062 C 1082.601562 1104.570312 1070.296875 1079.085938 1043.058594 1058.875 Z M 813.707031 894.550781 " fill-opacity="1" fill-rule="evenodd"/><path fill="#000000" d="M 1057.996094 1301.40625 L 441.125 1301.40625 C 431.457031 1301.40625 423.550781 1293.496094 423.550781 1283.832031 C 423.550781 1274.164062 431.457031 1266.257812 441.125 1266.257812 L 1057.996094 1266.257812 C 1067.664062 1266.257812 1075.570312 1274.164062 1075.570312 1283.832031 C 1075.570312 1293.496094 1067.664062 1301.40625 1057.996094 1301.40625 Z M 1057.996094 1301.40625 " fill-opacity="1" fill-rule="evenodd"/><path fill="#000000" d="M 749.5625 762.742188 C 652.019531 762.742188 572.933594 682.777344 572.933594 585.238281 C 572.933594 487.699219 652.019531 408.613281 749.5625 408.613281 C 847.101562 408.613281 927.066406 487.699219 927.066406 585.238281 C 927.066406 682.777344 847.101562 762.742188 749.5625 762.742188 Z M 749.5625 443.761719 C 671.351562 443.761719 608.085938 507.03125 608.085938 585.238281 C 608.085938 663.445312 671.351562 727.59375 749.5625 727.59375 C 827.769531 727.59375 891.914062 663.445312 891.914062 585.238281 C 891.914062 507.03125 827.769531 443.761719 749.5625 443.761719 Z M 749.5625 443.761719 " fill-opacity="1" fill-rule="evenodd"/><path fill="#000000" d="M 797.011719 1190.683594 L 441.125 1190.683594 C 431.457031 1190.683594 423.550781 1182.777344 423.550781 1173.109375 L 423.550781 1059.753906 C 423.550781 1050.085938 431.457031 1042.179688 441.125 1042.179688 L 797.011719 1042.179688 C 806.679688 1042.179688 814.585938 1050.085938 814.585938 1059.753906 L 814.585938 1173.109375 C 814.585938 1182.777344 806.679688 1190.683594 797.011719 1190.683594 Z M 458.699219 1155.535156 L 779.4375 1155.535156 L 779.4375 1077.328125 L 458.699219 1077.328125 Z M 458.699219 1155.535156 " fill-opacity="1" fill-rule="evenodd"/><path fill="#000000" d="M 926.1875 796.132812 C 920.914062 796.132812 916.519531 794.375 913.003906 790.859375 C 906.855469 782.953125 906.855469 772.40625 913.882812 765.378906 C 984.183594 702.109375 1011.421875 601.933594 982.425781 511.421875 C 979.789062 502.636719 984.183594 492.96875 993.847656 489.457031 C 1002.636719 486.820312 1013.179688 492.089844 1015.816406 500.878906 C 1049.210938 604.570312 1018.453125 718.804688 937.609375 791.738281 C 934.972656 794.375 930.578125 796.132812 926.1875 796.132812 Z M 500.878906 681.898438 C 492.96875 681.898438 485.941406 677.503906 484.183594 670.472656 C 450.789062 566.785156 481.546875 452.546875 561.511719 379.613281 C 568.542969 372.582031 579.964844 373.460938 586.117188 380.492188 C 593.144531 387.523438 592.265625 398.945312 585.238281 405.097656 C 514.9375 469.246094 488.578125 569.421875 517.574219 659.050781 C 520.210938 668.71875 514.9375 678.382812 506.152344 681.898438 C 504.394531 681.898438 502.636719 681.898438 500.878906 681.898438 Z M 500.878906 681.898438 " fill-opacity="1" fill-rule="evenodd"/></svg>