<svg xmlns="http://www.w3.org/2000/svg" xmlns:xlink="http://www.w3.org/1999/xlink" width="2000" zoomAndPan="magnify" viewBox="0 0 1500 1499.999933" height="2000" preserveAspectRatio="xMidYMid meet" version="1.0"><defs><clipPath id="d8f0760932"><path d="M 0 252 L 1499 252 L 1499 1250.0625 L 0 1250.0625 Z M 0 252 " clip-rule="nonzero"/></clipPath></defs><g clip-path="url(#d8f0760932)"><path fill="#000000" d="M 1497.066406 593.058594 C 1497.066406 593.058594 1497.042969 592.980469 1497.015625 592.929688 L 1361.203125 266.238281 C 1357.644531 257.621094 1349.320312 252.070312 1340 252.070312 L 655.027344 252.070312 C 645.757812 252.070312 637.433594 257.59375 633.820312 266.210938 L 497.984375 592.980469 C 497.984375 592.980469 497.957031 593.058594 497.957031 593.058594 C 497.90625 593.164062 497.957031 593.269531 497.90625 593.347656 C 497.328125 594.816406 496.964844 596.414062 496.964844 598.089844 L 496.964844 726.933594 L 112.410156 726.933594 C 72.121094 726.933594 38.457031 757.179688 34.082031 797.300781 L 0.0507812 1118.152344 C -3.691406 1151.910156 7.148438 1185.769531 29.789062 1211.039062 C 68.925781 1254.75 139.292969 1263.363281 188.535156 1228.507812 C 209.398438 1214 224.6875 1193.652344 232.644531 1169.714844 L 270.679688 1058.289062 C 271.9375 1054.4375 275.601562 1051.84375 279.816406 1051.84375 L 481.230469 1051.84375 C 485.445312 1051.84375 489.109375 1054.4375 490.417969 1058.46875 L 528.429688 1169.769531 C 536.78125 1193.835938 551.886719 1214.132812 572.121094 1228.429688 C 592.90625 1243.148438 616.964844 1250.898438 641.648438 1250.898438 C 675.628906 1250.898438 708.140625 1236.417969 730.863281 1211.144531 C 753.585938 1185.875 764.582031 1152.015625 760.996094 1118.207031 C 760.996094 1118.207031 737.121094 895.03125 737.121094 895.03125 L 1475.289062 895.03125 C 1487.671875 895.03125 1498.113281 884.582031 1498.113281 872.195312 L 1498.113281 598.0625 C 1498.113281 596.308594 1497.75 594.632812 1497.121094 593.085938 C 1497.121094 593.085938 1497.121094 593.058594 1497.121094 593.035156 Z M 1337.042969 276.265625 Z M 657.199219 278.257812 L 1337.828125 278.257812 L 1465.339844 584.96875 L 529.710938 584.96875 L 657.226562 278.257812 Z M 711.386719 1193.652344 C 680.757812 1227.722656 626.125 1234.558594 587.199219 1207.085938 C 571.464844 1195.957031 559.6875 1180.085938 553.140625 1161.257812 L 515.234375 1050.246094 C 510.496094 1035.53125 496.832031 1025.65625 481.203125 1025.65625 L 279.789062 1025.65625 C 264.1875 1025.65625 250.496094 1035.53125 245.835938 1050.011719 L 207.828125 1161.335938 C 201.625 1179.957031 189.789062 1195.746094 173.507812 1207.058594 C 134.582031 1234.582031 79.84375 1227.695312 49.292969 1193.546875 C 31.625 1173.828125 23.167969 1147.378906 26.074219 1120.980469 L 60.105469 800.101562 C 63.011719 773.3125 85.496094 753.121094 112.410156 753.121094 L 648.324219 753.121094 C 672.566406 753.121094 694.03125 770.167969 699.867188 795.363281 C 700.210938 796.277344 700.417969 798.320312 700.628906 800.074219 L 709.425781 883.351562 C 709.425781 883.535156 709.554688 883.691406 709.582031 883.875 L 734.949219 1121.007812 C 737.722656 1147.429688 729.164062 1173.933594 711.386719 1193.679688 Z M 614.320312 726.933594 L 614.320312 702.367188 L 1214.582031 702.367188 L 1214.582031 777.683594 L 721.804688 777.683594 C 721.625 777.214844 721.359375 776.820312 721.179688 776.347656 C 720.550781 774.777344 719.765625 773.3125 719.03125 771.792969 C 717.933594 769.488281 716.804688 767.234375 715.496094 765.089844 C 714.605469 763.597656 713.613281 762.207031 712.617188 760.792969 C 711.203125 758.777344 709.765625 756.8125 708.167969 754.953125 C 707.042969 753.617188 705.863281 752.359375 704.632812 751.105469 C 702.933594 749.347656 701.179688 747.699219 699.34375 746.128906 C 698.035156 745.003906 696.703125 743.902344 695.3125 742.855469 C 693.351562 741.386719 691.308594 740.054688 689.214844 738.769531 C 687.75 737.878906 686.335938 736.960938 684.816406 736.175781 C 682.566406 735 680.234375 734.003906 677.878906 733.035156 C 676.359375 732.40625 674.894531 731.726562 673.351562 731.203125 C 670.707031 730.3125 667.957031 729.65625 665.210938 729.054688 C 663.847656 728.738281 662.511719 728.320312 661.125 728.085938 C 656.9375 727.378906 652.671875 726.957031 648.351562 726.957031 L 614.34375 726.957031 Z M 1471.882812 868.84375 L 734.292969 868.84375 L 727.328125 803.871094 L 1227.644531 803.871094 C 1234.867188 803.871094 1240.734375 798.007812 1240.734375 790.777344 L 1240.734375 689.273438 C 1240.734375 682.046875 1234.867188 676.179688 1227.644531 676.179688 L 601.203125 676.179688 C 593.980469 676.179688 588.113281 682.046875 588.113281 689.273438 L 588.113281 726.933594 L 523.167969 726.933594 L 523.167969 611.183594 L 1471.882812 611.183594 Z M 1471.882812 868.84375 " fill-opacity="1" fill-rule="nonzero"/></g><path fill="#000000" d="M 1342.90625 803.871094 C 1378.113281 803.871094 1406.726562 775.222656 1406.726562 740.027344 C 1406.726562 704.832031 1378.089844 676.179688 1342.90625 676.179688 C 1307.722656 676.179688 1279.082031 704.832031 1279.082031 740.027344 C 1279.082031 775.222656 1307.722656 803.871094 1342.90625 803.871094 Z M 1342.90625 702.34375 C 1363.664062 702.34375 1380.550781 719.234375 1380.550781 740 C 1380.550781 760.765625 1363.640625 777.660156 1342.90625 777.660156 C 1322.171875 777.660156 1305.261719 760.742188 1305.261719 740 C 1305.261719 719.257812 1322.148438 702.34375 1342.90625 702.34375 Z M 1342.90625 702.34375 " fill-opacity="1" fill-rule="nonzero"/><path fill="#000000" d="M 263.507812 882.984375 L 206.492188 882.984375 L 206.492188 825.949219 C 206.492188 818.722656 200.628906 812.855469 193.402344 812.855469 C 186.179688 812.855469 180.3125 818.722656 180.3125 825.949219 L 180.3125 882.984375 L 123.296875 882.984375 C 116.074219 882.984375 110.210938 888.851562 110.210938 896.078125 C 110.210938 903.308594 116.074219 909.175781 123.296875 909.175781 L 180.3125 909.175781 L 180.3125 966.210938 C 180.3125 973.4375 186.179688 979.304688 193.402344 979.304688 C 200.628906 979.304688 206.492188 973.4375 206.492188 966.210938 L 206.492188 909.175781 L 263.507812 909.175781 C 270.734375 909.175781 276.597656 903.308594 276.597656 896.078125 C 276.597656 888.851562 270.734375 882.984375 263.507812 882.984375 Z M 263.507812 882.984375 " fill-opacity="1" fill-rule="nonzero"/><path fill="#000000" d="M 568.140625 812.855469 L 567.878906 812.855469 C 560.65625 812.855469 554.921875 818.722656 554.921875 825.949219 C 554.921875 833.175781 560.917969 839.042969 568.140625 839.042969 C 575.367188 839.042969 581.230469 833.175781 581.230469 825.949219 C 581.230469 818.722656 575.367188 812.855469 568.140625 812.855469 Z M 568.140625 812.855469 " fill-opacity="1" fill-rule="nonzero"/><path fill="#000000" d="M 568.140625 953.117188 L 567.878906 953.117188 C 560.65625 953.117188 554.921875 958.984375 554.921875 966.210938 C 554.921875 973.4375 560.917969 979.304688 568.140625 979.304688 C 575.367188 979.304688 581.230469 973.4375 581.230469 966.210938 C 581.230469 958.984375 575.367188 953.117188 568.140625 953.117188 Z M 568.140625 953.117188 " fill-opacity="1" fill-rule="nonzero"/><path fill="#000000" d="M 638.246094 882.984375 L 637.984375 882.984375 C 630.757812 882.984375 625.027344 888.851562 625.027344 896.078125 C 625.027344 903.308594 631.019531 909.175781 638.246094 909.175781 C 645.472656 909.175781 651.335938 903.308594 651.335938 896.078125 C 651.335938 888.851562 645.472656 882.984375 638.246094 882.984375 Z M 638.246094 882.984375 " fill-opacity="1" fill-rule="nonzero"/><path fill="#000000" d="M 498.035156 882.984375 L 497.773438 882.984375 C 490.550781 882.984375 484.816406 888.851562 484.816406 896.078125 C 484.816406 903.308594 490.8125 909.175781 498.035156 909.175781 C 505.261719 909.175781 511.125 903.308594 511.125 896.078125 C 511.125 888.851562 505.261719 882.984375 498.035156 882.984375 Z M 498.035156 882.984375 " fill-opacity="1" fill-rule="nonzero"/></svg>