<svg xmlns="http://www.w3.org/2000/svg" xmlns:xlink="http://www.w3.org/1999/xlink" width="2000" zoomAndPan="magnify" viewBox="0 0 1500 1499.999933" height="2000" preserveAspectRatio="xMidYMid meet" version="1.0"><defs><clipPath id="c1cab3ec48"><path d="M 0 39.0625 L 1500 39.0625 L 1500 1461 L 0 1461 Z M 0 39.0625 " clip-rule="nonzero"/></clipPath></defs><g clip-path="url(#c1cab3ec48)"><path fill="#000000" d="M 257.160156 237.128906 L 318.472656 237.128906 L 318.472656 73.78125 C 318.472656 54.6875 334.09375 39.0625 353.1875 39.0625 L 357.042969 39.0625 C 378.265625 39.0625 395.621094 56.421875 395.621094 77.636719 L 395.621094 237.128906 L 515.386719 237.128906 L 515.386719 73.78125 C 515.386719 54.6875 531.007812 39.0625 550.105469 39.0625 L 553.964844 39.0625 C 575.179688 39.0625 592.539062 56.421875 592.539062 77.636719 L 592.539062 237.128906 L 712.308594 237.128906 L 712.308594 73.78125 C 712.308594 54.6875 727.933594 39.0625 747.027344 39.0625 L 750.882812 39.0625 C 772.101562 39.0625 789.453125 56.421875 789.453125 77.636719 L 789.453125 237.128906 L 909.226562 237.128906 L 909.226562 73.78125 C 909.226562 54.6875 924.847656 39.0625 943.941406 39.0625 L 947.796875 39.0625 C 969.019531 39.0625 986.375 56.421875 986.375 77.636719 L 986.375 237.128906 L 1106.140625 237.128906 L 1106.140625 73.78125 C 1106.140625 54.6875 1121.761719 39.0625 1140.859375 39.0625 L 1144.714844 39.0625 C 1165.933594 39.0625 1183.292969 56.421875 1183.292969 77.636719 L 1183.292969 237.128906 L 1244.605469 237.128906 C 1271.773438 237.128906 1294 259.359375 1294 286.527344 L 1294 317.480469 L 1460.929688 317.480469 C 1482.140625 317.480469 1499.5 334.839844 1499.5 356.0625 L 1499.5 359.917969 C 1499.5 379.015625 1483.878906 394.640625 1464.785156 394.640625 L 1294 394.640625 L 1294 514.414062 L 1460.929688 514.414062 C 1482.140625 514.414062 1499.5 531.773438 1499.5 552.996094 L 1499.5 556.851562 C 1499.5 575.949219 1483.878906 591.574219 1464.785156 591.574219 L 1294 591.574219 L 1294 711.347656 L 1460.929688 711.347656 C 1482.140625 711.347656 1499.5 728.707031 1499.5 749.929688 L 1499.5 753.785156 C 1499.5 772.882812 1483.878906 788.503906 1464.785156 788.503906 L 1294 788.503906 L 1294 908.289062 L 1460.929688 908.289062 C 1482.140625 908.289062 1499.5 925.640625 1499.5 946.863281 L 1499.5 950.71875 C 1499.5 969.816406 1483.878906 985.4375 1464.78125 985.4375 L 1294 985.4375 L 1294 1105.222656 L 1460.929688 1105.222656 C 1482.140625 1105.222656 1499.5 1122.582031 1499.5 1143.796875 L 1499.5 1147.652344 C 1499.5 1166.75 1483.878906 1182.371094 1464.78125 1182.371094 L 1294 1182.371094 L 1294 1213.335938 C 1294 1240.503906 1271.769531 1262.734375 1244.605469 1262.734375 L 1183.292969 1262.734375 L 1183.292969 1422.214844 C 1183.292969 1443.4375 1165.933594 1460.796875 1144.710938 1460.796875 L 1140.859375 1460.796875 C 1121.761719 1460.796875 1106.140625 1445.175781 1106.140625 1426.078125 L 1106.140625 1262.734375 L 986.375 1262.734375 L 986.375 1422.214844 C 986.375 1443.4375 969.019531 1460.796875 947.796875 1460.796875 L 943.941406 1460.796875 C 924.847656 1460.796875 909.226562 1445.175781 909.226562 1426.078125 L 909.226562 1262.734375 L 789.453125 1262.734375 L 789.453125 1422.214844 C 789.453125 1443.4375 772.101562 1460.796875 750.882812 1460.796875 L 747.027344 1460.796875 C 727.929688 1460.796875 712.308594 1445.175781 712.308594 1426.078125 L 712.308594 1262.734375 L 592.539062 1262.734375 L 592.539062 1422.214844 C 592.539062 1443.4375 575.179688 1460.796875 553.964844 1460.796875 L 550.105469 1460.796875 C 531.007812 1460.796875 515.386719 1445.175781 515.386719 1426.078125 L 515.386719 1262.734375 L 395.621094 1262.734375 L 395.621094 1422.214844 C 395.621094 1443.4375 378.265625 1460.796875 357.042969 1460.796875 L 353.1875 1460.796875 C 334.09375 1460.796875 318.472656 1445.175781 318.472656 1426.078125 L 318.472656 1262.734375 L 257.160156 1262.734375 C 229.992188 1262.734375 207.765625 1240.503906 207.765625 1213.335938 L 207.765625 1182.371094 L 34.882812 1182.371094 C 15.789062 1182.371094 0.164062 1166.75 0.164062 1147.652344 L 0.164062 1143.796875 C 0.164062 1122.582031 17.523438 1105.222656 38.746094 1105.222656 L 207.765625 1105.222656 L 207.765625 985.4375 L 34.882812 985.4375 C 15.789062 985.4375 0.164062 969.816406 0.164062 950.71875 L 0.164062 946.863281 C 0.164062 925.640625 17.523438 908.289062 38.746094 908.289062 L 207.765625 908.289062 L 207.765625 788.507812 L 34.882812 788.507812 C 15.789062 788.507812 0.164062 772.882812 0.164062 753.785156 L 0.164062 749.929688 C 0.164062 728.707031 17.523438 711.347656 38.746094 711.347656 L 207.765625 711.347656 L 207.765625 591.574219 L 34.882812 591.574219 C 15.789062 591.574219 0.164062 575.949219 0.164062 556.851562 L 0.164062 552.996094 C 0.164062 531.773438 17.523438 514.414062 38.746094 514.414062 L 207.765625 514.414062 L 207.765625 394.640625 L 34.882812 394.640625 C 15.789062 394.640625 0.164062 379.015625 0.164062 359.917969 L 0.164062 356.0625 C 0.164062 334.839844 17.523438 317.480469 38.746094 317.480469 L 207.765625 317.480469 L 207.765625 286.527344 C 207.765625 259.359375 229.992188 237.128906 257.160156 237.128906 Z M 505.808594 470.28125 L 993.859375 470.28125 C 1013.4375 470.28125 1029.457031 486.300781 1029.457031 505.882812 L 1029.457031 993.96875 C 1029.457031 1013.550781 1013.4375 1029.570312 993.859375 1029.570312 L 505.808594 1029.570312 C 486.226562 1029.570312 470.210938 1013.550781 470.210938 993.96875 L 470.210938 505.882812 C 470.210938 486.300781 486.226562 470.28125 505.808594 470.28125 Z M 384.148438 413.527344 L 1117.617188 413.527344 L 1117.617188 1086.332031 L 384.148438 1086.332031 Z M 384.148438 413.527344 " fill-opacity="1" fill-rule="evenodd"/></g></svg>