<svg xmlns="http://www.w3.org/2000/svg" xmlns:xlink="http://www.w3.org/1999/xlink" width="2000" zoomAndPan="magnify" viewBox="0 0 1500 1499.999933" height="2000" preserveAspectRatio="xMidYMid meet" version="1.0"><path fill="#000000" d="M 525 150 L 525 75 C 525 73.773438 525.03125 72.546875 525.089844 71.320312 C 525.152344 70.09375 525.242188 68.871094 525.359375 67.648438 C 525.480469 66.425781 525.632812 65.210938 525.8125 63.996094 C 525.992188 62.78125 526.203125 61.570312 526.441406 60.367188 C 526.679688 59.164062 526.949219 57.96875 527.246094 56.777344 C 527.546875 55.585938 527.875 54.402344 528.230469 53.230469 C 528.585938 52.054688 528.972656 50.890625 529.382812 49.734375 C 529.796875 48.578125 530.238281 47.433594 530.710938 46.296875 C 531.179688 45.164062 531.675781 44.042969 532.199219 42.933594 C 532.726562 41.824219 533.277344 40.726562 533.855469 39.644531 C 534.433594 38.5625 535.039062 37.496094 535.671875 36.441406 C 536.300781 35.390625 536.957031 34.351562 537.640625 33.332031 C 538.320312 32.3125 539.027344 31.308594 539.757812 30.324219 C 540.492188 29.335938 541.246094 28.371094 542.023438 27.421875 C 542.804688 26.472656 543.605469 25.542969 544.429688 24.632812 C 545.253906 23.722656 546.097656 22.835938 546.96875 21.96875 C 547.835938 21.097656 548.722656 20.253906 549.632812 19.429688 C 550.542969 18.605469 551.472656 17.804688 552.421875 17.023438 C 553.371094 16.246094 554.335938 15.492188 555.324219 14.757812 C 556.308594 14.027344 557.3125 13.320312 558.332031 12.640625 C 559.351562 11.957031 560.390625 11.300781 561.441406 10.671875 C 562.496094 10.039062 563.5625 9.433594 564.644531 8.855469 C 565.726562 8.277344 566.824219 7.726562 567.933594 7.199219 C 569.042969 6.675781 570.164062 6.179688 571.296875 5.710938 C 572.433594 5.238281 573.578125 4.796875 574.734375 4.382812 C 575.890625 3.96875 577.054688 3.585938 578.230469 3.230469 C 579.402344 2.875 580.585938 2.546875 581.777344 2.246094 C 582.96875 1.949219 584.164062 1.679688 585.367188 1.441406 C 586.570312 1.203125 587.78125 0.992188 588.996094 0.8125 C 590.210938 0.632812 591.425781 0.480469 592.648438 0.359375 C 593.871094 0.242188 595.09375 0.152344 596.320312 0.0898438 C 597.546875 0.03125 598.773438 0 600 0 L 900 0 C 901.226562 0 902.453125 0.03125 903.679688 0.0898438 C 904.90625 0.152344 906.128906 0.242188 907.351562 0.359375 C 908.574219 0.480469 909.789062 0.632812 911.003906 0.8125 C 912.21875 0.992188 913.429688 1.203125 914.632812 1.441406 C 915.835938 1.679688 917.03125 1.949219 918.222656 2.246094 C 919.414062 2.546875 920.597656 2.875 921.769531 3.230469 C 922.945312 3.585938 924.109375 3.96875 925.265625 4.382812 C 926.421875 4.796875 927.566406 5.238281 928.699219 5.710938 C 929.835938 6.179688 930.957031 6.675781 932.066406 7.199219 C 933.175781 7.726562 934.273438 8.277344 935.355469 8.855469 C 936.4375 9.433594 937.503906 10.039062 938.558594 10.671875 C 939.609375 11.300781 940.648438 11.957031 941.667969 12.640625 C 942.6875 13.320312 943.691406 14.027344 944.675781 14.757812 C 945.664062 15.492188 946.628906 16.246094 947.578125 17.023438 C 948.527344 17.804688 949.457031 18.605469 950.367188 19.429688 C 951.277344 20.253906 952.164062 21.097656 953.03125 21.96875 C 953.902344 22.835938 954.746094 23.722656 955.570312 24.632812 C 956.394531 25.542969 957.195312 26.472656 957.976562 27.421875 C 958.753906 28.371094 959.507812 29.335938 960.242188 30.324219 C 960.972656 31.308594 961.679688 32.3125 962.359375 33.332031 C 963.042969 34.351562 963.699219 35.390625 964.328125 36.441406 C 964.960938 37.496094 965.566406 38.5625 966.144531 39.644531 C 966.722656 40.726562 967.273438 41.824219 967.800781 42.933594 C 968.324219 44.042969 968.820312 45.164062 969.289062 46.296875 C 969.761719 47.433594 970.203125 48.578125 970.617188 49.734375 C 971.027344 50.890625 971.414062 52.054688 971.769531 53.230469 C 972.125 54.402344 972.453125 55.585938 972.753906 56.777344 C 973.050781 57.96875 973.320312 59.164062 973.558594 60.367188 C 973.796875 61.570312 974.007812 62.78125 974.1875 63.996094 C 974.367188 65.210938 974.519531 66.425781 974.640625 67.648438 C 974.757812 68.871094 974.847656 70.09375 974.910156 71.320312 C 974.96875 72.546875 975 73.773438 975 75 L 975 150 L 1200 150 C 1201.226562 150 1202.453125 150.03125 1203.679688 150.089844 C 1204.90625 150.152344 1206.128906 150.242188 1207.351562 150.359375 C 1208.574219 150.480469 1209.789062 150.632812 1211.003906 150.8125 C 1212.21875 150.992188 1213.425781 151.203125 1214.632812 151.441406 C 1215.835938 151.679688 1217.03125 151.949219 1218.222656 152.246094 C 1219.414062 152.546875 1220.597656 152.875 1221.769531 153.230469 C 1222.945312 153.585938 1224.109375 153.96875 1225.265625 154.382812 C 1226.421875 154.796875 1227.566406 155.238281 1228.699219 155.707031 C 1229.835938 156.179688 1230.957031 156.675781 1232.066406 157.199219 C 1233.175781 157.726562 1234.273438 158.277344 1235.355469 158.855469 C 1236.4375 159.433594 1237.503906 160.039062 1238.558594 160.671875 C 1239.609375 161.300781 1240.648438 161.957031 1241.667969 162.640625 C 1242.6875 163.320312 1243.691406 164.027344 1244.675781 164.757812 C 1245.664062 165.492188 1246.628906 166.246094 1247.578125 167.023438 C 1248.527344 167.804688 1249.457031 168.605469 1250.367188 169.429688 C 1251.277344 170.253906 1252.164062 171.097656 1253.03125 171.96875 C 1253.902344 172.835938 1254.746094 173.722656 1255.570312 174.632812 C 1256.394531 175.542969 1257.195312 176.472656 1257.976562 177.421875 C 1258.753906 178.371094 1259.507812 179.335938 1260.242188 180.324219 C 1260.972656 181.308594 1261.679688 182.3125 1262.359375 183.332031 C 1263.042969 184.351562 1263.699219 185.390625 1264.328125 186.441406 C 1264.960938 187.496094 1265.566406 188.5625 1266.144531 189.644531 C 1266.722656 190.726562 1267.273438 191.824219 1267.796875 192.933594 C 1268.324219 194.042969 1268.820312 195.164062 1269.289062 196.296875 C 1269.761719 197.433594 1270.203125 198.578125 1270.617188 199.734375 C 1271.027344 200.890625 1271.414062 202.054688 1271.769531 203.230469 C 1272.125 204.402344 1272.453125 205.585938 1272.753906 206.777344 C 1273.050781 207.96875 1273.320312 209.164062 1273.558594 210.367188 C 1273.796875 211.570312 1274.007812 212.78125 1274.1875 213.996094 C 1274.367188 215.210938 1274.519531 216.425781 1274.640625 217.648438 C 1274.757812 218.871094 1274.847656 220.09375 1274.910156 221.320312 C 1274.96875 222.546875 1275 223.773438 1275 225 L 1275 1425 C 1275 1426.226562 1274.96875 1427.453125 1274.910156 1428.679688 C 1274.847656 1429.90625 1274.757812 1431.128906 1274.640625 1432.351562 C 1274.519531 1433.574219 1274.367188 1434.789062 1274.1875 1436.003906 C 1274.007812 1437.21875 1273.796875 1438.429688 1273.558594 1439.632812 C 1273.320312 1440.835938 1273.050781 1442.03125 1272.753906 1443.222656 C 1272.453125 1444.414062 1272.125 1445.597656 1271.769531 1446.769531 C 1271.414062 1447.945312 1271.027344 1449.109375 1270.617188 1450.265625 C 1270.203125 1451.421875 1269.761719 1452.566406 1269.289062 1453.699219 C 1268.820312 1454.835938 1268.324219 1455.957031 1267.800781 1457.066406 C 1267.273438 1458.175781 1266.722656 1459.273438 1266.144531 1460.355469 C 1265.566406 1461.4375 1264.960938 1462.503906 1264.328125 1463.558594 C 1263.699219 1464.609375 1263.042969 1465.648438 1262.359375 1466.667969 C 1261.679688 1467.6875 1260.972656 1468.691406 1260.242188 1469.675781 C 1259.507812 1470.664062 1258.753906 1471.628906 1257.976562 1472.578125 C 1257.195312 1473.527344 1256.394531 1474.457031 1255.570312 1475.367188 C 1254.746094 1476.277344 1253.902344 1477.164062 1253.03125 1478.03125 C 1252.164062 1478.902344 1251.277344 1479.746094 1250.367188 1480.570312 C 1249.457031 1481.394531 1248.527344 1482.195312 1247.578125 1482.976562 C 1246.628906 1483.753906 1245.664062 1484.507812 1244.675781 1485.238281 C 1243.691406 1485.972656 1242.6875 1486.679688 1241.667969 1487.359375 C 1240.648438 1488.042969 1239.609375 1488.699219 1238.558594 1489.328125 C 1237.503906 1489.960938 1236.4375 1490.566406 1235.355469 1491.144531 C 1234.273438 1491.722656 1233.175781 1492.273438 1232.066406 1492.796875 C 1230.957031 1493.324219 1229.835938 1493.820312 1228.699219 1494.289062 C 1227.566406 1494.761719 1226.421875 1495.203125 1225.265625 1495.617188 C 1224.109375 1496.027344 1222.945312 1496.414062 1221.769531 1496.769531 C 1220.597656 1497.125 1219.414062 1497.453125 1218.222656 1497.753906 C 1217.03125 1498.050781 1215.835938 1498.320312 1214.632812 1498.558594 C 1213.425781 1498.796875 1212.21875 1499.007812 1211.003906 1499.1875 C 1209.789062 1499.367188 1208.574219 1499.519531 1207.351562 1499.636719 C 1206.128906 1499.757812 1204.90625 1499.847656 1203.679688 1499.910156 C 1202.453125 1499.96875 1201.226562 1500 1200 1500 L 300 1500 C 298.773438 1500 297.546875 1499.96875 296.320312 1499.910156 C 295.09375 1499.847656 293.871094 1499.757812 292.648438 1499.636719 C 291.425781 1499.519531 290.210938 1499.367188 288.996094 1499.1875 C 287.78125 1499.007812 286.570312 1498.796875 285.367188 1498.558594 C 284.164062 1498.320312 282.96875 1498.050781 281.777344 1497.753906 C 280.585938 1497.453125 279.402344 1497.125 278.230469 1496.769531 C 277.054688 1496.414062 275.890625 1496.027344 274.734375 1495.617188 C 273.578125 1495.203125 272.433594 1494.761719 271.296875 1494.289062 C 270.164062 1493.820312 269.042969 1493.324219 267.933594 1492.796875 C 266.824219 1492.273438 265.726562 1491.722656 264.644531 1491.144531 C 263.5625 1490.566406 262.496094 1489.960938 261.441406 1489.328125 C 260.390625 1488.699219 259.351562 1488.042969 258.332031 1487.359375 C 257.3125 1486.679688 256.308594 1485.972656 255.324219 1485.238281 C 254.335938 1484.507812 253.371094 1483.753906 252.421875 1482.976562 C 251.472656 1482.195312 250.542969 1481.394531 249.632812 1480.570312 C 248.722656 1479.746094 247.835938 1478.902344 246.96875 1478.03125 C 246.097656 1477.164062 245.253906 1476.277344 244.429688 1475.367188 C 243.605469 1474.457031 242.804688 1473.527344 242.023438 1472.578125 C 241.246094 1471.628906 240.492188 1470.664062 239.757812 1469.675781 C 239.027344 1468.691406 238.320312 1467.6875 237.640625 1466.667969 C 236.957031 1465.648438 236.300781 1464.609375 235.671875 1463.558594 C 235.039062 1462.503906 234.433594 1461.4375 233.855469 1460.355469 C 233.277344 1459.273438 232.726562 1458.175781 232.199219 1457.066406 C 231.675781 1455.957031 231.179688 1454.835938 230.707031 1453.699219 C 230.238281 1452.566406 229.796875 1451.421875 229.382812 1450.265625 C 228.96875 1449.109375 228.585938 1447.945312 228.230469 1446.769531 C 227.875 1445.597656 227.546875 1444.414062 227.246094 1443.222656 C 226.949219 1442.03125 226.679688 1440.835938 226.441406 1439.632812 C 226.203125 1438.429688 225.992188 1437.21875 225.8125 1436.003906 C 225.632812 1434.789062 225.480469 1433.574219 225.359375 1432.351562 C 225.242188 1431.128906 225.152344 1429.90625 225.089844 1428.679688 C 225.03125 1427.453125 225 1426.226562 225 1425 L 225 225 C 225 223.773438 225.03125 222.546875 225.089844 221.320312 C 225.152344 220.09375 225.242188 218.871094 225.359375 217.648438 C 225.480469 216.425781 225.632812 215.210938 225.8125 213.996094 C 225.992188 212.78125 226.203125 211.570312 226.441406 210.367188 C 226.679688 209.164062 226.949219 207.96875 227.246094 206.777344 C 227.546875 205.585938 227.875 204.402344 228.230469 203.230469 C 228.585938 202.054688 228.972656 200.890625 229.382812 199.734375 C 229.796875 198.578125 230.238281 197.433594 230.710938 196.296875 C 231.179688 195.164062 231.675781 194.042969 232.199219 192.933594 C 232.726562 191.824219 233.277344 190.726562 233.855469 189.644531 C 234.433594 188.5625 235.039062 187.496094 235.671875 186.441406 C 236.300781 185.390625 236.957031 184.351562 237.640625 183.332031 C 238.320312 182.3125 239.027344 181.308594 239.757812 180.324219 C 240.492188 179.335938 241.246094 178.371094 242.023438 177.421875 C 242.804688 176.472656 243.605469 175.542969 244.429688 174.632812 C 245.253906 173.722656 246.097656 172.835938 246.96875 171.96875 C 247.835938 171.097656 248.722656 170.253906 249.632812 169.429688 C 250.542969 168.605469 251.472656 167.804688 252.421875 167.023438 C 253.371094 166.246094 254.335938 165.492188 255.324219 164.757812 C 256.308594 164.027344 257.3125 163.320312 258.332031 162.640625 C 259.351562 161.957031 260.390625 161.300781 261.441406 160.671875 C 262.496094 160.039062 263.5625 159.433594 264.644531 158.855469 C 265.726562 158.277344 266.824219 157.726562 267.933594 157.199219 C 269.042969 156.675781 270.164062 156.179688 271.296875 155.710938 C 272.433594 155.238281 273.578125 154.796875 274.734375 154.382812 C 275.890625 153.96875 277.054688 153.585938 278.230469 153.230469 C 279.402344 152.875 280.585938 152.546875 281.777344 152.246094 C 282.96875 151.949219 284.164062 151.679688 285.367188 151.441406 C 286.570312 151.203125 287.78125 150.992188 288.996094 150.8125 C 290.210938 150.632812 291.425781 150.480469 292.648438 150.359375 C 293.871094 150.242188 295.09375 150.152344 296.320312 150.089844 C 297.546875 150.03125 298.773438 150 300 150 Z M 825 750 L 825 375 L 450 900 L 675 900 L 675 1275 L 1050 750 Z M 825 750 " fill-opacity="1" fill-rule="nonzero"/></svg>