<svg xmlns="http://www.w3.org/2000/svg" xmlns:xlink="http://www.w3.org/1999/xlink" width="2000" zoomAndPan="magnify" viewBox="0 0 1500 1499.999933" height="2000" preserveAspectRatio="xMidYMid meet" version="1.0"><path fill="#000000" d="M 575.867188 589.992188 C 620.605469 634.484375 681.988281 662.0625 749.875 662.0625 C 817.761719 662.0625 879.144531 634.484375 923.882812 589.992188 C 924.402344 589.472656 924.664062 589.210938 925.183594 588.691406 C 969.402344 544.203125 996.972656 482.542969 996.972656 414.898438 L 996.972656 414.636719 C 996.710938 278.566406 885.90625 167.730469 749.875 167.730469 L 749.613281 167.730469 C 715.800781 167.992188 683.550781 174.757812 654.15625 187.246094 C 624.503906 199.734375 597.976562 217.425781 575.867188 239.800781 C 575.347656 240.058594 575.085938 240.582031 574.566406 240.839844 C 530.347656 285.589844 502.777344 346.992188 502.777344 414.898438 L 502.777344 415.15625 C 503.039062 482.800781 530.347656 544.203125 574.828125 588.953125 C 575.085938 589.472656 575.605469 589.734375 575.867188 589.992188 Z M 597.457031 574.644531 C 598.234375 558.773438 603.4375 524.949219 631.527344 496.851562 C 660.398438 468.230469 695.253906 463.808594 710.078125 463.289062 C 715.019531 467.191406 720.222656 470.574219 725.945312 473.175781 C 713.199219 490.605469 698.113281 518.964844 698.113281 556.691406 C 698.113281 589.734375 709.820312 616.011719 721.265625 633.960938 C 673.664062 627.71875 630.75 606.382812 597.457031 574.644531 Z M 755.078125 635.785156 C 744.671875 624.074219 724.125 596.238281 724.125 556.691406 C 724.125 515.84375 745.714844 488.003906 756.117188 477.078125 C 762.359375 476.558594 768.601562 475.257812 774.0625 472.914062 C 777.445312 494.511719 787.070312 525.210938 813.601562 551.746094 C 836.75 575.164062 863.539062 585.308594 884.347656 589.992188 C 848.195312 617.570312 803.714844 634.484375 755.078125 635.785156 Z M 909.578125 567.097656 C 893.710938 566.316406 859.898438 561.375 831.808594 533.277344 C 803.195312 504.65625 798.773438 469.53125 798.253906 454.703125 C 802.15625 449.761719 805.535156 444.554688 808.136719 438.832031 C 825.566406 451.582031 854.175781 466.671875 891.628906 466.671875 L 891.890625 466.671875 C 924.921875 466.671875 950.933594 454.964844 968.878906 443.515625 C 962.636719 491.128906 941.308594 534.054688 909.578125 567.097656 Z M 924.921875 280.386719 C 952.496094 316.292969 969.402344 361.039062 970.703125 409.691406 C 958.996094 420.101562 931.425781 440.652344 891.890625 440.652344 L 891.628906 440.652344 C 850.792969 440.394531 822.964844 419.058594 812.300781 408.652344 C 811.519531 402.410156 810.21875 396.164062 807.878906 390.699219 C 829.464844 387.320312 860.15625 377.691406 886.6875 351.15625 C 910.097656 328 920.242188 301.199219 924.921875 280.386719 Z M 902.292969 255.152344 C 901.515625 271.019531 896.3125 304.84375 868.222656 332.941406 C 839.351562 361.5625 804.496094 365.984375 789.671875 366.503906 C 784.730469 362.601562 779.527344 359.21875 773.804688 356.617188 C 786.550781 339.1875 801.636719 310.566406 801.636719 273.101562 C 801.636719 240.058594 789.929688 213.78125 778.484375 195.832031 C 826.085938 202.074219 869 223.410156 902.292969 255.152344 Z M 744.671875 194.007812 C 755.078125 205.71875 775.625 233.296875 775.625 273.101562 C 775.625 313.6875 754.035156 341.527344 743.632812 352.457031 C 737.390625 353.234375 731.148438 354.535156 725.683594 356.878906 C 722.304688 335.285156 712.679688 304.582031 686.148438 278.046875 C 663 254.628906 635.949219 244.484375 615.140625 240.058594 C 651.296875 212.222656 696.035156 195.3125 744.671875 194.007812 Z M 590.171875 262.433594 C 606.039062 263.214844 639.851562 268.417969 667.941406 296.519531 C 696.554688 325.136719 700.976562 360.261719 701.496094 375.089844 C 697.59375 380.035156 694.214844 385.238281 691.613281 390.960938 C 674.183594 378.210938 645.835938 363.121094 608.121094 363.121094 L 607.859375 363.121094 C 574.828125 363.121094 548.816406 374.832031 530.871094 386.277344 C 537.113281 338.667969 558.441406 295.738281 590.171875 262.433594 Z M 607.859375 389.140625 L 608.121094 389.140625 C 648.957031 389.140625 676.785156 410.734375 687.449219 420.878906 C 688.230469 427.386719 689.53125 433.367188 691.871094 439.09375 C 670.285156 442.476562 639.851562 452.101562 613.0625 478.640625 C 589.652344 501.792969 579.507812 528.59375 574.828125 549.40625 C 547.253906 513.503906 530.347656 468.753906 529.046875 420.101562 C 540.753906 409.691406 568.324219 389.140625 607.859375 389.140625 Z M 607.859375 389.140625 " fill-opacity="1" fill-rule="nonzero"/><path fill="#000000" d="M 575.867188 1183.1875 C 620.605469 1227.417969 681.988281 1254.996094 749.875 1254.996094 C 817.761719 1254.996094 879.144531 1227.417969 923.882812 1182.929688 C 924.402344 1182.667969 924.664062 1182.40625 925.183594 1181.886719 C 969.402344 1137.136719 996.972656 1075.738281 996.972656 1007.832031 C 996.972656 974.007812 989.949219 941.488281 977.464844 912.085938 C 965.238281 882.6875 947.03125 856.152344 924.921875 833.777344 C 924.664062 833.515625 924.144531 832.996094 923.882812 832.734375 C 879.144531 788.503906 817.761719 760.925781 749.875 760.925781 C 681.988281 760.925781 620.34375 788.503906 575.867188 832.996094 C 575.347656 833.253906 575.085938 833.515625 574.828125 834.035156 C 530.347656 878.785156 502.777344 940.1875 502.777344 1007.832031 L 502.777344 1008.09375 C 503.039062 1075.996094 530.347656 1137.398438 574.828125 1181.886719 C 575.085938 1182.40625 575.605469 1182.667969 575.867188 1183.1875 Z M 597.457031 1167.578125 C 598.234375 1151.96875 603.4375 1117.886719 631.527344 1090.046875 C 660.398438 1061.167969 695.253906 1056.746094 710.078125 1056.484375 C 715.019531 1060.386719 720.222656 1063.769531 725.945312 1066.109375 C 713.199219 1083.800781 698.113281 1112.160156 698.113281 1149.625 C 698.113281 1182.929688 709.820312 1208.945312 721.265625 1226.898438 C 673.664062 1220.652344 630.75 1199.320312 597.457031 1167.578125 Z M 755.078125 1228.71875 C 744.671875 1217.011719 724.125 1189.433594 724.125 1149.625 C 724.125 1109.039062 745.714844 1081.199219 756.117188 1070.273438 C 762.359375 1069.753906 768.601562 1068.453125 774.0625 1066.109375 C 777.445312 1087.445312 787.070312 1118.144531 813.601562 1144.683594 C 836.75 1168.097656 863.539062 1178.503906 884.347656 1182.929688 C 848.195312 1210.765625 803.714844 1227.679688 755.078125 1228.71875 Z M 909.578125 1160.292969 C 893.710938 1159.253906 859.898438 1154.570312 831.808594 1126.46875 C 803.195312 1097.589844 798.773438 1062.726562 798.253906 1047.636719 C 802.15625 1042.953125 805.535156 1037.75 808.136719 1031.769531 C 825.566406 1044.515625 853.914062 1059.605469 891.628906 1059.605469 L 891.890625 1059.605469 C 924.921875 1059.605469 950.933594 1047.898438 968.878906 1036.449219 C 962.636719 1084.0625 941.308594 1126.992188 909.578125 1160.292969 Z M 924.921875 873.320312 C 952.496094 909.484375 969.402344 953.976562 970.703125 1002.628906 C 958.996094 1013.296875 931.425781 1033.589844 891.890625 1033.589844 L 891.628906 1033.589844 C 850.792969 1033.589844 822.964844 1011.996094 812.300781 1001.847656 C 811.519531 995.601562 810.21875 989.359375 807.878906 983.636719 C 829.464844 980.253906 860.15625 970.886719 886.6875 944.347656 C 910.097656 920.933594 920.242188 894.136719 924.921875 873.320312 Z M 902.292969 848.085938 C 901.515625 863.957031 896.3125 898.039062 868.222656 925.878906 C 839.351562 954.757812 804.496094 958.917969 789.671875 959.441406 C 784.730469 955.535156 779.527344 952.15625 773.804688 949.8125 C 786.550781 932.121094 801.636719 903.761719 801.636719 866.296875 C 801.636719 832.996094 789.929688 806.976562 778.484375 789.027344 C 826.085938 795.269531 869 816.605469 902.292969 848.085938 Z M 744.671875 787.203125 C 755.078125 798.914062 775.625 826.492188 775.625 866.296875 C 775.625 906.882812 754.035156 934.722656 743.632812 945.648438 C 737.390625 946.171875 731.148438 947.472656 725.683594 949.8125 C 722.304688 928.480469 712.679688 897.777344 686.148438 871.242188 C 663 847.824219 635.949219 837.679688 615.140625 832.996094 C 651.296875 805.15625 696.035156 788.246094 744.671875 787.203125 Z M 590.171875 855.628906 C 606.039062 856.410156 639.851562 861.613281 667.941406 889.453125 C 696.554688 918.332031 700.976562 953.195312 701.496094 968.285156 C 697.59375 972.96875 694.214844 978.171875 691.613281 984.15625 C 674.183594 971.40625 645.574219 956.316406 608.121094 956.316406 L 607.859375 956.316406 C 574.828125 956.316406 548.816406 968.023438 530.871094 979.472656 C 537.113281 931.601562 558.441406 888.671875 590.171875 855.628906 Z M 607.859375 982.335938 L 608.121094 982.335938 C 648.957031 982.335938 676.785156 1003.929688 687.449219 1014.074219 C 688.230469 1020.320312 689.53125 1026.5625 691.871094 1032.289062 C 670.285156 1035.671875 639.851562 1045.035156 613.0625 1071.574219 C 589.652344 1094.988281 579.507812 1121.789062 574.828125 1142.601562 C 547.253906 1106.4375 530.347656 1061.949219 529.046875 1013.296875 C 540.753906 1002.628906 568.324219 982.335938 607.859375 982.335938 Z M 607.859375 982.335938 " fill-opacity="1" fill-rule="nonzero"/><path fill="#000000" d="M 347.757812 1418.90625 L 396.398438 1418.90625 L 411.222656 1483.429688 C 412.523438 1489.414062 417.726562 1493.574219 423.96875 1493.574219 L 498.617188 1493.574219 C 504.859375 1493.574219 510.0625 1489.414062 511.363281 1483.429688 L 526.1875 1418.90625 L 973.5625 1418.90625 L 988.386719 1483.429688 C 989.6875 1489.414062 994.890625 1493.574219 1001.132812 1493.574219 L 1075.78125 1493.574219 C 1082.023438 1493.574219 1087.226562 1489.414062 1088.527344 1483.429688 L 1103.351562 1418.90625 L 1151.992188 1418.90625 C 1176.703125 1418.90625 1196.730469 1398.871094 1196.730469 1374.15625 L 1196.730469 48.574219 C 1196.730469 23.855469 1176.703125 3.824219 1151.992188 3.824219 L 347.757812 3.824219 C 323.046875 3.824219 303.019531 23.855469 303.019531 48.574219 L 303.019531 1374.15625 C 303.019531 1398.871094 323.046875 1418.90625 347.757812 1418.90625 Z M 488.472656 1467.558594 L 434.371094 1467.558594 L 423.1875 1418.90625 L 499.65625 1418.90625 Z M 1065.378906 1467.558594 L 1011.277344 1467.558594 L 1000.09375 1418.90625 L 1076.5625 1418.90625 Z M 329.03125 48.574219 C 329.03125 38.425781 337.613281 29.839844 347.757812 29.839844 L 1151.992188 29.839844 C 1162.136719 29.839844 1170.71875 38.425781 1170.71875 48.574219 L 1170.71875 374.832031 L 1105.953125 449.5 L 1105.953125 107.632812 C 1105.953125 100.347656 1100.230469 94.625 1092.949219 94.625 L 406.800781 94.625 C 399.519531 94.625 393.796875 100.347656 393.796875 107.632812 L 393.796875 449.5 L 329.03125 374.832031 Z M 1079.945312 120.640625 L 1079.945312 1302.347656 L 419.804688 1302.347656 L 419.804688 120.640625 Z M 329.03125 1048.160156 L 393.796875 973.488281 L 393.796875 1315.355469 C 393.796875 1322.382812 399.519531 1328.363281 406.800781 1328.363281 L 1092.949219 1328.363281 C 1100.230469 1328.363281 1105.953125 1322.382812 1105.953125 1315.355469 L 1105.953125 973.488281 L 1170.71875 1048.160156 L 1170.71875 1374.15625 C 1170.71875 1384.5625 1162.136719 1392.886719 1151.992188 1392.886719 L 347.757812 1392.886719 C 337.613281 1392.886719 329.03125 1384.5625 329.03125 1374.15625 Z M 329.03125 1048.160156 " fill-opacity="1" fill-rule="nonzero"/></svg>