<svg xmlns="http://www.w3.org/2000/svg" xmlns:xlink="http://www.w3.org/1999/xlink" width="2000" zoomAndPan="magnify" viewBox="0 0 1500 1499.999933" height="2000" preserveAspectRatio="xMidYMid meet" version="1.0"><defs><clipPath id="5d3e34d2b7"><path d="M 110 280.3125 L 200 280.3125 L 200 1220.0625 L 110 1220.0625 Z M 110 280.3125 " clip-rule="nonzero"/></clipPath></defs><g clip-path="url(#5d3e34d2b7)"><path fill="#000000" d="M 183.359375 1220.003906 L 127.011719 1220.003906 C 118.011719 1220.003906 110.707031 1212.699219 110.707031 1203.695312 L 110.707031 297.007812 C 110.707031 288.003906 118.011719 280.695312 127.011719 280.695312 L 183.359375 280.695312 C 192.359375 280.695312 199.664062 288.003906 199.664062 297.007812 L 199.664062 1203.695312 C 199.664062 1212.699219 192.359375 1220.003906 183.359375 1220.003906 Z M 143.28125 1187.382812 L 167.023438 1187.382812 L 167.023438 313.316406 L 143.28125 313.316406 Z M 143.28125 1187.382812 " fill-opacity="1" fill-rule="nonzero"/></g><path fill="#000000" d="M 65.96875 699.65625 L 16.304688 699.65625 C 7.304688 699.65625 0 692.347656 0 683.34375 L 0 447.359375 C 0 438.355469 7.304688 431.050781 16.304688 431.050781 L 65.96875 431.050781 C 74.96875 431.050781 82.273438 438.355469 82.273438 447.359375 L 82.273438 683.34375 C 82.273438 692.347656 74.96875 699.65625 65.96875 699.65625 Z M 32.609375 667.035156 L 49.664062 667.035156 L 49.664062 463.671875 L 32.609375 463.671875 Z M 32.609375 667.035156 " fill-opacity="1" fill-rule="nonzero"/><path fill="#000000" d="M 65.96875 1081.589844 L 16.304688 1081.589844 C 7.304688 1081.589844 0 1074.285156 0 1065.28125 L 0 829.296875 C 0 820.292969 7.304688 812.984375 16.304688 812.984375 L 65.96875 812.984375 C 74.96875 812.984375 82.273438 820.292969 82.273438 829.296875 L 82.273438 1065.28125 C 82.273438 1074.285156 74.96875 1081.589844 65.96875 1081.589844 Z M 32.609375 1048.96875 L 49.664062 1048.96875 L 49.664062 845.605469 L 32.609375 845.605469 Z M 32.609375 1048.96875 " fill-opacity="1" fill-rule="nonzero"/><path fill="#000000" d="M 1415.773438 1124.585938 L 258.425781 1124.585938 C 211.988281 1124.585938 174.195312 1086.777344 174.195312 1040.324219 L 174.195312 431.015625 C 174.195312 384.5625 211.988281 346.753906 258.425781 346.753906 L 1415.773438 346.753906 C 1462.207031 346.753906 1500 384.5625 1500 431.015625 L 1500 1040.324219 C 1500 1086.777344 1462.207031 1124.585938 1415.773438 1124.585938 Z M 258.425781 379.375 C 229.957031 379.375 206.804688 402.539062 206.804688 431.015625 L 206.804688 1040.324219 C 206.804688 1068.804688 229.957031 1091.964844 258.425781 1091.964844 L 1415.773438 1091.964844 C 1444.238281 1091.964844 1467.390625 1068.804688 1467.390625 1040.324219 L 1467.390625 431.015625 C 1467.390625 402.539062 1444.238281 379.375 1415.773438 379.375 Z M 258.425781 379.375 " fill-opacity="1" fill-rule="nonzero"/><path fill="#000000" d="M 552.976562 992.632812 C 411.359375 992.632812 296.121094 877.378906 296.121094 735.671875 C 296.121094 593.960938 411.324219 478.710938 552.976562 478.710938 C 694.628906 478.710938 809.835938 593.960938 809.835938 735.671875 C 809.835938 877.378906 694.597656 992.632812 552.976562 992.632812 Z M 552.976562 511.332031 C 429.324219 511.332031 328.726562 611.96875 328.726562 735.671875 C 328.726562 859.371094 429.324219 960.011719 552.976562 960.011719 C 676.628906 960.011719 777.226562 859.371094 777.226562 735.671875 C 777.226562 611.96875 676.628906 511.332031 552.976562 511.332031 Z M 552.976562 511.332031 " fill-opacity="1" fill-rule="nonzero"/><path fill="#000000" d="M 552.976562 844.984375 C 492.71875 844.984375 443.707031 795.957031 443.707031 735.671875 C 443.707031 675.386719 492.71875 626.355469 552.976562 626.355469 C 613.238281 626.355469 662.25 675.386719 662.25 735.671875 C 662.25 795.957031 613.238281 844.984375 552.976562 844.984375 Z M 552.976562 658.976562 C 510.71875 658.976562 476.316406 693.359375 476.316406 735.671875 C 476.316406 777.980469 510.683594 812.363281 552.976562 812.363281 C 595.273438 812.363281 629.640625 777.980469 629.640625 735.671875 C 629.640625 693.359375 595.273438 658.976562 552.976562 658.976562 Z M 552.976562 658.976562 " fill-opacity="1" fill-rule="nonzero"/><path fill="#000000" d="M 588.425781 662.175781 C 587.675781 662.175781 586.890625 662.109375 586.109375 662.011719 C 577.207031 660.738281 571.011719 652.484375 572.25 643.578125 C 572.378906 642.535156 585.945312 540.234375 525.128906 515.570312 C 516.78125 512.179688 512.773438 502.6875 516.128906 494.335938 C 519.523438 485.984375 529.011719 481.972656 537.359375 485.332031 C 573.066406 499.816406 595.925781 533.1875 603.523438 581.828125 C 608.933594 616.472656 604.695312 646.875 604.53125 648.148438 C 603.359375 656.269531 596.378906 662.175781 588.421875 662.175781 Z M 588.425781 662.175781 " fill-opacity="1" fill-rule="nonzero"/><path fill="#000000" d="M 637.042969 695.253906 C 633.621094 695.253906 630.164062 694.175781 627.195312 691.925781 C 620.023438 686.476562 618.621094 676.265625 624.03125 669.089844 C 624.652344 668.273438 686.183594 585.382812 644.96875 534.296875 C 639.324219 527.285156 640.402344 517.007812 647.414062 511.363281 C 654.425781 505.71875 664.695312 506.796875 670.335938 513.808594 C 694.53125 543.789062 698.316406 584.078125 681.324219 630.300781 C 669.226562 663.183594 650.804688 687.75 650.023438 688.792969 C 646.824219 693.035156 641.933594 695.253906 637.011719 695.253906 Z M 637.042969 695.253906 " fill-opacity="1" fill-rule="nonzero"/><path fill="#000000" d="M 323.835938 692.21875 C 319.925781 692.21875 316.011719 690.816406 312.914062 688.011719 C 306.226562 681.976562 305.707031 671.667969 311.773438 664.980469 C 337.597656 636.402344 376.792969 626.355469 425.085938 635.914062 C 459.457031 642.730469 486.585938 657.117188 487.695312 657.738281 C 495.621094 661.976562 498.621094 671.863281 494.378906 679.824219 C 490.140625 687.75 480.261719 690.75 472.335938 686.511719 C 471.425781 686.019531 379.988281 638.164062 335.96875 686.867188 C 332.738281 690.425781 328.304688 692.25 323.871094 692.25 Z M 323.835938 692.21875 " fill-opacity="1" fill-rule="nonzero"/><path fill="#000000" d="M 527.738281 654.082031 C 522.390625 654.082031 517.140625 651.441406 514.011719 646.613281 C 513.292969 645.535156 456.652344 559.546875 394.628906 580.683594 C 386.085938 583.589844 376.824219 579.019531 373.925781 570.507812 C 371.023438 561.992188 375.585938 552.695312 384.097656 549.792969 C 420.554688 537.363281 459.683594 547.605469 497.25 579.445312 C 523.988281 602.085938 540.71875 627.855469 541.402344 628.933594 C 546.261719 636.5 544.074219 646.613281 536.511719 651.472656 C 533.773438 653.234375 530.707031 654.082031 527.707031 654.082031 Z M 527.738281 654.082031 " fill-opacity="1" fill-rule="nonzero"/><path fill="#000000" d="M 442.597656 956.0625 C 437.707031 956.0625 432.878906 953.878906 429.652344 949.703125 C 406.175781 919.136719 403.335938 878.78125 421.402344 832.980469 C 434.28125 800.390625 453.292969 776.285156 454.109375 775.273438 C 459.71875 768.226562 469.957031 767.054688 477.03125 772.664062 C 484.074219 778.273438 485.25 788.519531 479.640625 795.5625 C 478.988281 796.378906 415.53125 877.769531 455.511719 929.835938 C 460.988281 936.980469 459.652344 947.222656 452.511719 952.703125 C 449.542969 954.988281 446.054688 956.09375 442.597656 956.09375 Z M 442.597656 956.0625 " fill-opacity="1" fill-rule="nonzero"/><path fill="#000000" d="M 345.523438 871.671875 C 337.566406 871.671875 330.621094 865.863281 329.414062 857.773438 C 323.738281 819.671875 340.824219 783.003906 378.878906 751.71875 C 405.945312 729.472656 434.28125 717.632812 435.457031 717.140625 C 443.773438 713.714844 453.324219 717.664062 456.75 725.980469 C 460.175781 734.300781 456.226562 743.824219 447.914062 747.285156 C 446.96875 747.675781 351.976562 787.996094 361.664062 852.945312 C 363 861.851562 356.835938 870.171875 347.933594 871.476562 C 347.121094 871.605469 346.304688 871.671875 345.523438 871.671875 Z M 345.523438 871.671875 " fill-opacity="1" fill-rule="nonzero"/><path fill="#000000" d="M 694.273438 921.15625 C 667.238281 921.15625 639.359375 909.609375 612.195312 886.90625 C 585.324219 864.429688 568.433594 838.789062 567.71875 837.710938 C 562.792969 830.175781 564.914062 820.0625 572.445312 815.136719 C 579.976562 810.210938 590.085938 812.332031 595.011719 819.867188 C 595.566406 820.75 652.824219 906.609375 714.816406 885.046875 C 723.324219 882.078125 732.621094 886.578125 735.585938 895.09375 C 738.554688 903.605469 734.054688 912.90625 725.542969 915.875 C 715.304688 919.429688 704.871094 921.191406 694.273438 921.191406 Z M 694.273438 921.15625 " fill-opacity="1" fill-rule="nonzero"/><path fill="#000000" d="M 609.585938 982.355469 C 608.675781 982.355469 607.726562 982.289062 606.78125 982.128906 C 568.824219 975.539062 539.414062 947.746094 521.738281 901.8125 C 509.152344 869.09375 506.835938 838.496094 506.738281 837.191406 C 506.085938 828.21875 512.871094 820.390625 521.835938 819.769531 C 530.773438 819.117188 538.597656 825.871094 539.25 834.875 C 539.347656 836.242188 547.792969 938.804688 612.359375 950.027344 C 621.226562 951.5625 627.164062 960.011719 625.628906 968.882812 C 624.261719 976.808594 617.378906 982.421875 609.585938 982.421875 Z M 609.585938 982.355469 " fill-opacity="1" fill-rule="nonzero"/><path fill="#000000" d="M 650.804688 759.09375 C 643.988281 759.09375 637.628906 754.753906 635.347656 747.9375 C 632.511719 739.390625 637.109375 730.15625 645.652344 727.320312 C 646.628906 726.992188 744.195312 693.394531 739.074219 627.953125 C 738.359375 618.984375 745.074219 611.121094 754.042969 610.402344 C 763.042969 609.71875 770.871094 616.40625 771.585938 625.375 C 774.585938 663.804688 754.988281 699.167969 714.847656 727.710938 C 686.28125 748 657.195312 757.851562 655.988281 758.246094 C 654.292969 758.800781 652.53125 759.09375 650.835938 759.09375 Z M 650.804688 759.09375 " fill-opacity="1" fill-rule="nonzero"/><path fill="#000000" d="M 680.640625 820.421875 C 657.78125 820.421875 640.890625 817.324219 639.945312 817.160156 C 631.109375 815.496094 625.273438 806.980469 626.933594 798.109375 C 628.597656 789.269531 637.109375 783.429688 645.945312 785.09375 C 646.957031 785.289062 748.566406 803.296875 775.859375 743.597656 C 779.609375 735.410156 789.261719 731.789062 797.476562 735.539062 C 805.664062 739.292969 809.28125 748.949219 805.53125 757.167969 C 789.523438 792.203125 755.183594 813.605469 706.273438 819.050781 C 697.304688 820.0625 688.628906 820.421875 680.671875 820.421875 Z M 680.640625 820.421875 " fill-opacity="1" fill-rule="nonzero"/><path fill="#000000" d="M 1121.21875 992.632812 C 979.597656 992.632812 864.359375 877.378906 864.359375 735.671875 C 864.359375 593.960938 979.566406 478.710938 1121.21875 478.710938 C 1262.871094 478.710938 1378.074219 593.960938 1378.074219 735.671875 C 1378.074219 877.378906 1262.871094 992.632812 1121.21875 992.632812 Z M 1121.21875 511.332031 C 997.566406 511.332031 896.96875 611.96875 896.96875 735.671875 C 896.96875 859.371094 997.566406 960.011719 1121.21875 960.011719 C 1244.871094 960.011719 1345.46875 859.371094 1345.46875 735.671875 C 1345.46875 611.96875 1244.871094 511.332031 1121.21875 511.332031 Z M 1121.21875 511.332031 " fill-opacity="1" fill-rule="nonzero"/><path fill="#000000" d="M 1121.21875 844.984375 C 1060.957031 844.984375 1011.945312 795.957031 1011.945312 735.671875 C 1011.945312 675.386719 1060.957031 626.355469 1121.21875 626.355469 C 1181.476562 626.355469 1230.488281 675.386719 1230.488281 735.671875 C 1230.488281 795.957031 1181.476562 844.984375 1121.21875 844.984375 Z M 1121.21875 658.976562 C 1078.957031 658.976562 1044.554688 693.359375 1044.554688 735.671875 C 1044.554688 777.980469 1078.921875 812.363281 1121.21875 812.363281 C 1163.511719 812.363281 1197.878906 777.980469 1197.878906 735.671875 C 1197.878906 693.359375 1163.511719 658.976562 1121.21875 658.976562 Z M 1121.21875 658.976562 " fill-opacity="1" fill-rule="nonzero"/><path fill="#000000" d="M 1156.664062 662.175781 C 1155.914062 662.175781 1155.128906 662.109375 1154.347656 662.011719 C 1145.445312 660.738281 1139.25 652.484375 1140.488281 643.578125 C 1140.71875 641.851562 1153.957031 540.136719 1093.371094 515.570312 C 1085.023438 512.179688 1081.011719 502.6875 1084.371094 494.335938 C 1087.761719 485.984375 1097.25 481.972656 1105.597656 485.332031 C 1141.304688 499.816406 1164.164062 533.1875 1171.761719 581.828125 C 1177.171875 616.472656 1172.933594 646.875 1172.773438 648.148438 C 1171.597656 656.269531 1164.621094 662.175781 1156.664062 662.175781 Z M 1156.664062 662.175781 " fill-opacity="1" fill-rule="nonzero"/><path fill="#000000" d="M 1205.28125 695.253906 C 1201.859375 695.253906 1198.402344 694.175781 1195.433594 691.925781 C 1188.261719 686.476562 1186.859375 676.265625 1192.273438 669.089844 C 1193.25 667.785156 1254.292969 585.253906 1213.207031 534.296875 C 1207.566406 527.285156 1208.640625 517.007812 1215.652344 511.363281 C 1222.664062 505.71875 1232.933594 506.796875 1238.574219 513.808594 C 1262.773438 543.789062 1266.554688 584.078125 1249.566406 630.300781 C 1237.46875 663.183594 1219.042969 687.75 1218.261719 688.792969 C 1215.066406 693.035156 1210.171875 695.253906 1205.25 695.253906 Z M 1205.28125 695.253906 " fill-opacity="1" fill-rule="nonzero"/><path fill="#000000" d="M 892.074219 692.21875 C 888.164062 692.21875 884.25 690.816406 881.152344 688.011719 C 874.46875 681.976562 873.945312 671.667969 880.011719 664.980469 C 905.835938 636.402344 945.03125 626.355469 993.324219 635.914062 C 1027.695312 642.730469 1054.824219 657.117188 1055.933594 657.738281 C 1063.859375 661.976562 1066.859375 671.863281 1062.621094 679.824219 C 1058.378906 687.75 1048.5 690.75 1040.574219 686.511719 C 1039.664062 686.019531 948.226562 638.164062 904.207031 686.867188 C 900.976562 690.425781 896.542969 692.25 892.109375 692.25 Z M 892.074219 692.21875 " fill-opacity="1" fill-rule="nonzero"/><path fill="#000000" d="M 1095.976562 654.082031 C 1090.628906 654.082031 1085.378906 651.441406 1082.25 646.613281 C 1081.53125 645.535156 1024.925781 559.546875 962.871094 580.683594 C 954.324219 583.589844 945.066406 579.019531 942.164062 570.507812 C 939.261719 561.992188 943.824219 552.695312 952.335938 549.792969 C 988.792969 537.363281 1027.925781 547.605469 1065.488281 579.445312 C 1092.226562 602.085938 1108.957031 627.855469 1109.640625 628.933594 C 1114.5 636.5 1112.316406 646.613281 1104.75 651.472656 C 1102.011719 653.234375 1098.945312 654.082031 1095.945312 654.082031 Z M 1095.976562 654.082031 " fill-opacity="1" fill-rule="nonzero"/><path fill="#000000" d="M 1010.835938 956.0625 C 1005.945312 956.0625 1001.121094 953.878906 997.890625 949.703125 C 974.414062 919.136719 971.574219 878.78125 989.640625 832.980469 C 1002.523438 800.390625 1021.53125 776.285156 1022.347656 775.273438 C 1027.957031 768.226562 1038.195312 767.054688 1045.273438 772.664062 C 1052.316406 778.273438 1053.488281 788.519531 1047.878906 795.5625 C 1047.226562 796.378906 983.773438 877.769531 1023.75 929.835938 C 1029.226562 936.980469 1027.890625 947.222656 1020.75 952.703125 C 1017.78125 954.988281 1014.292969 956.09375 1010.835938 956.09375 Z M 1010.835938 956.0625 " fill-opacity="1" fill-rule="nonzero"/><path fill="#000000" d="M 913.726562 871.671875 C 905.773438 871.671875 898.824219 865.863281 897.621094 857.773438 C 891.945312 819.671875 909.03125 783.003906 947.085938 751.71875 C 974.152344 729.472656 1002.488281 717.632812 1003.664062 717.140625 C 1011.976562 713.714844 1021.53125 717.664062 1024.957031 725.980469 C 1028.378906 734.300781 1024.433594 743.824219 1016.121094 747.285156 C 1015.175781 747.675781 920.183594 787.996094 929.871094 852.945312 C 931.207031 861.851562 925.042969 870.171875 916.140625 871.476562 C 915.324219 871.605469 914.511719 871.671875 913.726562 871.671875 Z M 913.726562 871.671875 " fill-opacity="1" fill-rule="nonzero"/><path fill="#000000" d="M 1262.511719 921.15625 C 1235.476562 921.15625 1207.597656 909.609375 1180.433594 886.90625 C 1153.566406 864.429688 1136.671875 838.789062 1135.957031 837.710938 C 1131.03125 830.175781 1133.152344 820.0625 1140.683594 815.136719 C 1148.21875 810.210938 1158.324219 812.332031 1163.25 819.867188 C 1163.804688 820.75 1221.066406 906.609375 1283.054688 885.046875 C 1291.566406 882.078125 1300.859375 886.578125 1303.824219 895.09375 C 1306.792969 903.605469 1302.292969 912.90625 1293.78125 915.875 C 1283.542969 919.429688 1273.109375 921.191406 1262.511719 921.191406 Z M 1262.511719 921.15625 " fill-opacity="1" fill-rule="nonzero"/><path fill="#000000" d="M 1177.824219 982.355469 C 1176.914062 982.355469 1175.96875 982.289062 1175.023438 982.128906 C 1137.066406 975.539062 1107.652344 947.746094 1089.976562 901.8125 C 1077.390625 869.09375 1075.074219 838.496094 1074.976562 837.191406 C 1074.324219 828.21875 1081.109375 820.390625 1090.074219 819.769531 C 1099.011719 819.117188 1106.835938 825.871094 1107.488281 834.875 C 1107.585938 836.242188 1116.03125 938.804688 1180.597656 950.027344 C 1189.46875 951.5625 1195.402344 960.011719 1193.871094 968.882812 C 1192.5 976.808594 1185.621094 982.421875 1177.824219 982.421875 Z M 1177.824219 982.355469 " fill-opacity="1" fill-rule="nonzero"/><path fill="#000000" d="M 1219.042969 759.09375 C 1212.226562 759.09375 1205.871094 754.753906 1203.585938 747.9375 C 1200.75 739.390625 1205.347656 730.15625 1213.890625 727.320312 C 1214.871094 726.992188 1312.433594 693.394531 1307.316406 627.953125 C 1306.597656 618.984375 1313.316406 611.121094 1322.28125 610.402344 C 1331.28125 609.71875 1339.109375 616.40625 1339.824219 625.375 C 1342.824219 663.804688 1323.226562 699.167969 1283.085938 727.710938 C 1254.523438 748 1225.433594 757.851562 1224.226562 758.246094 C 1222.53125 758.800781 1220.773438 759.09375 1219.074219 759.09375 Z M 1219.042969 759.09375 " fill-opacity="1" fill-rule="nonzero"/><path fill="#000000" d="M 1248.878906 820.421875 C 1226.023438 820.421875 1209.128906 817.324219 1208.183594 817.160156 C 1199.347656 815.496094 1193.511719 806.980469 1195.171875 798.109375 C 1196.835938 789.269531 1205.316406 783.394531 1214.183594 785.09375 C 1215.554688 785.355469 1316.835938 803.199219 1344.097656 743.597656 C 1347.847656 735.410156 1357.53125 731.789062 1365.71875 735.539062 C 1373.902344 739.292969 1377.523438 748.949219 1373.773438 757.167969 C 1357.761719 792.203125 1323.421875 813.605469 1274.511719 819.085938 C 1265.542969 820.097656 1256.871094 820.453125 1248.914062 820.453125 Z M 1248.878906 820.421875 " fill-opacity="1" fill-rule="nonzero"/></svg>