<svg xmlns="http://www.w3.org/2000/svg" xmlns:xlink="http://www.w3.org/1999/xlink" width="2000" zoomAndPan="magnify" viewBox="0 0 1500 1499.999933" height="2000" preserveAspectRatio="xMidYMid meet" version="1.0"><defs><clipPath id="2f82e7186d"><path d="M 0 118 L 1499 118 L 1499 1382.523438 L 0 1382.523438 Z M 0 118 " clip-rule="nonzero"/></clipPath></defs><g clip-path="url(#2f82e7186d)"><path fill="#000000" d="M 494.207031 118.355469 C 494.839844 118.3125 495.472656 118.273438 496.105469 118.25 C 512.023438 117.660156 530.289062 120.480469 546.28125 121.769531 C 578.332031 124.410156 610.390625 126.894531 642.460938 129.207031 L 971.3125 153.050781 C 1021.257812 157.035156 1071.308594 159.882812 1121.242188 164.121094 C 1131.050781 164.957031 1140.875 165.925781 1150.707031 166.566406 C 1157.25 166.988281 1164.121094 166.777344 1170.5625 168.011719 C 1173.480469 168.566406 1176.832031 169.734375 1178.925781 171.957031 C 1180.867188 174.023438 1180.722656 175.492188 1180.734375 178.21875 C 1180.777344 189.230469 1179.445312 200.570312 1178.699219 211.570312 C 1177.152344 234.515625 1175.484375 257.453125 1173.699219 280.378906 L 1161.269531 461.0625 C 1169 462.433594 1177.234375 462.585938 1185.085938 463.175781 L 1225.203125 466.335938 L 1335.792969 475.5625 C 1352.453125 476.945312 1369.203125 477.6875 1385.820312 479.472656 C 1419.839844 483.121094 1449.984375 500.433594 1471.195312 527.074219 C 1472.945312 529.277344 1474.609375 531.527344 1476.195312 533.832031 C 1477.777344 536.144531 1479.292969 538.5 1480.71875 540.90625 C 1482.15625 543.316406 1483.511719 545.769531 1484.773438 548.265625 C 1486.046875 550.765625 1487.234375 553.300781 1488.34375 555.878906 C 1489.441406 558.457031 1490.453125 561.0625 1491.382812 563.710938 C 1492.3125 566.351562 1493.15625 569.023438 1493.910156 571.722656 C 1494.664062 574.421875 1495.328125 577.144531 1495.894531 579.882812 C 1496.464844 582.625 1496.941406 585.390625 1497.332031 588.167969 C 1498.992188 600.1875 1498.566406 612.402344 1498.566406 624.515625 L 1498.507812 672.8125 L 1498.007812 843.464844 C 1498.226562 890.171875 1498.164062 936.875 1497.832031 983.582031 C 1497.847656 1004.632812 1499.84375 1030.722656 1497.363281 1051.15625 C 1495.453125 1066.738281 1488.195312 1082.015625 1478.101562 1093.917969 C 1470.730469 1102.625 1461.25 1109.882812 1452.519531 1117.171875 C 1437.011719 1130.125 1421.121094 1142.621094 1405.625 1155.589844 L 1302.90625 1240.664062 C 1282.746094 1257.433594 1263 1275.128906 1242.191406 1291.0625 C 1229.488281 1300.800781 1215.0625 1306.6875 1199.054688 1307.941406 C 1181.175781 1309.339844 1162.152344 1305.574219 1144.324219 1303.542969 L 1065.984375 1294.867188 C 1033.640625 1291.378906 1001.261719 1288.179688 968.859375 1285.25 C 949.238281 1283.425781 929.457031 1282.015625 909.921875 1279.429688 L 889.324219 1301.953125 C 873.703125 1318.777344 858.261719 1335.753906 842.984375 1352.890625 C 834.34375 1362.59375 825.957031 1373.628906 816.121094 1382.105469 L 374.675781 1344.515625 L 199.890625 1330.378906 L 155.132812 1326.703125 C 148.871094 1326.214844 142.464844 1326.179688 136.25 1325.417969 C 133.355469 1325.0625 130.15625 1324.273438 127.785156 1322.484375 C 125.539062 1320.800781 124.398438 1317.75 124.253906 1315 C 124.117188 1312.253906 125.136719 1309.992188 126.75 1307.835938 C 137.25 1293.765625 151.222656 1281.027344 163.402344 1268.34375 C 176.433594 1254.535156 189.148438 1240.429688 201.535156 1226.035156 C 176.273438 1223.183594 150.96875 1220.75 125.628906 1218.722656 C 107.652344 1217.222656 88.035156 1217.089844 70.699219 1211.800781 C 56.75 1207.542969 43.164062 1199.710938 32.328125 1189.960938 C 14.207031 1173.660156 2.152344 1148.84375 0.992188 1124.460938 C -0.15625 1100.082031 1.394531 1075.09375 1.417969 1050.636719 L 2.832031 849.90625 L 3.988281 722.269531 L 4.164062 680.246094 C 4.21875 669.136719 3.835938 657.609375 5.601562 646.621094 C 5.941406 644.496094 6.355469 642.378906 6.847656 640.28125 C 7.339844 638.183594 7.910156 636.101562 8.554688 634.046875 C 9.199219 631.992188 9.917969 629.960938 10.707031 627.953125 C 11.5 625.949219 12.359375 623.972656 13.296875 622.035156 C 14.234375 620.089844 15.238281 618.183594 16.3125 616.3125 C 17.386719 614.445312 18.527344 612.613281 19.730469 610.828125 C 20.9375 609.042969 22.207031 607.300781 23.546875 605.605469 C 24.875 603.914062 26.265625 602.269531 27.722656 600.679688 C 37.457031 590.078125 50.863281 582.847656 62.808594 574.9375 L 105.398438 546.714844 C 144.84375 520.421875 183.742188 493.199219 223.347656 467.15625 L 298.023438 417 C 309.996094 408.886719 321.78125 399.757812 334.242188 392.460938 C 335.609375 391.65625 336.707031 391.058594 338.332031 391.046875 C 338.660156 391.046875 338.984375 391.074219 339.316406 391.074219 C 354.511719 391.050781 370.003906 393.144531 385.15625 394.363281 L 467.261719 400.835938 C 468.785156 392.359375 469.144531 383.507812 469.839844 374.929688 L 473.15625 332.933594 C 476.550781 286.832031 480.253906 240.753906 484.261719 194.699219 C 486.054688 171.902344 486.105469 148.113281 489.496094 125.535156 C 490.070312 121.691406 491.183594 120.5625 494.207031 118.355469 Z M 311.046875 1105.421875 C 313.75 1102.585938 316.464844 1099.777344 319.015625 1096.800781 L 328.855469 1086.230469 C 322.863281 1085.597656 316.890625 1085.027344 310.867188 1084.671875 C 310.851562 1091.582031 310.730469 1098.515625 311.046875 1105.421875 Z M 243.382812 1182.128906 C 247.039062 1178.304688 250.878906 1174.546875 254.300781 1170.507812 C 258.082031 1166.417969 261.953125 1162.378906 265.632812 1158.191406 C 258.207031 1157.324219 250.796875 1156.414062 243.335938 1155.90625 Z M 1156.089844 516.394531 C 1169.46875 517.964844 1183.242188 518.945312 1196.699219 519.535156 C 1204.664062 514.273438 1212.203125 508.351562 1219.703125 502.449219 L 1237.96875 487.609375 C 1212.0625 485.035156 1185.363281 482.464844 1159.371094 481.679688 Z M 377.195312 454.417969 L 418.652344 458.164062 C 433.316406 459.285156 448.082031 460.832031 462.769531 461.464844 C 463.773438 448.082031 465.484375 434.527344 465.921875 421.128906 C 453.945312 420.496094 441.863281 418.789062 429.914062 418.59375 C 412.421875 430.5625 394.074219 441.640625 377.195312 454.417969 Z M 974.035156 1198.398438 C 990.199219 1199.84375 1006.359375 1201.394531 1022.5 1203.039062 C 1022.738281 1184.785156 1023.128906 1166.515625 1023.132812 1148.265625 C 1006.902344 1147.0625 990.605469 1145.007812 974.378906 1144.101562 Z M 243.855469 1135.429688 C 256.777344 1136.730469 270.105469 1138.234375 283.078125 1138.5625 L 287.738281 1132.980469 L 292.53125 1128.011719 C 292.367188 1112.917969 292.292969 1097.828125 292.332031 1082.734375 L 243.777344 1078.074219 C 243.695312 1097.191406 243.722656 1116.3125 243.855469 1135.429688 Z M 243.28125 1058.132812 C 259.261719 1059.761719 275.59375 1062.167969 291.621094 1062.933594 C 291.734375 1042.480469 292.039062 1022.011719 291.941406 1001.5625 C 275.914062 1000.121094 259.867188 998.441406 243.804688 997.472656 C 243.4375 1017.6875 243.257812 1037.90625 243.28125 1058.132812 Z M 925.238281 1261.480469 C 946.976562 1263.132812 968.699219 1264.996094 990.398438 1267.082031 C 1001.113281 1268.144531 1011.910156 1269.539062 1022.652344 1270.09375 C 1022.777344 1254.570312 1023.574219 1238.820312 1023.152344 1223.328125 C 1003.476562 1220.722656 983.730469 1219.351562 963.984375 1217.496094 C 951.488281 1232.527344 938.570312 1247.1875 925.238281 1261.480469 Z M 1375.65625 525.378906 C 1361.644531 536.675781 1347.855469 548.175781 1333.722656 559.335938 C 1301.929688 584.464844 1270.453125 609.992188 1239.296875 635.914062 C 1226.175781 646.78125 1211.851562 656.414062 1199.679688 668.386719 C 1226.976562 683.886719 1248.753906 704.742188 1262.976562 732.914062 C 1265.941406 738.789062 1269.121094 745.179688 1270.890625 751.53125 C 1271.980469 755.449219 1273.390625 766.992188 1275.683594 769.375 L 1276.425781 769.195312 C 1288.164062 760.75 1298.886719 751.015625 1310.152344 741.953125 L 1389.597656 676.988281 C 1413.359375 657.53125 1437.597656 638.742188 1461.027344 618.867188 C 1467.070312 613.738281 1473.859375 608.878906 1479.570312 603.460938 C 1478.191406 573.421875 1465.851562 546.03125 1443.65625 525.667969 C 1434.40625 517.183594 1415.945312 504.019531 1403.265625 502.863281 C 1394.589844 510.949219 1384.882812 517.941406 1375.65625 525.378906 Z M 320.75 1123.589844 C 315.847656 1129.085938 310.273438 1134.703125 306.167969 1140.824219 L 769.824219 1182.4375 C 818.007812 1186.769531 866.304688 1190.613281 914.429688 1195.519531 C 927.710938 1196.738281 941.21875 1198.390625 954.546875 1198.679688 C 954.835938 1179.636719 954.921875 1160.59375 954.8125 1141.550781 C 930.328125 1138.234375 905.339844 1136.851562 880.722656 1134.65625 C 830.695312 1129.886719 780.628906 1125.46875 730.535156 1121.40625 L 436.488281 1095.621094 C 408.09375 1093.324219 379.71875 1090.234375 351.296875 1088.335938 C 341.882812 1100.683594 331.09375 1112.019531 320.75 1123.589844 Z M 310.570312 1064.867188 C 405.085938 1071.871094 499.535156 1081.039062 593.933594 1089.40625 L 838.679688 1110.476562 L 967.730469 1122.941406 C 978.179688 1123.957031 1014.886719 1128.847656 1022.6875 1127.3125 C 1023.34375 1106.964844 1023.523438 1086.617188 1023.222656 1066.269531 C 870.355469 1051.996094 717.410156 1038.511719 564.398438 1025.8125 L 394.519531 1011.371094 L 341.761719 1006.523438 C 331.496094 1005.550781 321.164062 1004.207031 310.867188 1003.875 C 310.816406 1024.191406 311.078125 1044.5625 310.570312 1064.867188 Z M 245.117188 877.902344 C 244.015625 894.816406 244.835938 912.035156 244.699219 928.992188 C 244.5625 945.121094 243.566406 961.214844 243.253906 977.328125 L 1010.375 1044.8125 L 1022.707031 1045.933594 L 1022.644531 976.136719 C 1022.636719 966.523438 1024.144531 954.375 1022.148438 945.066406 C 1021.429688 941.710938 1019.152344 938.207031 1016.6875 935.851562 C 1013.953125 933.246094 1009.816406 932.554688 1006.199219 931.964844 C 990.949219 929.472656 974.738281 929.128906 959.300781 927.621094 C 916.753906 923.460938 874.199219 920.121094 831.613281 916.429688 L 484.097656 886.53125 L 319.671875 872.191406 C 308.113281 871.257812 296.5625 870.199219 285.023438 869.015625 C 276.765625 868.203125 268.140625 866.824219 259.839844 867.359375 C 259.296875 867.398438 258.757812 867.445312 258.214844 867.503906 C 252.316406 869.882812 248.410156 872.199219 245.117188 877.902344 Z M 1438.730469 662.199219 C 1413.152344 682.894531 1387.667969 703.722656 1362.304688 724.675781 C 1333.109375 748.761719 1303.179688 771.449219 1275.472656 797.328125 C 1274.777344 912.636719 1274.664062 1027.9375 1275.132812 1143.242188 C 1275.148438 1155.375 1273.769531 1230.382812 1275.746094 1236.195312 C 1295.75 1220.324219 1315.941406 1204.421875 1335.605469 1188.136719 C 1356.367188 1170.9375 1376.679688 1153.261719 1397.578125 1136.222656 L 1436.183594 1104.753906 C 1445.785156 1096.992188 1456.210938 1089.816406 1464.378906 1080.46875 C 1471.125 1072.75 1476.472656 1061.453125 1477.722656 1051.21875 C 1479.464844 1036.890625 1478.792969 1022 1478.75 1007.582031 L 1478.585938 942.585938 L 1479.011719 720.875 C 1479.074219 710.800781 1480.5 632.566406 1478.515625 629.457031 C 1464.976562 640.007812 1452.015625 651.332031 1438.730469 662.199219 Z M 241.382812 1213.800781 L 186.882812 1272.773438 C 176.238281 1284.230469 165.234375 1295.4375 154.976562 1307.234375 C 181.578125 1308.632812 208.160156 1311.304688 234.722656 1313.382812 C 290.078125 1317.480469 345.390625 1322.074219 400.664062 1327.175781 L 616.492188 1345.285156 L 723.601562 1354.074219 C 749.40625 1356.25 775.414062 1359.070312 801.28125 1360.289062 L 808.4375 1360.855469 C 817.832031 1352.1875 826.191406 1342.261719 834.683594 1332.734375 L 871.144531 1291.941406 L 910.882812 1248.011719 C 919.554688 1238.398438 928.773438 1228.710938 936.382812 1218.226562 L 478.121094 1175.976562 L 340.835938 1164.042969 C 324.882812 1162.542969 307.171875 1162.117188 291.597656 1159.675781 C 274.101562 1175.453125 257.535156 1196.328125 241.382812 1213.800781 Z M 204.6875 503.480469 C 171.578125 526.207031 138.160156 548.488281 104.460938 570.320312 C 194.007812 578.679688 283.617188 586.316406 373.289062 593.21875 L 857.722656 633.730469 C 924.339844 639.484375 990.984375 644.890625 1057.65625 649.9375 C 1082.667969 651.816406 1107.667969 653.871094 1132.648438 656.109375 C 1147.121094 657.472656 1161.914062 658.511719 1176.183594 661.410156 C 1189.890625 650.421875 1203.230469 638.976562 1216.945312 627.996094 L 1335.546875 532.863281 C 1349.339844 521.746094 1364.5625 511.378906 1377.664062 499.554688 C 1340.285156 495.582031 1302.539062 493.765625 1265.054688 490.820312 C 1251.878906 501.515625 1238.648438 512.132812 1225.347656 522.667969 C 1218.199219 528.429688 1211.402344 535.023438 1203.636719 539.941406 C 1191.640625 539.789062 1179.546875 538.300781 1167.59375 537.332031 L 1105.429688 532.375 L 940.425781 519.71875 L 449.949219 480.675781 L 391.84375 475.515625 C 380.875 474.632812 368.625 474.785156 357.910156 472.488281 C 355.195312 471.90625 351.496094 470.898438 349.574219 468.738281 C 348.058594 467.035156 347.792969 464.574219 348.007812 462.375 C 348.425781 458.042969 351.003906 455.785156 354.285156 453.265625 C 371.1875 440.277344 391.792969 431.113281 407.605469 416.71875 C 392.640625 415.175781 377.664062 413.765625 362.671875 412.496094 C 355.640625 411.835938 348.304688 410.460938 341.253906 410.5 Z M 499.257812 248.214844 C 495.546875 299.078125 491.550781 349.921875 487.25 400.742188 C 485.582031 421.546875 484.535156 442.464844 482.585938 463.230469 C 512.160156 465.21875 541.671875 468.179688 571.234375 470.367188 L 929.382812 498.511719 C 976.652344 502.847656 1023.949219 506.71875 1071.289062 510.109375 C 1093.058594 511.8125 1115.328125 514.691406 1137.144531 515.0625 C 1138.261719 513.699219 1138.242188 512.710938 1138.371094 511.007812 C 1143.453125 446.566406 1146.808594 381.949219 1151.605469 317.480469 L 1158.015625 229.417969 C 1159.011719 215.320312 1160.789062 200.921875 1160.902344 186.820312 C 1127.828125 183.453125 1094.507812 181.871094 1061.355469 179.386719 C 977.976562 172.804688 894.546875 166.867188 811.070312 161.566406 L 615.058594 147.484375 L 545.539062 142.246094 C 533.007812 141.28125 520.367188 139.851562 507.8125 139.402344 C 505.757812 175.765625 501.910156 211.90625 499.257812 248.214844 Z M 36.582031 619.367188 C 29.929688 628.917969 25.019531 641.722656 23.996094 653.335938 C 22.761719 667.285156 23.179688 681.519531 23.105469 695.515625 L 22.839844 761.179688 L 22.160156 941.195312 L 20.628906 1075.664062 C 20.464844 1094.417969 17.738281 1115.242188 21.121094 1133.660156 C 24.601562 1152.636719 38.679688 1172.441406 54.53125 1183.183594 C 62.175781 1188.359375 70.738281 1191.851562 79.722656 1193.902344 C 94.386719 1197.246094 110.558594 1197.765625 125.539062 1199.214844 L 219.070312 1207.632812 L 225.085938 1201.554688 C 221.972656 1171.6875 224.003906 1141.023438 223.917969 1111.007812 C 223.761719 1053.117188 223.417969 995.34375 225.253906 937.472656 C 225.636719 925.410156 225.644531 913.402344 225.585938 901.339844 C 225.546875 893.691406 225.027344 885.667969 225.992188 878.085938 C 226.804688 871.699219 229.644531 865.5625 233.753906 860.628906 C 239.96875 853.164062 249.769531 848.449219 259.410156 847.804688 C 276.476562 846.671875 300.703125 850.90625 318.480469 852.398438 L 462.070312 864.613281 L 843.101562 897.6875 L 956.519531 907.667969 C 974.207031 909.257812 992.207031 910.242188 1009.785156 912.640625 C 1017.429688 913.683594 1024.414062 916.6875 1030.148438 921.914062 C 1038.777344 929.796875 1042.269531 939.238281 1042.578125 950.726562 C 1043.636719 990.136719 1042.007812 1029.699219 1042.875 1069.164062 C 1043.328125 1137.226562 1043.074219 1205.285156 1042.121094 1273.347656 C 1075.628906 1275.722656 1109.171875 1279.769531 1142.570312 1283.371094 C 1160.667969 1285.328125 1182.601562 1289.847656 1200.492188 1287.523438 C 1202 1287.335938 1203.503906 1287.097656 1204.992188 1286.800781 C 1206.488281 1286.503906 1207.964844 1286.160156 1209.433594 1285.753906 C 1210.898438 1285.351562 1212.347656 1284.898438 1213.78125 1284.390625 C 1215.21875 1283.882812 1216.632812 1283.324219 1218.027344 1282.714844 C 1219.414062 1282.109375 1220.785156 1281.445312 1222.128906 1280.742188 C 1223.476562 1280.03125 1224.796875 1279.277344 1226.089844 1278.472656 C 1227.378906 1277.667969 1228.636719 1276.816406 1229.867188 1275.925781 C 1231.097656 1275.027344 1232.292969 1274.089844 1233.453125 1273.109375 C 1247.585938 1261.011719 1254.738281 1244.203125 1255.925781 1225.832031 C 1256.632812 1214.941406 1256.207031 1203.832031 1256.179688 1192.914062 L 1256.105469 1137.863281 L 1256.03125 960.273438 L 1256.105469 833.632812 C 1256.074219 815.355469 1257.570312 787.019531 1254.699219 770.023438 C 1251.347656 750.210938 1240.296875 728.800781 1226.957031 713.859375 C 1212.457031 697.613281 1191.949219 684.824219 1170.503906 680.4375 C 1155.671875 677.402344 1139.425781 677.09375 1124.304688 675.785156 L 1034.984375 668.386719 L 752.847656 645.644531 L 324.671875 609.15625 C 267.589844 603.886719 210.472656 598.988281 153.324219 594.460938 C 136.035156 593.101562 118.6875 590.65625 101.386719 589.777344 C 97.542969 589.578125 93.519531 589.492188 89.695312 590.027344 C 69.226562 593.699219 48.882812 601.722656 36.582031 619.367188 Z M 117.417969 717.804688 C 129.328125 716.78125 142.238281 720.199219 152.015625 727.085938 C 164.121094 735.609375 172.851562 748.75 175.332031 763.386719 C 177.796875 777.925781 174.699219 793.746094 166.109375 805.832031 C 157.125 818.464844 144.449219 824.894531 129.425781 827.417969 C 128.585938 827.496094 127.742188 827.554688 126.890625 827.59375 C 126.046875 827.632812 125.199219 827.65625 124.355469 827.65625 C 123.503906 827.65625 122.65625 827.644531 121.816406 827.601562 C 120.964844 827.566406 120.121094 827.511719 119.273438 827.433594 C 118.433594 827.355469 117.597656 827.269531 116.753906 827.148438 C 115.914062 827.035156 115.078125 826.902344 114.25 826.753906 C 113.414062 826.601562 112.582031 826.429688 111.753906 826.238281 C 110.929688 826.050781 110.109375 825.84375 109.296875 825.609375 C 108.480469 825.390625 107.667969 825.144531 106.863281 824.878906 C 106.0625 824.613281 105.257812 824.332031 104.46875 824.03125 C 103.675781 823.730469 102.890625 823.414062 102.109375 823.078125 C 101.335938 822.742188 100.5625 822.390625 99.804688 822.015625 C 99.046875 821.648438 98.292969 821.261719 97.542969 820.855469 C 96.800781 820.449219 96.070312 820.027344 95.34375 819.589844 C 94.617188 819.148438 93.90625 818.695312 93.199219 818.226562 C 92.492188 817.757812 91.804688 817.265625 91.121094 816.765625 C 79.253906 807.957031 72.53125 794.597656 70.425781 780.113281 C 68.316406 765.558594 72.425781 749.699219 81.242188 737.9375 C 90.195312 725.980469 102.835938 719.84375 117.417969 717.804688 Z M 95.136719 751.375 C 89.445312 759.050781 87.457031 768.433594 88.996094 777.8125 C 90.617188 787.703125 95.734375 796.992188 104.058594 802.761719 C 111.039062 807.597656 118.507812 808.945312 126.828125 808.820312 C 137.074219 806.898438 145.289062 802.511719 151.269531 793.671875 C 151.613281 793.148438 151.949219 792.613281 152.277344 792.070312 C 152.59375 791.53125 152.902344 790.984375 153.199219 790.425781 C 153.488281 789.871094 153.773438 789.308594 154.039062 788.734375 C 154.304688 788.164062 154.558594 787.585938 154.792969 787 C 155.03125 786.417969 155.25 785.828125 155.460938 785.230469 C 155.664062 784.644531 155.855469 784.042969 156.035156 783.4375 C 156.214844 782.832031 156.371094 782.226562 156.519531 781.609375 C 156.664062 781 156.792969 780.382812 156.914062 779.765625 C 157.027344 779.140625 157.125 778.523438 157.207031 777.894531 C 157.292969 777.273438 157.363281 776.648438 157.417969 776.019531 C 157.464844 775.390625 157.5 774.765625 157.523438 774.136719 C 157.542969 773.507812 157.546875 772.875 157.539062 772.25 C 157.527344 771.617188 157.5 770.988281 157.457031 770.355469 C 157.417969 769.726562 157.355469 769.105469 157.28125 768.476562 C 157.207031 767.855469 157.117188 767.230469 157.007812 766.605469 C 156.902344 765.988281 156.785156 765.371094 156.644531 764.753906 C 156.523438 764.179688 156.386719 763.601562 156.238281 763.03125 C 156.085938 762.460938 155.925781 761.894531 155.746094 761.332031 C 155.574219 760.765625 155.378906 760.207031 155.171875 759.652344 C 154.96875 759.097656 154.75 758.550781 154.519531 758.007812 C 154.28125 757.464844 154.039062 756.929688 153.78125 756.402344 C 153.519531 755.867188 153.25 755.339844 152.964844 754.828125 C 152.683594 754.308594 152.382812 753.796875 152.074219 753.296875 C 151.761719 752.789062 151.441406 752.296875 151.109375 751.8125 C 150.773438 751.324219 150.425781 750.847656 150.0625 750.375 C 149.707031 749.910156 149.339844 749.445312 148.957031 748.992188 C 148.574219 748.542969 148.183594 748.105469 147.78125 747.671875 C 147.378906 747.238281 146.96875 746.820312 146.542969 746.402344 C 146.117188 745.992188 145.679688 745.597656 145.242188 745.203125 C 144.796875 744.816406 144.34375 744.4375 143.882812 744.066406 C 143.417969 743.699219 142.949219 743.347656 142.46875 743 C 141.988281 742.65625 141.5 742.324219 141.003906 742.003906 C 135.234375 738.324219 127.765625 736.171875 120.910156 736.894531 C 110.324219 738.441406 101.667969 742.550781 95.136719 751.375 Z M 474.527344 706.777344 C 493.863281 707.507812 513.265625 709.953125 532.550781 711.566406 L 652.703125 721.714844 L 732.582031 728.449219 C 745.277344 729.472656 759.398438 729.382812 771.875 731.683594 C 775.671875 732.390625 778.300781 733.585938 780.976562 736.363281 C 783.078125 743.152344 783.738281 792.578125 781.273438 798.53125 C 779.925781 801.792969 776.949219 802.804688 773.910156 803.871094 C 751.039062 802.660156 728.085938 800.140625 705.253906 798.242188 L 584.042969 787.957031 C 548.210938 784.683594 512.113281 782.847656 476.359375 779.144531 C 473.757812 778.878906 470.746094 778.464844 468.449219 777.113281 C 467.195312 776.382812 466.824219 775.007812 466.425781 773.699219 C 464.269531 766.675781 463.796875 716.339844 466.65625 711.507812 C 468.449219 708.484375 471.292969 707.558594 474.527344 706.777344 Z M 484.945312 759.417969 C 558.578125 766.015625 632.269531 772.003906 706.007812 777.386719 C 724.878906 778.867188 743.699219 781.40625 762.570312 782.691406 C 762.761719 772.269531 763.265625 761.75 763.003906 751.339844 C 749.394531 749.4375 735.5 748.785156 721.8125 747.664062 C 696.871094 745.554688 671.921875 743.570312 646.957031 741.726562 C 593.058594 737.5625 539.199219 732.980469 485.371094 727.980469 C 485.042969 738.460938 484.90625 748.9375 484.945312 759.417969 Z M 484.945312 759.417969 " fill-opacity="1" fill-rule="nonzero"/></g></svg>