<svg xmlns="http://www.w3.org/2000/svg" xmlns:xlink="http://www.w3.org/1999/xlink" width="2000" zoomAndPan="magnify" viewBox="0 0 1500 1499.999933" height="2000" preserveAspectRatio="xMidYMid meet" version="1.0"><path fill="#000000" d="M 749.789062 397.714844 C 555.289062 397.714844 397.839844 555.210938 397.839844 749.765625 C 397.839844 944.320312 555.289062 1101.816406 749.789062 1101.816406 C 944.289062 1101.816406 1101.738281 944.320312 1101.738281 749.765625 C 1101.738281 555.210938 944.289062 397.714844 749.789062 397.714844 Z M 952.707031 701.757812 L 754.421875 900.105469 C 740.949219 913.578125 722.425781 921.160156 703.058594 921.160156 C 683.695312 921.160156 665.589844 913.578125 651.699219 900.105469 L 546.871094 795.246094 C 532.976562 781.351562 525.820312 763.242188 525.820312 744.292969 C 525.820312 724.921875 533.398438 706.8125 546.871094 692.917969 C 561.183594 679.019531 579.707031 671.859375 598.230469 671.859375 C 616.753906 671.859375 635.28125 679.019531 649.171875 692.917969 L 703.058594 746.820312 L 849.984375 599.851562 C 878.191406 571.636719 924.082031 571.636719 952.289062 599.851562 C 980.914062 627.644531 980.914062 673.542969 952.707031 701.757812 Z M 952.707031 701.757812 " fill-opacity="1" fill-rule="nonzero"/><path fill="#000000" d="M 1353.914062 709.761719 C 1339.179688 712.289062 1324.023438 708.496094 1312.238281 699.652344 L 1293.292969 685.335938 L 1163.207031 587.214844 C 1139.628906 569.949219 1135 535.417969 1152.679688 512.257812 C 1161.519531 500.886719 1174.152344 493.308594 1188.042969 491.203125 C 1202.359375 489.097656 1216.671875 492.886719 1228.039062 501.730469 L 1240.667969 510.996094 C 1209.09375 446.566406 1165.730469 389.292969 1111.003906 340.863281 C 901.347656 155.152344 578.023438 160.628906 374.261719 353.5 C 346.058594 380.027344 321.21875 409.507812 298.90625 441.511719 C 260.59375 496.675781 232.808594 558.582031 217.652344 624.273438 C 207.550781 647.015625 182.289062 660.910156 157.03125 656.277344 C 141.453125 653.332031 127.980469 644.488281 119.5625 631.433594 C 111.140625 618.378906 108.617188 601.957031 111.984375 587.214844 C 132.191406 508.046875 166.714844 433.929688 213.445312 367.816406 C 245.4375 325.703125 281.222656 286.121094 320.375 250.746094 C 566.65625 39.347656 940.921875 39.769531 1185.519531 256.640625 C 1268.875 330.757812 1330.339844 420.035156 1367.808594 522.785156 L 1369.070312 520.257812 L 1400.644531 470.988281 C 1408.644531 459.199219 1420.851562 450.777344 1434.746094 447.40625 C 1448.640625 444.457031 1462.953125 446.984375 1475.160156 454.988281 C 1500 470.988281 1507.15625 504.679688 1491.160156 529.523438 L 1404.011719 664.28125 L 1389.699219 686.179688 C 1381.699219 698.390625 1368.648438 706.8125 1353.914062 709.761719 Z M 1353.914062 709.761719 " fill-opacity="1" fill-rule="nonzero"/><path fill="#000000" d="M 1203.199219 1228.152344 C 1195.621094 1235.308594 1187.621094 1242.46875 1179.625 1249.207031 C 933.34375 1460.605469 559.078125 1460.183594 314.480469 1243.3125 C 231.125 1169.195312 169.660156 1079.917969 132.191406 977.589844 L 130.507812 979.695312 L 98.511719 1029.386719 C 90.933594 1041.597656 78.726562 1049.597656 64.832031 1052.546875 C 50.941406 1055.496094 36.207031 1052.96875 24.417969 1044.96875 C -0.421875 1028.964844 -7.578125 995.695312 8.417969 970.429688 L 95.566406 835.253906 L 109.878906 813.355469 C 117.878906 800.722656 130.929688 792.296875 145.664062 789.351562 C 159.976562 786.824219 175.554688 790.613281 187.34375 799.457031 L 206.285156 813.777344 L 336.792969 911.894531 C 360.371094 929.582031 365 963.691406 347.320312 987.273438 C 338.898438 998.644531 326.269531 1006.222656 311.957031 1007.910156 C 297.640625 1010.015625 283.75 1006.222656 271.960938 997.800781 L 259.332031 988.539062 C 290.90625 1052.96875 334.269531 1110.238281 389 1158.667969 C 591.496094 1338.0625 900.503906 1338.902344 1105.109375 1164.984375 C 1129.527344 1143.929688 1152.257812 1120.765625 1172.886719 1095.921875 C 1226.355469 1031.492188 1263.402344 956.53125 1282.347656 876.101562 C 1292.449219 852.9375 1317.710938 839.042969 1343.390625 843.253906 C 1358.96875 846.199219 1372.4375 855.042969 1381.28125 868.519531 C 1389.699219 881.574219 1392.226562 897.996094 1388.4375 912.738281 C 1364.441406 1006.644531 1320.65625 1093.394531 1259.613281 1168.351562 C 1241.511719 1189.832031 1222.984375 1209.621094 1203.199219 1228.152344 Z M 1203.199219 1228.152344 " fill-opacity="1" fill-rule="nonzero"/></svg>