<svg xmlns="http://www.w3.org/2000/svg" xmlns:xlink="http://www.w3.org/1999/xlink" width="2000" zoomAndPan="magnify" viewBox="0 0 1500 1499.999933" height="2000" preserveAspectRatio="xMidYMid meet" version="1.0"><path fill="#000000" d="M 369.070312 1039.101562 L 369.070312 990.773438 C 369.070312 978.472656 379.613281 967.925781 391.914062 967.925781 C 405.097656 967.925781 415.640625 978.472656 415.640625 990.773438 L 415.640625 1039.101562 L 445.519531 1039.101562 L 445.519531 939.804688 L 123.902344 939.804688 L 123.902344 1039.101562 L 153.777344 1039.101562 L 153.777344 990.773438 C 153.777344 978.472656 164.324219 967.925781 177.503906 967.925781 C 190.683594 967.925781 201.230469 978.472656 201.230469 990.773438 L 201.230469 1039.101562 L 260.984375 1039.101562 L 260.984375 990.773438 C 260.984375 978.472656 271.527344 967.925781 284.710938 967.925781 C 297.890625 967.925781 308.4375 978.472656 308.4375 990.773438 L 308.4375 1039.101562 Z M 1476.273438 939.804688 L 1422.671875 939.804688 L 1422.671875 1062.828125 C 1422.671875 1075.132812 1412.125 1085.675781 1398.945312 1085.675781 L 565.90625 1085.675781 C 553.601562 1085.675781 543.058594 1075.132812 543.058594 1062.828125 L 543.058594 939.804688 L 492.96875 939.804688 L 492.96875 1062.828125 C 492.96875 1075.132812 482.425781 1085.675781 469.246094 1085.675781 L 100.175781 1085.675781 C 87.875 1085.675781 77.328125 1075.132812 77.328125 1062.828125 L 77.328125 939.804688 L 23.726562 939.804688 C 10.542969 939.804688 0 929.261719 0 916.082031 L 0 438.050781 C 0 424.867188 10.542969 414.324219 23.726562 414.324219 L 1476.273438 414.324219 C 1489.453125 414.324219 1500 424.867188 1500 438.050781 L 1500 916.082031 C 1500 929.261719 1489.453125 939.804688 1476.273438 939.804688 Z M 46.574219 892.355469 L 1452.546875 892.355469 L 1452.546875 461.773438 L 46.574219 461.773438 Z M 260.984375 854.570312 L 113.355469 854.570312 C 100.175781 854.570312 89.632812 844.023438 89.632812 830.84375 L 89.632812 523.285156 C 89.632812 510.105469 100.175781 499.558594 113.355469 499.558594 L 260.984375 499.558594 C 274.164062 499.558594 284.710938 510.105469 284.710938 523.285156 L 284.710938 830.84375 C 284.710938 844.023438 274.164062 854.570312 260.984375 854.570312 Z M 136.203125 807.117188 L 238.136719 807.117188 L 238.136719 547.011719 L 136.203125 547.011719 Z M 517.574219 854.570312 L 369.070312 854.570312 C 355.886719 854.570312 345.34375 844.023438 345.34375 830.84375 L 345.34375 523.285156 C 345.34375 510.105469 355.886719 499.558594 369.070312 499.558594 L 517.574219 499.558594 C 529.875 499.558594 540.421875 510.105469 540.421875 523.285156 L 540.421875 830.84375 C 540.421875 844.023438 529.875 854.570312 517.574219 854.570312 Z M 391.914062 807.117188 L 493.847656 807.117188 L 493.847656 547.011719 L 391.914062 547.011719 Z M 773.285156 854.570312 L 624.78125 854.570312 C 611.597656 854.570312 601.054688 844.023438 601.054688 830.84375 L 601.054688 523.285156 C 601.054688 510.105469 611.597656 499.558594 624.78125 499.558594 L 773.285156 499.558594 C 785.589844 499.558594 796.132812 510.105469 796.132812 523.285156 L 796.132812 830.84375 C 796.132812 844.023438 785.589844 854.570312 773.285156 854.570312 Z M 647.628906 807.117188 L 749.5625 807.117188 L 749.5625 547.011719 L 647.628906 547.011719 Z M 1029 854.570312 L 880.492188 854.570312 C 867.3125 854.570312 856.765625 844.023438 856.765625 830.84375 L 856.765625 523.285156 C 856.765625 510.105469 867.3125 499.558594 880.492188 499.558594 L 1029 499.558594 C 1041.300781 499.558594 1051.84375 510.105469 1051.84375 523.285156 L 1051.84375 830.84375 C 1051.84375 844.023438 1041.300781 854.570312 1029 854.570312 Z M 904.21875 807.117188 L 1005.273438 807.117188 L 1005.273438 547.011719 L 904.21875 547.011719 Z M 1386.644531 648.945312 L 1136.203125 648.945312 C 1123.023438 648.945312 1112.476562 638.402344 1112.476562 626.097656 L 1112.476562 523.285156 C 1112.476562 510.105469 1123.023438 499.558594 1136.203125 499.558594 L 1386.644531 499.558594 C 1399.824219 499.558594 1410.367188 510.105469 1410.367188 523.285156 L 1410.367188 626.097656 C 1410.367188 638.402344 1399.824219 648.945312 1386.644531 648.945312 Z M 1159.929688 602.371094 L 1362.917969 602.371094 L 1362.917969 547.011719 L 1159.929688 547.011719 Z M 1386.644531 854.570312 L 1136.203125 854.570312 C 1123.023438 854.570312 1112.476562 844.023438 1112.476562 830.84375 L 1112.476562 728.03125 C 1112.476562 715.730469 1123.023438 705.183594 1136.203125 705.183594 L 1386.644531 705.183594 C 1399.824219 705.183594 1410.367188 715.730469 1410.367188 728.03125 L 1410.367188 830.84375 C 1410.367188 844.023438 1399.824219 854.570312 1386.644531 854.570312 Z M 1159.929688 807.117188 L 1362.917969 807.117188 L 1362.917969 751.757812 L 1159.929688 751.757812 Z M 589.632812 1039.101562 L 652.019531 1039.101562 L 652.019531 990.773438 C 652.019531 978.472656 662.566406 967.925781 674.867188 967.925781 C 688.050781 967.925781 698.59375 978.472656 698.59375 990.773438 L 698.59375 1039.101562 L 775.042969 1039.101562 L 775.042969 990.773438 C 775.042969 978.472656 785.589844 967.925781 797.890625 967.925781 C 811.070312 967.925781 821.617188 978.472656 821.617188 990.773438 L 821.617188 1039.101562 L 898.066406 1039.101562 L 898.066406 990.773438 C 898.066406 978.472656 908.613281 967.925781 920.914062 967.925781 C 934.09375 967.925781 944.640625 978.472656 944.640625 990.773438 L 944.640625 1039.101562 L 1021.089844 1039.101562 L 1021.089844 990.773438 C 1021.089844 978.472656 1031.632812 967.925781 1043.9375 967.925781 C 1057.117188 967.925781 1067.664062 978.472656 1067.664062 990.773438 L 1067.664062 1039.101562 L 1144.113281 1039.101562 L 1144.113281 990.773438 C 1144.113281 978.472656 1154.65625 967.925781 1166.960938 967.925781 C 1180.140625 967.925781 1190.683594 978.472656 1190.683594 990.773438 L 1190.683594 1039.101562 L 1267.136719 1039.101562 L 1267.136719 990.773438 C 1267.136719 978.472656 1276.800781 967.925781 1289.980469 967.925781 C 1303.164062 967.925781 1313.707031 978.472656 1313.707031 990.773438 L 1313.707031 1039.101562 L 1376.097656 1039.101562 L 1376.097656 939.804688 L 589.632812 939.804688 Z M 589.632812 1039.101562 " fill-opacity="1" fill-rule="evenodd"/></svg>