<svg xmlns="http://www.w3.org/2000/svg" xmlns:xlink="http://www.w3.org/1999/xlink" width="2000" zoomAndPan="magnify" viewBox="0 0 1500 1499.999933" height="2000" preserveAspectRatio="xMidYMid meet" version="1.0"><path fill="#000000" d="M 1417.078125 195.269531 L 82.941406 195.269531 C 37.140625 195.269531 0 232.410156 0 278.207031 L 0 1052.804688 C 0 1098.605469 37.140625 1135.742188 82.941406 1135.742188 L 590.203125 1135.742188 C 604.433594 1135.742188 614.78125 1149.273438 611.046875 1163.011719 C 607.3125 1176.75 602.746094 1191.796875 598.84375 1200.113281 C 592.023438 1214.683594 505.199219 1259.746094 453.109375 1285.742188 C 442.609375 1290.992188 446.949219 1304.789062 459.09375 1304.789062 L 1040.941406 1304.789062 C 1053.089844 1304.789062 1057.429688 1290.972656 1046.929688 1285.742188 C 994.839844 1259.746094 908.015625 1214.703125 901.195312 1200.113281 C 897.308594 1191.796875 892.894531 1177.375 888.992188 1163.011719 C 885.085938 1148.648438 895.605469 1135.742188 909.835938 1135.742188 L 1417.097656 1135.742188 C 1462.898438 1135.742188 1500.039062 1098.605469 1500.039062 1052.804688 L 1500.039062 278.207031 C 1500.039062 232.410156 1462.898438 195.269531 1417.097656 195.269531 Z M 1443.171875 1052.804688 C 1443.171875 1067.207031 1431.5 1078.898438 1417.078125 1078.898438 L 82.941406 1078.898438 C 68.539062 1078.898438 56.847656 1067.222656 56.847656 1052.804688 L 56.847656 278.207031 C 56.847656 263.808594 68.519531 252.117188 82.941406 252.117188 L 1417.078125 252.117188 C 1431.480469 252.117188 1443.171875 263.789062 1443.171875 278.207031 Z M 1443.171875 1052.804688 " fill-opacity="1" fill-rule="nonzero"/></svg>