<svg xmlns="http://www.w3.org/2000/svg" xmlns:xlink="http://www.w3.org/1999/xlink" width="2000" zoomAndPan="magnify" viewBox="0 0 1500 1499.999933" height="2000" preserveAspectRatio="xMidYMid meet" version="1.0"><path fill="#000000" d="M 1403.285156 61.527344 L 219.769531 61.527344 C 166.441406 61.527344 123.054688 104.925781 123.054688 158.265625 L 123.054688 174.882812 L 18.292969 174.882812 C 8.191406 174.882812 0 183.074219 0 193.179688 C 0 203.285156 8.191406 211.476562 18.292969 211.476562 L 123.054688 211.476562 L 123.054688 256.042969 L 48.5625 266.640625 C 27.179688 269.683594 11.058594 288.265625 11.058594 309.871094 L 11.058594 408.742188 C 11.058594 430.339844 27.179688 448.921875 48.5625 451.96875 L 123.054688 462.566406 L 123.054688 507.132812 L 18.292969 507.132812 C 8.191406 507.132812 0 515.324219 0 525.429688 C 0 535.535156 8.191406 543.726562 18.292969 543.726562 L 123.054688 543.726562 L 123.054688 585.875 L 54.707031 585.875 C 30.640625 585.875 11.058594 605.460938 11.058594 629.539062 L 11.058594 753.570312 C 11.058594 777.648438 30.640625 797.230469 54.707031 797.230469 L 123.054688 797.230469 L 123.054688 839.382812 L 18.292969 839.382812 C 8.191406 839.382812 0 847.574219 0 857.679688 C 0 867.785156 8.191406 875.976562 18.292969 875.976562 L 261.738281 875.976562 C 293.785156 875.976562 319.855469 849.898438 319.855469 817.84375 L 319.855469 233.015625 C 319.855469 200.960938 293.785156 174.882812 261.738281 174.882812 L 159.640625 174.882812 L 159.640625 158.265625 C 159.640625 125.101562 186.613281 98.121094 219.769531 98.121094 L 1403.285156 98.121094 C 1436.441406 98.121094 1463.414062 125.101562 1463.414062 158.265625 L 1463.414062 1342.105469 C 1463.414062 1375.273438 1436.441406 1402.253906 1403.285156 1402.253906 L 219.769531 1402.253906 C 186.613281 1402.253906 159.640625 1375.273438 159.640625 1342.105469 L 159.640625 967.515625 C 159.640625 957.410156 151.449219 949.21875 141.347656 949.21875 C 131.242188 949.21875 123.054688 957.410156 123.054688 967.515625 L 123.054688 1342.105469 C 123.054688 1395.449219 166.441406 1438.847656 219.769531 1438.847656 L 1403.285156 1438.847656 C 1456.613281 1438.847656 1500 1395.449219 1500 1342.105469 L 1500 158.265625 C 1500 104.925781 1456.613281 61.527344 1403.285156 61.527344 Z M 53.714844 415.738281 C 50.253906 415.246094 47.644531 412.238281 47.644531 408.742188 L 47.644531 309.871094 C 47.644531 306.375 50.253906 303.363281 53.710938 302.875 L 123.054688 293.007812 L 123.054688 425.601562 Z M 54.707031 760.636719 C 50.8125 760.636719 47.644531 757.464844 47.644531 753.570312 L 47.644531 629.539062 C 47.644531 625.640625 50.8125 622.472656 54.707031 622.472656 L 123.054688 622.472656 L 123.054688 760.636719 Z M 283.273438 817.84375 C 283.273438 829.71875 273.613281 839.382812 261.738281 839.382812 L 159.640625 839.382812 L 159.640625 543.726562 L 283.273438 543.726562 Z M 261.738281 211.476562 C 273.613281 211.476562 283.273438 221.140625 283.273438 233.015625 L 283.273438 507.132812 L 159.640625 507.132812 L 159.640625 211.476562 Z M 261.738281 211.476562 " fill-opacity="1" fill-rule="nonzero"/><path fill="#000000" d="M 436.011719 568.445312 C 425.910156 568.445312 417.71875 576.636719 417.71875 586.742188 C 417.71875 596.847656 425.910156 605.039062 436.011719 605.039062 L 502.742188 605.039062 L 502.742188 618.25 C 502.742188 640.292969 520.667969 658.226562 542.703125 658.226562 L 555.910156 658.226562 L 555.910156 724.972656 C 555.910156 735.078125 564.101562 743.269531 574.203125 743.269531 C 584.304688 743.269531 592.496094 735.078125 592.496094 724.972656 L 592.496094 658.226562 L 667.117188 658.226562 L 667.117188 724.972656 C 667.117188 735.078125 675.308594 743.269531 685.410156 743.269531 C 695.511719 743.269531 703.703125 735.078125 703.703125 724.972656 L 703.703125 658.226562 L 778.324219 658.226562 L 778.324219 724.972656 C 778.324219 735.078125 786.515625 743.269531 796.617188 743.269531 C 806.71875 743.269531 814.910156 735.078125 814.910156 724.972656 L 814.910156 658.226562 L 828.117188 658.226562 C 850.152344 658.226562 868.078125 640.292969 868.078125 618.25 L 868.078125 605.039062 L 934.808594 605.039062 C 944.910156 605.039062 953.101562 596.847656 953.101562 586.742188 C 953.101562 576.636719 944.910156 568.445312 934.808594 568.445312 L 868.078125 568.445312 L 868.078125 493.804688 L 934.808594 493.804688 C 944.910156 493.804688 953.101562 485.609375 953.101562 475.503906 C 953.101562 465.402344 944.910156 457.207031 934.808594 457.207031 L 868.078125 457.207031 L 868.078125 382.566406 L 934.808594 382.566406 C 944.910156 382.566406 953.101562 374.375 953.101562 364.269531 C 953.101562 354.164062 944.910156 345.972656 934.808594 345.972656 L 868.078125 345.972656 L 868.078125 332.761719 C 868.078125 310.71875 850.152344 292.785156 828.117188 292.785156 L 814.910156 292.785156 L 814.910156 226.039062 C 814.910156 215.933594 806.71875 207.742188 796.617188 207.742188 C 786.515625 207.742188 778.324219 215.933594 778.324219 226.039062 L 778.324219 292.785156 L 703.703125 292.785156 L 703.703125 226.039062 C 703.703125 215.933594 695.511719 207.742188 685.410156 207.742188 C 675.308594 207.742188 667.117188 215.933594 667.117188 226.039062 L 667.117188 292.785156 L 592.496094 292.785156 L 592.496094 226.039062 C 592.496094 215.933594 584.304688 207.742188 574.203125 207.742188 C 564.101562 207.742188 555.910156 215.933594 555.910156 226.039062 L 555.910156 292.785156 L 542.703125 292.785156 C 520.667969 292.785156 502.742188 310.71875 502.742188 332.761719 L 502.742188 345.972656 L 436.011719 345.972656 C 425.910156 345.972656 417.71875 354.164062 417.71875 364.269531 C 417.71875 374.375 425.910156 382.566406 436.011719 382.566406 L 502.742188 382.566406 L 502.742188 457.207031 L 436.011719 457.207031 C 425.910156 457.207031 417.71875 465.402344 417.71875 475.503906 C 417.71875 485.609375 425.910156 493.804688 436.011719 493.804688 L 502.742188 493.804688 L 502.742188 568.445312 Z M 539.324219 332.761719 C 539.324219 330.898438 540.839844 329.382812 542.703125 329.382812 L 828.117188 329.382812 C 829.976562 329.382812 831.492188 330.898438 831.492188 332.761719 L 831.492188 618.25 C 831.492188 620.113281 829.976562 621.628906 828.117188 621.628906 L 542.703125 621.628906 C 540.839844 621.628906 539.324219 620.113281 539.324219 618.25 Z M 539.324219 332.761719 " fill-opacity="1" fill-rule="nonzero"/><path fill="#000000" d="M 1105.453125 174.671875 C 1095.351562 174.671875 1087.160156 182.863281 1087.160156 192.96875 L 1087.160156 239.609375 L 1079.207031 239.609375 C 1052.921875 239.609375 1031.539062 261 1031.539062 287.292969 L 1031.539062 825.082031 C 1031.539062 851.375 1052.921875 872.765625 1079.207031 872.765625 L 1087.160156 872.765625 L 1087.160156 918.625 C 1087.160156 928.730469 1095.351562 936.921875 1105.453125 936.921875 C 1115.554688 936.921875 1123.746094 928.730469 1123.746094 918.625 L 1123.746094 872.765625 L 1131.695312 872.765625 C 1157.984375 872.765625 1179.367188 851.375 1179.367188 825.082031 L 1179.367188 287.292969 C 1179.367188 261 1157.984375 239.609375 1131.695312 239.609375 L 1123.746094 239.609375 L 1123.746094 192.96875 C 1123.746094 182.863281 1115.554688 174.671875 1105.453125 174.671875 Z M 1142.78125 287.292969 L 1142.78125 825.082031 C 1142.78125 831.195312 1137.808594 836.167969 1131.695312 836.167969 L 1079.207031 836.167969 C 1073.097656 836.167969 1068.121094 831.195312 1068.121094 825.082031 L 1068.121094 287.292969 C 1068.121094 281.179688 1073.097656 276.203125 1079.207031 276.203125 L 1131.695312 276.203125 C 1137.808594 276.203125 1142.78125 281.179688 1142.78125 287.292969 Z M 1142.78125 287.292969 " fill-opacity="1" fill-rule="nonzero"/><path fill="#000000" d="M 1255.238281 344.414062 C 1245.136719 344.414062 1236.945312 352.605469 1236.945312 362.714844 L 1236.945312 825.082031 C 1236.945312 851.375 1258.332031 872.765625 1284.617188 872.765625 L 1292.566406 872.765625 L 1292.566406 918.625 C 1292.566406 928.730469 1300.757812 936.921875 1310.859375 936.921875 C 1320.964844 936.921875 1329.152344 928.730469 1329.152344 918.625 L 1329.152344 872.765625 L 1337.105469 872.765625 C 1363.390625 872.765625 1384.777344 851.375 1384.777344 825.082031 L 1384.777344 287.292969 C 1384.777344 261 1363.390625 239.609375 1337.105469 239.609375 L 1329.152344 239.609375 L 1329.152344 192.96875 C 1329.152344 182.863281 1320.964844 174.671875 1310.859375 174.671875 C 1300.757812 174.671875 1292.566406 182.863281 1292.566406 192.96875 L 1292.566406 239.609375 L 1284.617188 239.609375 C 1258.332031 239.609375 1236.945312 261 1236.945312 287.292969 C 1236.945312 297.398438 1245.136719 305.589844 1255.238281 305.589844 C 1265.339844 305.589844 1273.53125 297.398438 1273.53125 287.292969 C 1273.53125 281.179688 1278.503906 276.203125 1284.617188 276.203125 L 1337.105469 276.203125 C 1343.21875 276.203125 1348.191406 281.179688 1348.191406 287.292969 L 1348.191406 825.082031 C 1348.191406 831.195312 1343.21875 836.167969 1337.105469 836.167969 L 1284.617188 836.167969 C 1278.503906 836.167969 1273.53125 831.195312 1273.53125 825.082031 L 1273.53125 362.714844 C 1273.53125 352.605469 1265.339844 344.414062 1255.238281 344.414062 Z M 1255.238281 344.414062 " fill-opacity="1" fill-rule="nonzero"/><path fill="#000000" d="M 350.859375 949.21875 C 307.910156 949.21875 272.96875 984.167969 272.96875 1027.128906 C 272.96875 1070.085938 307.910156 1105.039062 350.859375 1105.039062 C 393.804688 1105.039062 428.75 1070.085938 428.75 1027.128906 C 428.75 984.167969 393.804688 949.21875 350.859375 949.21875 Z M 350.859375 1068.445312 C 328.082031 1068.445312 309.554688 1049.910156 309.554688 1027.128906 C 309.554688 1004.347656 328.082031 985.8125 350.859375 985.8125 C 373.632812 985.8125 392.164062 1004.347656 392.164062 1027.128906 C 392.164062 1049.910156 373.632812 1068.445312 350.859375 1068.445312 Z M 350.859375 1068.445312 " fill-opacity="1" fill-rule="nonzero"/><path fill="#000000" d="M 350.859375 1327.828125 C 393.804688 1327.828125 428.75 1292.878906 428.75 1249.917969 C 428.75 1206.957031 393.804688 1172.007812 350.859375 1172.007812 C 307.910156 1172.007812 272.96875 1206.957031 272.96875 1249.917969 C 272.96875 1292.878906 307.910156 1327.828125 350.859375 1327.828125 Z M 350.859375 1208.601562 C 373.632812 1208.601562 392.164062 1227.136719 392.164062 1249.917969 C 392.164062 1272.699219 373.632812 1291.234375 350.859375 1291.234375 C 328.082031 1291.234375 309.554688 1272.699219 309.554688 1249.917969 C 309.554688 1227.136719 328.082031 1208.601562 350.859375 1208.601562 Z M 350.859375 1208.601562 " fill-opacity="1" fill-rule="nonzero"/><path fill="#000000" d="M 1010.207031 1008.832031 L 521.035156 1008.832031 C 510.929688 1008.832031 502.742188 1017.023438 502.742188 1027.128906 C 502.742188 1037.234375 510.929688 1045.425781 521.035156 1045.425781 L 1010.207031 1045.425781 C 1020.308594 1045.425781 1028.5 1037.234375 1028.5 1027.128906 C 1028.5 1017.023438 1020.308594 1008.832031 1010.207031 1008.832031 Z M 1010.207031 1008.832031 " fill-opacity="1" fill-rule="nonzero"/><path fill="#000000" d="M 1010.207031 1231.621094 L 521.035156 1231.621094 C 510.929688 1231.621094 502.742188 1239.8125 502.742188 1249.917969 C 502.742188 1260.023438 510.929688 1268.214844 521.035156 1268.214844 L 1010.207031 1268.214844 C 1020.308594 1268.214844 1028.5 1260.023438 1028.5 1249.917969 C 1028.5 1239.8125 1020.308594 1231.621094 1010.207031 1231.621094 Z M 1010.207031 1231.621094 " fill-opacity="1" fill-rule="nonzero"/><path fill="#000000" d="M 1341.867188 1249.960938 L 1143.734375 1249.960938 C 1136.925781 1249.960938 1131.390625 1244.425781 1131.390625 1237.617188 L 1131.390625 1039.429688 C 1131.390625 1032.621094 1136.925781 1027.085938 1143.734375 1027.085938 C 1153.835938 1027.085938 1162.027344 1018.890625 1162.027344 1008.785156 C 1162.027344 998.683594 1153.835938 990.488281 1143.734375 990.488281 C 1116.753906 990.488281 1094.804688 1012.445312 1094.804688 1039.429688 L 1094.804688 1237.617188 C 1094.804688 1264.601562 1116.753906 1286.558594 1143.734375 1286.558594 L 1341.867188 1286.558594 C 1368.84375 1286.558594 1390.792969 1264.601562 1390.792969 1237.617188 L 1390.792969 1039.429688 C 1390.792969 1012.445312 1368.84375 990.488281 1341.867188 990.488281 L 1228.058594 990.488281 C 1217.957031 990.488281 1209.765625 998.683594 1209.765625 1008.785156 C 1209.765625 1018.890625 1217.957031 1027.085938 1228.058594 1027.085938 L 1341.867188 1027.085938 C 1348.671875 1027.085938 1354.207031 1032.621094 1354.207031 1039.429688 L 1354.207031 1237.617188 C 1354.207031 1244.425781 1348.671875 1249.960938 1341.867188 1249.960938 Z M 1341.867188 1249.960938 " fill-opacity="1" fill-rule="nonzero"/></svg>