<svg xmlns="http://www.w3.org/2000/svg" xmlns:xlink="http://www.w3.org/1999/xlink" width="2000" zoomAndPan="magnify" viewBox="0 0 1500 1499.999933" height="2000" preserveAspectRatio="xMidYMid meet" version="1.0"><defs><clipPath id="1fc4091b45"><path d="M 0 208.125 L 1500 208.125 L 1500 1291.875 L 0 1291.875 Z M 0 208.125 " clip-rule="nonzero"/></clipPath></defs><g clip-path="url(#1fc4091b45)"><path fill="#000000" d="M 635.511719 1182.324219 L 643.601562 1149.109375 L 856.398438 1149.109375 L 864.488281 1182.324219 Z M 896.335938 1121.023438 C 893.875 1110.839844 884.753906 1103.65625 874.28125 1103.65625 L 625.746094 1103.65625 C 615.257812 1103.65625 606.152344 1110.84375 603.65625 1121.023438 L 584.503906 1199.691406 C 581.015625 1213.90625 591.9375 1227.777344 606.59375 1227.777344 L 893.433594 1227.777344 C 908.128906 1227.777344 918.992188 1213.972656 915.488281 1199.691406 Z M 252.132812 1039.835938 L 293.378906 979.378906 L 1206.648438 979.378906 L 1247.855469 1039.835938 Z M 1237.410156 943.839844 C 1233.179688 937.65625 1226.148438 933.929688 1218.640625 933.929688 L 281.394531 933.929688 C 273.859375 933.929688 266.828125 937.65625 262.585938 943.839844 L 190.351562 1049.75 C 180.128906 1064.785156 190.945312 1085.289062 209.140625 1085.289062 L 1290.890625 1085.289062 C 1309.09375 1085.289062 1319.910156 1064.792969 1309.640625 1049.75 Z M 1153.59375 763.003906 C 1153.59375 770.035156 1147.636719 775.972656 1140.605469 775.972656 L 359.390625 775.972656 C 352.359375 775.972656 346.402344 770.039062 346.402344 763.003906 L 346.402344 349.085938 C 346.402344 342.054688 352.359375 336.117188 359.390625 336.117188 L 1140.601562 336.117188 C 1147.632812 336.117188 1153.589844 342.054688 1153.589844 349.085938 L 1153.589844 763.003906 Z M 1140.601562 290.667969 L 359.390625 290.667969 C 327.171875 290.667969 300.953125 316.867188 300.953125 349.085938 L 300.953125 763.007812 C 300.953125 795.226562 327.175781 821.445312 359.390625 821.445312 L 1140.601562 821.445312 C 1172.820312 821.445312 1199.042969 795.222656 1199.042969 763.007812 L 1199.042969 349.085938 C 1199.042969 316.867188 1172.820312 290.667969 1140.601562 290.667969 Z M 1451.074219 1230.8125 C 1456.167969 1221.171875 1455.53125 1210.027344 1449.347656 1200.957031 L 1246.613281 903.746094 L 253.402344 903.746094 L 50.648438 1200.957031 C 37.542969 1220.234375 51.179688 1246.164062 74.527344 1246.164062 L 1425.460938 1246.164062 C 1436.414062 1246.164062 1446.023438 1240.417969 1451.074219 1230.8125 Z M 264.144531 293.429688 L 264.144531 858.292969 L 1235.890625 858.292969 L 1235.890625 293.429688 C 1235.890625 271.609375 1218.121094 253.820312 1196.28125 253.820312 L 303.714844 253.820312 C 281.894531 253.820312 264.144531 271.609375 264.144531 293.429688 Z M 1486.902344 1175.347656 L 1281.34375 873.988281 L 1281.34375 293.429688 C 1281.34375 246.554688 1243.191406 208.363281 1196.277344 208.363281 L 303.714844 208.363281 C 256.839844 208.363281 218.6875 246.554688 218.6875 293.429688 L 218.6875 873.988281 L 13.09375 1175.347656 C -20.519531 1224.632812 14.898438 1291.632812 74.53125 1291.632812 L 1425.464844 1291.632812 C 1485.136719 1291.636719 1520.511719 1224.648438 1486.902344 1175.347656 Z M 1486.902344 1175.347656 " fill-opacity="1" fill-rule="evenodd"/></g></svg>