<svg xmlns="http://www.w3.org/2000/svg" xmlns:xlink="http://www.w3.org/1999/xlink" width="2000" zoomAndPan="magnify" viewBox="0 0 1500 1499.999933" height="2000" preserveAspectRatio="xMidYMid meet" version="1.0"><defs><clipPath id="95ee41f9d3"><path d="M 368 191.25 L 1500 191.25 L 1500 471 L 368 471 Z M 368 191.25 " clip-rule="nonzero"/></clipPath><clipPath id="b9cb52b1f0"><path d="M 368 1029 L 1500 1029 L 1500 1308.75 L 368 1308.75 Z M 368 1029 " clip-rule="nonzero"/></clipPath></defs><g clip-path="url(#95ee41f9d3)"><path fill="#000000" d="M 508.277344 191.28125 L 1360.320312 191.28125 C 1362.605469 191.28125 1364.890625 191.339844 1367.175781 191.453125 C 1369.457031 191.5625 1371.738281 191.730469 1374.011719 191.957031 C 1376.285156 192.179688 1378.554688 192.460938 1380.816406 192.792969 C 1383.078125 193.128906 1385.328125 193.519531 1387.570312 193.96875 C 1389.8125 194.414062 1392.042969 194.914062 1394.261719 195.46875 C 1396.476562 196.023438 1398.679688 196.632812 1400.867188 197.296875 C 1403.054688 197.960938 1405.226562 198.679688 1407.378906 199.449219 C 1409.53125 200.21875 1411.660156 201.039062 1413.773438 201.914062 C 1415.886719 202.789062 1417.976562 203.714844 1420.042969 204.695312 C 1422.109375 205.671875 1424.148438 206.699219 1426.164062 207.777344 C 1428.179688 208.855469 1430.167969 209.980469 1432.128906 211.15625 C 1434.089844 212.332031 1436.019531 213.554688 1437.921875 214.824219 C 1439.824219 216.09375 1441.691406 217.410156 1443.527344 218.769531 C 1445.363281 220.132812 1447.164062 221.539062 1448.933594 222.988281 C 1450.699219 224.4375 1452.429688 225.929688 1454.125 227.464844 C 1455.816406 229 1457.472656 230.578125 1459.089844 232.195312 C 1460.707031 233.808594 1462.28125 235.464844 1463.816406 237.160156 C 1465.351562 238.851562 1466.84375 240.582031 1468.292969 242.351562 C 1469.746094 244.117188 1471.148438 245.917969 1472.511719 247.753906 C 1473.875 249.589844 1475.191406 251.460938 1476.460938 253.359375 C 1477.730469 255.261719 1478.953125 257.191406 1480.128906 259.152344 C 1481.300781 261.113281 1482.429688 263.101562 1483.507812 265.117188 C 1484.585938 267.132812 1485.613281 269.175781 1486.589844 271.242188 C 1487.566406 273.308594 1488.492188 275.398438 1489.367188 277.507812 C 1490.242188 279.621094 1491.066406 281.753906 1491.835938 283.90625 C 1492.605469 286.058594 1493.320312 288.226562 1493.984375 290.414062 C 1494.648438 292.601562 1495.257812 294.804688 1495.8125 297.023438 C 1496.371094 299.242188 1496.871094 301.46875 1497.316406 303.710938 C 1497.761719 305.953125 1498.152344 308.207031 1498.488281 310.46875 C 1498.824219 312.726562 1499.105469 314.996094 1499.328125 317.269531 C 1499.550781 319.546875 1499.71875 321.824219 1499.832031 324.109375 C 1499.945312 326.390625 1500 328.675781 1500 330.960938 C 1500 333.25 1499.945312 335.53125 1499.832031 337.816406 C 1499.71875 340.097656 1499.550781 342.378906 1499.328125 344.652344 C 1499.105469 346.929688 1498.824219 349.195312 1498.488281 351.457031 C 1498.152344 353.71875 1497.761719 355.96875 1497.316406 358.210938 C 1496.871094 360.453125 1496.371094 362.683594 1495.8125 364.902344 C 1495.257812 367.117188 1494.648438 369.320312 1493.984375 371.507812 C 1493.320312 373.695312 1492.605469 375.867188 1491.835938 378.019531 C 1491.066406 380.171875 1490.242188 382.304688 1489.367188 384.414062 C 1488.492188 386.527344 1487.566406 388.617188 1486.589844 390.683594 C 1485.613281 392.75 1484.585938 394.789062 1483.507812 396.804688 C 1482.429688 398.824219 1481.300781 400.8125 1480.128906 402.773438 C 1478.953125 404.730469 1477.730469 406.664062 1476.460938 408.5625 C 1475.191406 410.464844 1473.875 412.332031 1472.511719 414.167969 C 1471.148438 416.003906 1469.746094 417.808594 1468.292969 419.574219 C 1466.84375 421.339844 1465.351562 423.070312 1463.816406 424.765625 C 1462.28125 426.457031 1460.707031 428.113281 1459.089844 429.730469 C 1457.472656 431.347656 1455.816406 432.921875 1454.125 434.457031 C 1452.429688 435.992188 1450.699219 437.484375 1448.933594 438.9375 C 1447.164062 440.386719 1445.363281 441.792969 1443.527344 443.152344 C 1441.691406 444.515625 1439.824219 445.832031 1437.921875 447.101562 C 1436.019531 448.371094 1434.089844 449.59375 1432.128906 450.769531 C 1430.167969 451.945312 1428.179688 453.070312 1426.164062 454.148438 C 1424.148438 455.226562 1422.109375 456.253906 1420.042969 457.230469 C 1417.976562 458.207031 1415.886719 459.132812 1413.773438 460.007812 C 1411.660156 460.882812 1409.53125 461.707031 1407.378906 462.476562 C 1405.226562 463.246094 1403.054688 463.964844 1400.867188 464.625 C 1398.679688 465.289062 1396.476562 465.898438 1394.261719 466.457031 C 1392.042969 467.011719 1389.8125 467.511719 1387.570312 467.957031 C 1385.328125 468.402344 1383.078125 468.792969 1380.816406 469.128906 C 1378.554688 469.464844 1376.285156 469.746094 1374.011719 469.96875 C 1371.738281 470.191406 1369.457031 470.359375 1367.175781 470.472656 C 1364.890625 470.585938 1362.605469 470.640625 1360.320312 470.640625 L 508.277344 470.640625 C 505.992188 470.640625 503.707031 470.585938 501.421875 470.472656 C 499.140625 470.359375 496.863281 470.191406 494.585938 469.96875 C 492.3125 469.746094 490.042969 469.464844 487.78125 469.128906 C 485.519531 468.792969 483.269531 468.402344 481.027344 467.957031 C 478.785156 467.511719 476.554688 467.011719 474.339844 466.457031 C 472.121094 465.898438 469.917969 465.289062 467.730469 464.625 C 465.542969 463.964844 463.375 463.246094 461.222656 462.476562 C 459.070312 461.707031 456.9375 460.882812 454.824219 460.007812 C 452.710938 459.132812 450.625 458.207031 448.558594 457.230469 C 446.492188 456.253906 444.449219 455.226562 442.433594 454.148438 C 440.417969 453.070312 438.429688 451.945312 436.46875 450.769531 C 434.507812 449.59375 432.578125 448.371094 430.675781 447.101562 C 428.773438 445.832031 426.90625 444.515625 425.070312 443.152344 C 423.234375 441.792969 421.433594 440.386719 419.664062 438.9375 C 417.898438 437.484375 416.167969 435.992188 414.472656 434.457031 C 412.78125 432.921875 411.125 431.347656 409.507812 429.730469 C 407.894531 428.113281 406.316406 426.457031 404.78125 424.765625 C 403.246094 423.070312 401.753906 421.339844 400.304688 419.574219 C 398.855469 417.808594 397.449219 416.003906 396.085938 414.167969 C 394.722656 412.332031 393.40625 410.464844 392.136719 408.5625 C 390.867188 406.664062 389.644531 404.730469 388.46875 402.773438 C 387.296875 400.8125 386.167969 398.824219 385.089844 396.804688 C 384.011719 394.789062 382.984375 392.75 382.007812 390.683594 C 381.03125 388.617188 380.105469 386.527344 379.230469 384.414062 C 378.355469 382.304688 377.53125 380.171875 376.761719 378.019531 C 375.992188 375.867188 375.277344 373.695312 374.613281 371.507812 C 373.949219 369.320312 373.339844 367.117188 372.785156 364.902344 C 372.226562 362.683594 371.726562 360.453125 371.28125 358.210938 C 370.835938 355.96875 370.445312 353.71875 370.109375 351.457031 C 369.773438 349.195312 369.496094 346.929688 369.269531 344.652344 C 369.046875 342.378906 368.878906 340.097656 368.765625 337.816406 C 368.652344 335.53125 368.597656 333.25 368.597656 330.960938 C 368.597656 328.675781 368.652344 326.390625 368.765625 324.109375 C 368.878906 321.824219 369.046875 319.546875 369.269531 317.269531 C 369.496094 314.996094 369.773438 312.726562 370.109375 310.46875 C 370.445312 308.207031 370.835938 305.953125 371.28125 303.710938 C 371.726562 301.46875 372.230469 299.242188 372.785156 297.023438 C 373.339844 294.804688 373.949219 292.601562 374.613281 290.414062 C 375.277344 288.226562 375.992188 286.058594 376.761719 283.90625 C 377.53125 281.753906 378.355469 279.621094 379.230469 277.507812 C 380.105469 275.398438 381.03125 273.308594 382.007812 271.242188 C 382.984375 269.175781 384.011719 267.132812 385.089844 265.117188 C 386.167969 263.101562 387.296875 261.113281 388.46875 259.152344 C 389.644531 257.191406 390.867188 255.261719 392.136719 253.359375 C 393.40625 251.460938 394.722656 249.589844 396.085938 247.753906 C 397.449219 245.917969 398.855469 244.117188 400.304688 242.351562 C 401.753906 240.582031 403.246094 238.851562 404.78125 237.160156 C 406.316406 235.464844 407.894531 233.808594 409.507812 232.195312 C 411.125 230.578125 412.78125 229 414.472656 227.464844 C 416.167969 225.929688 417.898438 224.4375 419.664062 222.988281 C 421.433594 221.539062 423.234375 220.132812 425.070312 218.769531 C 426.90625 217.410156 428.773438 216.09375 430.675781 214.824219 C 432.578125 213.554688 434.507812 212.332031 436.46875 211.15625 C 438.429688 209.980469 440.417969 208.855469 442.433594 207.777344 C 444.449219 206.699219 446.488281 205.671875 448.554688 204.695312 C 450.625 203.714844 452.710938 202.789062 454.824219 201.914062 C 456.9375 201.039062 459.070312 200.21875 461.222656 199.449219 C 463.375 198.679688 465.542969 197.960938 467.730469 197.296875 C 469.917969 196.632812 472.121094 196.023438 474.339844 195.46875 C 476.554688 194.914062 478.785156 194.414062 481.027344 193.96875 C 483.269531 193.519531 485.519531 193.128906 487.78125 192.792969 C 490.042969 192.460938 492.3125 192.179688 494.585938 191.957031 C 496.863281 191.730469 499.140625 191.5625 501.421875 191.453125 C 503.707031 191.339844 505.992188 191.28125 508.277344 191.28125 Z M 508.277344 191.28125 " fill-opacity="1" fill-rule="nonzero"/></g><path fill="#000000" d="M 136.1875 194.773438 C 138.417969 194.773438 140.644531 194.828125 142.871094 194.9375 C 145.097656 195.046875 147.316406 195.210938 149.535156 195.429688 C 151.753906 195.648438 153.964844 195.921875 156.171875 196.25 C 158.375 196.574219 160.570312 196.957031 162.757812 197.390625 C 164.941406 197.828125 167.117188 198.316406 169.277344 198.855469 C 171.441406 199.398438 173.585938 199.992188 175.71875 200.640625 C 177.851562 201.285156 179.96875 201.984375 182.066406 202.734375 C 184.164062 203.488281 186.246094 204.289062 188.304688 205.140625 C 190.363281 205.996094 192.398438 206.898438 194.414062 207.851562 C 196.429688 208.804688 198.417969 209.804688 200.386719 210.855469 C 202.351562 211.90625 204.289062 213.003906 206.203125 214.148438 C 208.113281 215.296875 209.996094 216.488281 211.847656 217.726562 C 213.703125 218.964844 215.523438 220.246094 217.3125 221.574219 C 219.105469 222.902344 220.859375 224.273438 222.582031 225.6875 C 224.304688 227.101562 225.992188 228.558594 227.644531 230.054688 C 229.296875 231.550781 230.910156 233.085938 232.484375 234.664062 C 234.0625 236.238281 235.597656 237.851562 237.09375 239.503906 C 238.59375 241.15625 240.046875 242.84375 241.460938 244.566406 C 242.875 246.289062 244.246094 248.046875 245.574219 249.835938 C 246.902344 251.625 248.183594 253.449219 249.421875 255.300781 C 250.660156 257.152344 251.851562 259.035156 253 260.949219 C 254.144531 262.859375 255.242188 264.796875 256.292969 266.765625 C 257.34375 268.730469 258.347656 270.71875 259.300781 272.734375 C 260.253906 274.75 261.15625 276.785156 262.007812 278.84375 C 262.859375 280.90625 263.664062 282.984375 264.414062 285.082031 C 265.164062 287.179688 265.863281 289.296875 266.511719 291.429688 C 267.15625 293.5625 267.75 295.710938 268.292969 297.871094 C 268.835938 300.035156 269.324219 302.207031 269.757812 304.394531 C 270.191406 306.578125 270.574219 308.773438 270.902344 310.980469 C 271.226562 313.183594 271.5 315.394531 271.71875 317.613281 C 271.9375 319.832031 272.101562 322.054688 272.210938 324.28125 C 272.320312 326.507812 272.375 328.734375 272.375 330.960938 C 272.375 333.191406 272.320312 335.417969 272.210938 337.644531 C 272.101562 339.871094 271.9375 342.09375 271.71875 344.3125 C 271.5 346.527344 271.226562 348.742188 270.902344 350.945312 C 270.574219 353.148438 270.191406 355.34375 269.757812 357.53125 C 269.324219 359.71875 268.835938 361.890625 268.292969 364.054688 C 267.75 366.214844 267.15625 368.363281 266.511719 370.496094 C 265.863281 372.628906 265.164062 374.742188 264.414062 376.84375 C 263.664062 378.941406 262.859375 381.019531 262.007812 383.078125 C 261.15625 385.136719 260.253906 387.175781 259.300781 389.191406 C 258.347656 391.203125 257.34375 393.195312 256.292969 395.160156 C 255.242188 397.125 254.144531 399.066406 253 400.976562 C 251.851562 402.886719 250.660156 404.769531 249.421875 406.625 C 248.183594 408.476562 246.902344 410.296875 245.574219 412.089844 C 244.246094 413.878906 242.875 415.636719 241.460938 417.359375 C 240.046875 419.082031 238.59375 420.769531 237.09375 422.417969 C 235.597656 424.070312 234.0625 425.683594 232.484375 427.261719 C 230.910156 428.835938 229.296875 430.375 227.644531 431.871094 C 225.992188 433.367188 224.304688 434.824219 222.582031 436.238281 C 220.859375 437.648438 219.105469 439.019531 217.3125 440.347656 C 215.523438 441.675781 213.703125 442.960938 211.847656 444.199219 C 209.996094 445.4375 208.113281 446.628906 206.203125 447.773438 C 204.289062 448.917969 202.351562 450.019531 200.386719 451.070312 C 198.417969 452.117188 196.429688 453.121094 194.414062 454.074219 C 192.398438 455.027344 190.363281 455.929688 188.304688 456.78125 C 186.246094 457.636719 184.164062 458.4375 182.066406 459.1875 C 179.96875 459.9375 177.851562 460.636719 175.71875 461.285156 C 173.585938 461.933594 171.441406 462.527344 169.277344 463.066406 C 167.117188 463.609375 164.941406 464.097656 162.757812 464.53125 C 160.570312 464.96875 158.375 465.347656 156.171875 465.675781 C 153.964844 466.003906 151.753906 466.273438 149.535156 466.492188 C 147.316406 466.710938 145.097656 466.875 142.871094 466.984375 C 140.644531 467.09375 138.417969 467.148438 136.1875 467.148438 C 133.957031 467.148438 131.730469 467.09375 129.503906 466.984375 C 127.277344 466.875 125.058594 466.710938 122.839844 466.492188 C 120.621094 466.273438 118.410156 466.003906 116.203125 465.675781 C 114 465.347656 111.804688 464.96875 109.617188 464.53125 C 107.433594 464.097656 105.257812 463.609375 103.097656 463.066406 C 100.933594 462.527344 98.785156 461.933594 96.652344 461.285156 C 94.519531 460.636719 92.40625 459.9375 90.308594 459.1875 C 88.207031 458.4375 86.128906 457.636719 84.070312 456.78125 C 82.011719 455.929688 79.972656 455.027344 77.960938 454.074219 C 75.945312 453.121094 73.953125 452.117188 71.988281 451.070312 C 70.023438 450.019531 68.085938 448.917969 66.171875 447.773438 C 64.261719 446.628906 62.378906 445.4375 60.527344 444.199219 C 58.671875 442.960938 56.851562 441.675781 55.0625 440.347656 C 53.269531 439.019531 51.515625 437.648438 49.789062 436.238281 C 48.066406 434.824219 46.382812 433.367188 44.730469 431.871094 C 43.078125 430.375 41.464844 428.835938 39.886719 427.261719 C 38.3125 425.683594 36.777344 424.070312 35.277344 422.417969 C 33.78125 420.769531 32.328125 419.082031 30.914062 417.359375 C 29.5 415.636719 28.128906 413.878906 26.800781 412.089844 C 25.472656 410.296875 24.191406 408.476562 22.953125 406.625 C 21.714844 404.769531 20.519531 402.886719 19.375 400.976562 C 18.230469 399.066406 17.132812 397.125 16.082031 395.160156 C 15.03125 393.195312 14.027344 391.203125 13.074219 389.191406 C 12.121094 387.175781 11.21875 385.136719 10.367188 383.078125 C 9.511719 381.019531 8.710938 378.941406 7.960938 376.84375 C 7.210938 374.742188 6.511719 372.628906 5.863281 370.496094 C 5.21875 368.363281 4.621094 366.214844 4.082031 364.054688 C 3.539062 361.890625 3.050781 359.71875 2.617188 357.53125 C 2.183594 355.34375 1.800781 353.148438 1.472656 350.945312 C 1.148438 348.742188 0.875 346.527344 0.65625 344.3125 C 0.4375 342.09375 0.273438 339.871094 0.164062 337.644531 C 0.0546875 335.417969 0 333.191406 0 330.960938 C 0 328.734375 0.0546875 326.507812 0.164062 324.28125 C 0.273438 322.054688 0.4375 319.832031 0.65625 317.613281 C 0.875 315.394531 1.148438 313.183594 1.472656 310.980469 C 1.800781 308.773438 2.183594 306.578125 2.617188 304.394531 C 3.050781 302.207031 3.539062 300.035156 4.082031 297.871094 C 4.621094 295.710938 5.21875 293.5625 5.863281 291.429688 C 6.511719 289.296875 7.210938 287.179688 7.960938 285.082031 C 8.710938 282.984375 9.511719 280.90625 10.367188 278.84375 C 11.21875 276.785156 12.121094 274.75 13.074219 272.734375 C 14.027344 270.71875 15.03125 268.730469 16.082031 266.765625 C 17.132812 264.796875 18.230469 262.859375 19.375 260.949219 C 20.519531 259.035156 21.714844 257.152344 22.953125 255.300781 C 24.191406 253.449219 25.472656 251.625 26.800781 249.835938 C 28.128906 248.046875 29.5 246.289062 30.914062 244.566406 C 32.328125 242.84375 33.78125 241.15625 35.277344 239.503906 C 36.777344 237.851562 38.3125 236.238281 39.886719 234.664062 C 41.464844 233.085938 43.078125 231.550781 44.730469 230.054688 C 46.382812 228.558594 48.066406 227.101562 49.789062 225.6875 C 51.515625 224.273438 53.269531 222.902344 55.0625 221.574219 C 56.851562 220.246094 58.671875 218.964844 60.527344 217.726562 C 62.378906 216.488281 64.261719 215.296875 66.171875 214.148438 C 68.085938 213.003906 70.023438 211.90625 71.988281 210.855469 C 73.953125 209.804688 75.945312 208.804688 77.960938 207.851562 C 79.972656 206.898438 82.011719 205.996094 84.070312 205.140625 C 86.128906 204.289062 88.207031 203.488281 90.308594 202.734375 C 92.40625 201.984375 94.519531 201.285156 96.652344 200.640625 C 98.785156 199.992188 100.933594 199.398438 103.097656 198.855469 C 105.257812 198.316406 107.433594 197.828125 109.617188 197.390625 C 111.804688 196.957031 114 196.574219 116.203125 196.25 C 118.410156 195.921875 120.621094 195.648438 122.839844 195.429688 C 125.054688 195.210938 127.277344 195.046875 129.503906 194.9375 C 131.730469 194.828125 133.957031 194.773438 136.1875 194.773438 Z M 136.1875 194.773438 " fill-opacity="1" fill-rule="nonzero"/><path fill="#000000" d="M 508.277344 610.320312 L 1360.320312 610.320312 C 1362.605469 610.320312 1364.890625 610.375 1367.175781 610.488281 C 1369.457031 610.601562 1371.738281 610.769531 1374.011719 610.992188 C 1376.285156 611.21875 1378.554688 611.496094 1380.816406 611.832031 C 1383.078125 612.167969 1385.328125 612.558594 1387.570312 613.003906 C 1389.8125 613.449219 1392.042969 613.949219 1394.261719 614.507812 C 1396.476562 615.0625 1398.679688 615.671875 1400.867188 616.335938 C 1403.054688 617 1405.226562 617.714844 1407.378906 618.484375 C 1409.53125 619.253906 1411.660156 620.078125 1413.773438 620.953125 C 1415.886719 621.828125 1417.976562 622.753906 1420.042969 623.730469 C 1422.109375 624.707031 1424.148438 625.734375 1426.164062 626.8125 C 1428.179688 627.890625 1430.167969 629.019531 1432.128906 630.191406 C 1434.089844 631.367188 1436.019531 632.589844 1437.921875 633.859375 C 1439.824219 635.132812 1441.691406 636.445312 1443.527344 637.808594 C 1445.363281 639.171875 1447.164062 640.578125 1448.933594 642.027344 C 1450.699219 643.476562 1452.429688 644.96875 1454.125 646.503906 C 1455.816406 648.039062 1457.472656 649.617188 1459.089844 651.230469 C 1460.707031 652.847656 1462.28125 654.503906 1463.816406 656.195312 C 1465.351562 657.890625 1466.84375 659.621094 1468.292969 661.386719 C 1469.746094 663.15625 1471.148438 664.957031 1472.511719 666.792969 C 1473.875 668.628906 1475.191406 670.496094 1476.460938 672.398438 C 1477.730469 674.300781 1478.953125 676.230469 1480.128906 678.191406 C 1481.300781 680.152344 1482.429688 682.140625 1483.507812 684.15625 C 1484.585938 686.171875 1485.613281 688.210938 1486.589844 690.28125 C 1487.566406 692.347656 1488.492188 694.433594 1489.367188 696.546875 C 1490.242188 698.660156 1491.066406 700.792969 1491.835938 702.945312 C 1492.605469 705.097656 1493.320312 707.265625 1493.984375 709.453125 C 1494.648438 711.640625 1495.257812 713.84375 1495.8125 716.0625 C 1496.371094 718.277344 1496.871094 720.507812 1497.316406 722.75 C 1497.761719 724.992188 1498.152344 727.242188 1498.488281 729.503906 C 1498.824219 731.765625 1499.105469 734.035156 1499.328125 736.308594 C 1499.550781 738.585938 1499.71875 740.863281 1499.832031 743.144531 C 1499.945312 745.429688 1500 747.714844 1500 750 C 1500 752.285156 1499.945312 754.570312 1499.832031 756.855469 C 1499.71875 759.136719 1499.550781 761.414062 1499.328125 763.691406 C 1499.105469 765.964844 1498.824219 768.234375 1498.488281 770.496094 C 1498.152344 772.757812 1497.761719 775.007812 1497.316406 777.25 C 1496.871094 779.492188 1496.371094 781.722656 1495.8125 783.9375 C 1495.257812 786.15625 1494.648438 788.359375 1493.984375 790.546875 C 1493.320312 792.734375 1492.605469 794.902344 1491.835938 797.054688 C 1491.066406 799.207031 1490.242188 801.339844 1489.367188 803.453125 C 1488.492188 805.566406 1487.566406 807.652344 1486.589844 809.71875 C 1485.613281 811.785156 1484.585938 813.828125 1483.507812 815.84375 C 1482.429688 817.859375 1481.300781 819.847656 1480.128906 821.808594 C 1478.953125 823.769531 1477.730469 825.699219 1476.460938 827.601562 C 1475.191406 829.503906 1473.875 831.371094 1472.511719 833.207031 C 1471.148438 835.042969 1469.746094 836.84375 1468.292969 838.613281 C 1466.84375 840.378906 1465.351562 842.109375 1463.816406 843.800781 C 1462.28125 845.496094 1460.707031 847.152344 1459.089844 848.769531 C 1457.472656 850.382812 1455.816406 851.960938 1454.125 853.496094 C 1452.429688 855.03125 1450.699219 856.523438 1448.933594 857.972656 C 1447.164062 859.421875 1445.363281 860.828125 1443.527344 862.191406 C 1441.691406 863.554688 1439.824219 864.867188 1437.921875 866.140625 C 1436.019531 867.410156 1434.089844 868.632812 1432.128906 869.804688 C 1430.167969 870.980469 1428.179688 872.109375 1426.164062 873.1875 C 1424.148438 874.261719 1422.109375 875.289062 1420.042969 876.269531 C 1417.976562 877.246094 1415.886719 878.171875 1413.773438 879.046875 C 1411.660156 879.921875 1409.53125 880.742188 1407.378906 881.515625 C 1405.226562 882.285156 1403.054688 883 1400.867188 883.664062 C 1398.679688 884.328125 1396.476562 884.9375 1394.261719 885.492188 C 1392.042969 886.046875 1389.8125 886.550781 1387.570312 886.996094 C 1385.328125 887.441406 1383.078125 887.832031 1380.816406 888.167969 C 1378.554688 888.503906 1376.285156 888.78125 1374.011719 889.007812 C 1371.738281 889.230469 1369.457031 889.398438 1367.175781 889.511719 C 1364.890625 889.625 1362.605469 889.679688 1360.320312 889.679688 L 508.277344 889.679688 C 505.992188 889.679688 503.707031 889.625 501.421875 889.511719 C 499.140625 889.398438 496.863281 889.230469 494.585938 889.007812 C 492.3125 888.78125 490.042969 888.503906 487.78125 888.167969 C 485.519531 887.832031 483.269531 887.441406 481.027344 886.996094 C 478.785156 886.550781 476.554688 886.046875 474.339844 885.492188 C 472.121094 884.9375 469.917969 884.328125 467.730469 883.664062 C 465.542969 883 463.375 882.285156 461.222656 881.515625 C 459.070312 880.742188 456.9375 879.921875 454.824219 879.046875 C 452.710938 878.171875 450.625 877.246094 448.558594 876.269531 C 446.492188 875.289062 444.449219 874.261719 442.433594 873.1875 C 440.417969 872.109375 438.429688 870.980469 436.46875 869.804688 C 434.507812 868.632812 432.578125 867.410156 430.675781 866.140625 C 428.773438 864.867188 426.90625 863.554688 425.070312 862.191406 C 423.234375 860.828125 421.433594 859.421875 419.664062 857.972656 C 417.898438 856.523438 416.167969 855.03125 414.472656 853.496094 C 412.78125 851.960938 411.125 850.382812 409.507812 848.769531 C 407.894531 847.152344 406.316406 845.496094 404.78125 843.800781 C 403.246094 842.109375 401.753906 840.378906 400.304688 838.613281 C 398.855469 836.84375 397.449219 835.042969 396.085938 833.207031 C 394.722656 831.371094 393.40625 829.503906 392.136719 827.601562 C 390.867188 825.699219 389.644531 823.769531 388.46875 821.808594 C 387.296875 819.847656 386.167969 817.859375 385.089844 815.84375 C 384.011719 813.828125 382.984375 811.785156 382.007812 809.71875 C 381.03125 807.652344 380.105469 805.566406 379.230469 803.453125 C 378.355469 801.339844 377.53125 799.207031 376.761719 797.054688 C 375.992188 794.902344 375.277344 792.734375 374.613281 790.546875 C 373.949219 788.359375 373.339844 786.15625 372.785156 783.9375 C 372.226562 781.722656 371.726562 779.492188 371.28125 777.25 C 370.835938 775.007812 370.445312 772.757812 370.109375 770.496094 C 369.773438 768.234375 369.496094 765.964844 369.269531 763.691406 C 369.046875 761.414062 368.878906 759.136719 368.765625 756.855469 C 368.652344 754.570312 368.597656 752.285156 368.597656 750 C 368.597656 747.714844 368.652344 745.429688 368.765625 743.144531 C 368.878906 740.863281 369.046875 738.585938 369.269531 736.308594 C 369.496094 734.035156 369.773438 731.765625 370.109375 729.503906 C 370.445312 727.242188 370.835938 724.992188 371.28125 722.75 C 371.726562 720.507812 372.230469 718.277344 372.785156 716.0625 C 373.339844 713.84375 373.949219 711.640625 374.613281 709.453125 C 375.277344 707.265625 375.992188 705.097656 376.761719 702.945312 C 377.53125 700.792969 378.355469 698.660156 379.230469 696.546875 C 380.105469 694.433594 381.03125 692.347656 382.007812 690.28125 C 382.984375 688.214844 384.011719 686.171875 385.089844 684.15625 C 386.167969 682.140625 387.296875 680.152344 388.46875 678.191406 C 389.644531 676.230469 390.867188 674.300781 392.136719 672.398438 C 393.40625 670.496094 394.722656 668.628906 396.085938 666.792969 C 397.449219 664.957031 398.855469 663.15625 400.304688 661.386719 C 401.753906 659.621094 403.246094 657.890625 404.78125 656.195312 C 406.316406 654.503906 407.894531 652.847656 409.507812 651.230469 C 411.125 649.617188 412.78125 648.039062 414.472656 646.503906 C 416.167969 644.96875 417.898438 643.476562 419.664062 642.027344 C 421.433594 640.578125 423.234375 639.171875 425.070312 637.808594 C 426.90625 636.445312 428.773438 635.132812 430.675781 633.859375 C 432.578125 632.589844 434.507812 631.367188 436.46875 630.191406 C 438.429688 629.019531 440.417969 627.890625 442.433594 626.8125 C 444.449219 625.734375 446.488281 624.707031 448.554688 623.730469 C 450.625 622.753906 452.710938 621.828125 454.824219 620.953125 C 456.9375 620.078125 459.070312 619.253906 461.222656 618.484375 C 463.375 617.714844 465.542969 617 467.730469 616.335938 C 469.917969 615.671875 472.121094 615.0625 474.339844 614.507812 C 476.554688 613.949219 478.785156 613.449219 481.027344 613.003906 C 483.269531 612.558594 485.519531 612.167969 487.78125 611.832031 C 490.042969 611.496094 492.3125 611.21875 494.585938 610.992188 C 496.863281 610.769531 499.140625 610.601562 501.421875 610.488281 C 503.707031 610.375 505.992188 610.320312 508.277344 610.320312 Z M 508.277344 610.320312 " fill-opacity="1" fill-rule="nonzero"/><path fill="#000000" d="M 136.1875 613.8125 C 138.417969 613.8125 140.644531 613.867188 142.871094 613.976562 C 145.097656 614.085938 147.316406 614.25 149.535156 614.46875 C 151.753906 614.6875 153.964844 614.960938 156.171875 615.285156 C 158.375 615.613281 160.570312 615.996094 162.757812 616.429688 C 164.941406 616.863281 167.117188 617.351562 169.277344 617.894531 C 171.441406 618.4375 173.585938 619.03125 175.71875 619.675781 C 177.851562 620.324219 179.96875 621.023438 182.066406 621.773438 C 184.164062 622.523438 186.246094 623.328125 188.304688 624.179688 C 190.363281 625.03125 192.398438 625.933594 194.414062 626.886719 C 196.429688 627.839844 198.417969 628.84375 200.386719 629.894531 C 202.351562 630.945312 204.289062 632.042969 206.203125 633.1875 C 208.113281 634.332031 209.996094 635.527344 211.847656 636.765625 C 213.703125 638.003906 215.523438 639.285156 217.3125 640.613281 C 219.105469 641.941406 220.859375 643.3125 222.582031 644.726562 C 224.304688 646.140625 225.992188 647.59375 227.644531 649.089844 C 229.296875 650.589844 230.910156 652.125 232.484375 653.699219 C 234.0625 655.277344 235.597656 656.890625 237.09375 658.542969 C 238.59375 660.195312 240.046875 661.878906 241.460938 663.605469 C 242.875 665.328125 244.246094 667.082031 245.574219 668.875 C 246.902344 670.664062 248.183594 672.484375 249.421875 674.339844 C 250.660156 676.191406 251.851562 678.074219 253 679.984375 C 254.144531 681.898438 255.242188 683.835938 256.292969 685.800781 C 257.34375 687.765625 258.347656 689.757812 259.300781 691.773438 C 260.253906 693.789062 261.15625 695.824219 262.007812 697.882812 C 262.859375 699.941406 263.664062 702.019531 264.414062 704.121094 C 265.164062 706.21875 265.863281 708.332031 266.511719 710.464844 C 267.15625 712.601562 267.75 714.746094 268.292969 716.910156 C 268.835938 719.070312 269.324219 721.246094 269.757812 723.429688 C 270.191406 725.617188 270.574219 727.8125 270.902344 730.015625 C 271.226562 732.222656 271.5 734.433594 271.71875 736.652344 C 271.9375 738.871094 272.101562 741.089844 272.210938 743.316406 C 272.320312 745.542969 272.375 747.769531 272.375 750 C 272.375 752.230469 272.320312 754.457031 272.210938 756.683594 C 272.101562 758.910156 271.9375 761.128906 271.71875 763.347656 C 271.5 765.566406 271.226562 767.777344 270.902344 769.984375 C 270.574219 772.1875 270.191406 774.382812 269.757812 776.570312 C 269.324219 778.753906 268.835938 780.929688 268.292969 783.089844 C 267.75 785.253906 267.15625 787.398438 266.511719 789.53125 C 265.863281 791.664062 265.164062 793.78125 264.414062 795.878906 C 263.664062 797.980469 262.859375 800.058594 262.007812 802.117188 C 261.15625 804.175781 260.253906 806.210938 259.300781 808.226562 C 258.347656 810.242188 257.34375 812.230469 256.292969 814.199219 C 255.242188 816.164062 254.144531 818.101562 253 820.015625 C 251.851562 821.925781 250.660156 823.808594 249.421875 825.660156 C 248.183594 827.515625 246.902344 829.335938 245.574219 831.125 C 244.246094 832.917969 242.875 834.671875 241.460938 836.394531 C 240.046875 838.117188 238.59375 839.804688 237.09375 841.457031 C 235.597656 843.109375 234.0625 844.722656 232.484375 846.296875 C 230.910156 847.875 229.296875 849.410156 227.644531 850.90625 C 225.992188 852.40625 224.304688 853.859375 222.582031 855.273438 C 220.859375 856.6875 219.105469 858.058594 217.3125 859.386719 C 215.523438 860.714844 213.703125 861.996094 211.847656 863.234375 C 209.996094 864.472656 208.113281 865.664062 206.203125 866.8125 C 204.289062 867.957031 202.351562 869.054688 200.386719 870.105469 C 198.417969 871.15625 196.429688 872.160156 194.414062 873.113281 C 192.398438 874.066406 190.363281 874.96875 188.304688 875.820312 C 186.246094 876.671875 184.164062 877.476562 182.066406 878.226562 C 179.96875 878.976562 177.851562 879.675781 175.71875 880.324219 C 173.585938 880.96875 171.441406 881.5625 169.277344 882.105469 C 167.117188 882.648438 164.941406 883.136719 162.757812 883.570312 C 160.570312 884.003906 158.375 884.386719 156.171875 884.714844 C 153.964844 885.039062 151.753906 885.3125 149.535156 885.53125 C 147.316406 885.75 145.097656 885.914062 142.871094 886.023438 C 140.644531 886.132812 138.417969 886.1875 136.1875 886.1875 C 133.957031 886.1875 131.730469 886.132812 129.503906 886.023438 C 127.277344 885.914062 125.058594 885.75 122.839844 885.53125 C 120.621094 885.3125 118.410156 885.039062 116.203125 884.714844 C 114 884.386719 111.804688 884.003906 109.617188 883.570312 C 107.433594 883.136719 105.257812 882.648438 103.097656 882.105469 C 100.933594 881.5625 98.785156 880.96875 96.652344 880.324219 C 94.519531 879.675781 92.40625 878.976562 90.308594 878.226562 C 88.207031 877.476562 86.128906 876.671875 84.070312 875.820312 C 82.011719 874.96875 79.972656 874.0625 77.960938 873.113281 C 75.945312 872.160156 73.953125 871.15625 71.988281 870.105469 C 70.023438 869.054688 68.085938 867.957031 66.171875 866.8125 C 64.261719 865.664062 62.378906 864.472656 60.527344 863.234375 C 58.671875 861.996094 56.851562 860.714844 55.0625 859.386719 C 53.269531 858.058594 51.515625 856.6875 49.789062 855.273438 C 48.066406 853.859375 46.382812 852.40625 44.730469 850.90625 C 43.078125 849.410156 41.464844 847.875 39.886719 846.296875 C 38.3125 844.722656 36.777344 843.109375 35.277344 841.457031 C 33.78125 839.804688 32.328125 838.117188 30.914062 836.394531 C 29.5 834.671875 28.128906 832.917969 26.800781 831.125 C 25.472656 829.335938 24.191406 827.515625 22.953125 825.660156 C 21.714844 823.808594 20.519531 821.925781 19.375 820.015625 C 18.230469 818.101562 17.132812 816.164062 16.082031 814.199219 C 15.03125 812.230469 14.027344 810.242188 13.074219 808.226562 C 12.121094 806.210938 11.21875 804.175781 10.367188 802.117188 C 9.511719 800.058594 8.710938 797.980469 7.960938 795.878906 C 7.210938 793.78125 6.511719 791.664062 5.863281 789.53125 C 5.21875 787.398438 4.621094 785.253906 4.082031 783.089844 C 3.539062 780.929688 3.050781 778.753906 2.617188 776.570312 C 2.183594 774.382812 1.800781 772.1875 1.472656 769.984375 C 1.148438 767.777344 0.875 765.566406 0.65625 763.347656 C 0.4375 761.128906 0.273438 758.910156 0.164062 756.683594 C 0.0546875 754.457031 0 752.230469 0 750 C 0 747.769531 0.0546875 745.542969 0.164062 743.316406 C 0.273438 741.089844 0.4375 738.871094 0.65625 736.652344 C 0.875 734.433594 1.148438 732.222656 1.472656 730.015625 C 1.800781 727.8125 2.183594 725.617188 2.617188 723.429688 C 3.050781 721.246094 3.539062 719.070312 4.082031 716.910156 C 4.621094 714.746094 5.21875 712.601562 5.863281 710.464844 C 6.511719 708.332031 7.210938 706.21875 7.960938 704.121094 C 8.710938 702.019531 9.511719 699.941406 10.367188 697.882812 C 11.21875 695.824219 12.121094 693.785156 13.074219 691.773438 C 14.027344 689.757812 15.03125 687.765625 16.082031 685.800781 C 17.132812 683.835938 18.230469 681.898438 19.375 679.984375 C 20.519531 678.074219 21.714844 676.191406 22.953125 674.339844 C 24.191406 672.484375 25.472656 670.664062 26.800781 668.875 C 28.128906 667.082031 29.5 665.328125 30.914062 663.605469 C 32.328125 661.878906 33.78125 660.195312 35.277344 658.542969 C 36.777344 656.890625 38.3125 655.277344 39.886719 653.699219 C 41.464844 652.125 43.078125 650.589844 44.730469 649.089844 C 46.382812 647.59375 48.066406 646.140625 49.789062 644.726562 C 51.515625 643.3125 53.269531 641.941406 55.0625 640.613281 C 56.851562 639.285156 58.671875 638.003906 60.527344 636.765625 C 62.378906 635.527344 64.261719 634.335938 66.171875 633.1875 C 68.085938 632.042969 70.023438 630.945312 71.988281 629.894531 C 73.953125 628.84375 75.945312 627.839844 77.960938 626.886719 C 79.972656 625.933594 82.011719 625.03125 84.070312 624.179688 C 86.128906 623.328125 88.207031 622.523438 90.308594 621.773438 C 92.40625 621.023438 94.519531 620.324219 96.652344 619.675781 C 98.785156 619.03125 100.933594 618.4375 103.097656 617.894531 C 105.257812 617.351562 107.433594 616.863281 109.617188 616.429688 C 111.804688 615.996094 114 615.613281 116.203125 615.285156 C 118.410156 614.960938 120.621094 614.6875 122.839844 614.46875 C 125.054688 614.25 127.277344 614.085938 129.503906 613.976562 C 131.730469 613.867188 133.957031 613.8125 136.1875 613.8125 Z M 136.1875 613.8125 " fill-opacity="1" fill-rule="nonzero"/><g clip-path="url(#b9cb52b1f0)"><path fill="#000000" d="M 508.277344 1029.359375 L 1360.320312 1029.359375 C 1362.605469 1029.359375 1364.890625 1029.414062 1367.175781 1029.527344 C 1369.457031 1029.636719 1371.738281 1029.808594 1374.011719 1030.03125 C 1376.285156 1030.253906 1378.554688 1030.535156 1380.816406 1030.871094 C 1383.078125 1031.207031 1385.328125 1031.597656 1387.570312 1032.042969 C 1389.8125 1032.488281 1392.042969 1032.988281 1394.261719 1033.542969 C 1396.476562 1034.101562 1398.679688 1034.710938 1400.867188 1035.371094 C 1403.054688 1036.035156 1405.226562 1036.753906 1407.378906 1037.523438 C 1409.53125 1038.292969 1411.660156 1039.117188 1413.773438 1039.992188 C 1415.886719 1040.867188 1417.976562 1041.792969 1420.042969 1042.769531 C 1422.109375 1043.746094 1424.148438 1044.773438 1426.164062 1045.851562 C 1428.179688 1046.929688 1430.167969 1048.054688 1432.128906 1049.230469 C 1434.089844 1050.40625 1436.019531 1051.628906 1437.921875 1052.898438 C 1439.824219 1054.167969 1441.691406 1055.484375 1443.527344 1056.847656 C 1445.363281 1058.207031 1447.164062 1059.613281 1448.933594 1061.0625 C 1450.699219 1062.515625 1452.429688 1064.007812 1454.125 1065.542969 C 1455.816406 1067.078125 1457.472656 1068.652344 1459.089844 1070.269531 C 1460.707031 1071.886719 1462.28125 1073.542969 1463.816406 1075.234375 C 1465.351562 1076.929688 1466.84375 1078.660156 1468.292969 1080.425781 C 1469.746094 1082.191406 1471.148438 1083.996094 1472.511719 1085.832031 C 1473.875 1087.667969 1475.191406 1089.535156 1476.460938 1091.4375 C 1477.730469 1093.335938 1478.953125 1095.265625 1480.128906 1097.226562 C 1481.300781 1099.1875 1482.429688 1101.175781 1483.507812 1103.191406 C 1484.585938 1105.210938 1485.613281 1107.25 1486.589844 1109.316406 C 1487.566406 1111.382812 1488.492188 1113.472656 1489.367188 1115.585938 C 1490.242188 1117.695312 1491.066406 1119.828125 1491.835938 1121.980469 C 1492.605469 1124.132812 1493.320312 1126.304688 1493.984375 1128.492188 C 1494.648438 1130.679688 1495.257812 1132.878906 1495.8125 1135.097656 C 1496.371094 1137.316406 1496.871094 1139.546875 1497.316406 1141.789062 C 1497.761719 1144.03125 1498.152344 1146.28125 1498.488281 1148.542969 C 1498.824219 1150.804688 1499.105469 1153.070312 1499.328125 1155.347656 C 1499.550781 1157.621094 1499.71875 1159.902344 1499.832031 1162.183594 C 1499.945312 1164.46875 1500 1166.75 1500 1169.039062 C 1500 1171.324219 1499.945312 1173.609375 1499.832031 1175.890625 C 1499.71875 1178.175781 1499.550781 1180.453125 1499.328125 1182.730469 C 1499.105469 1185.003906 1498.824219 1187.273438 1498.488281 1189.53125 C 1498.152344 1191.792969 1497.761719 1194.046875 1497.316406 1196.289062 C 1496.871094 1198.53125 1496.371094 1200.757812 1495.8125 1202.976562 C 1495.257812 1205.195312 1494.648438 1207.398438 1493.984375 1209.585938 C 1493.320312 1211.773438 1492.605469 1213.941406 1491.835938 1216.09375 C 1491.066406 1218.246094 1490.242188 1220.378906 1489.367188 1222.492188 C 1488.492188 1224.601562 1487.566406 1226.691406 1486.589844 1228.757812 C 1485.613281 1230.824219 1484.585938 1232.867188 1483.507812 1234.882812 C 1482.429688 1236.898438 1481.300781 1238.886719 1480.128906 1240.847656 C 1478.953125 1242.808594 1477.730469 1244.738281 1476.460938 1246.640625 C 1475.191406 1248.539062 1473.875 1250.410156 1472.511719 1252.246094 C 1471.148438 1254.082031 1469.746094 1255.882812 1468.292969 1257.648438 C 1466.84375 1259.417969 1465.351562 1261.148438 1463.816406 1262.839844 C 1462.28125 1264.535156 1460.707031 1266.1875 1459.089844 1267.804688 C 1457.472656 1269.421875 1455.816406 1270.996094 1454.125 1272.53125 C 1452.429688 1274.066406 1450.699219 1275.5625 1448.933594 1277.011719 C 1447.164062 1278.460938 1445.363281 1279.867188 1443.527344 1281.230469 C 1441.691406 1282.589844 1439.824219 1283.90625 1437.921875 1285.175781 C 1436.019531 1286.445312 1434.089844 1287.667969 1432.128906 1288.84375 C 1430.167969 1290.019531 1428.179688 1291.144531 1426.164062 1292.222656 C 1424.148438 1293.300781 1422.109375 1294.328125 1420.042969 1295.304688 C 1417.976562 1296.285156 1415.886719 1297.210938 1413.773438 1298.085938 C 1411.660156 1298.957031 1409.53125 1299.78125 1407.378906 1300.550781 C 1405.226562 1301.320312 1403.054688 1302.039062 1400.867188 1302.703125 C 1398.679688 1303.367188 1396.476562 1303.976562 1394.261719 1304.53125 C 1392.042969 1305.085938 1389.8125 1305.585938 1387.570312 1306.03125 C 1385.328125 1306.480469 1383.078125 1306.871094 1380.816406 1307.207031 C 1378.554688 1307.539062 1376.285156 1307.820312 1374.011719 1308.042969 C 1371.738281 1308.269531 1369.457031 1308.4375 1367.175781 1308.546875 C 1364.890625 1308.660156 1362.605469 1308.714844 1360.320312 1308.71875 L 508.277344 1308.71875 C 505.992188 1308.714844 503.707031 1308.660156 501.421875 1308.546875 C 499.140625 1308.4375 496.863281 1308.269531 494.585938 1308.042969 C 492.3125 1307.820312 490.042969 1307.539062 487.78125 1307.203125 C 485.519531 1306.871094 483.269531 1306.480469 481.027344 1306.03125 C 478.785156 1305.585938 476.554688 1305.085938 474.339844 1304.53125 C 472.121094 1303.976562 469.917969 1303.367188 467.730469 1302.703125 C 465.542969 1302.039062 463.375 1301.320312 461.222656 1300.550781 C 459.070312 1299.78125 456.9375 1298.957031 454.824219 1298.085938 C 452.710938 1297.210938 450.625 1296.285156 448.558594 1295.304688 C 446.492188 1294.328125 444.449219 1293.300781 442.433594 1292.222656 C 440.417969 1291.144531 438.429688 1290.019531 436.46875 1288.84375 C 434.507812 1287.667969 432.578125 1286.445312 430.675781 1285.175781 C 428.773438 1283.90625 426.90625 1282.589844 425.070312 1281.230469 C 423.234375 1279.867188 421.433594 1278.460938 419.664062 1277.011719 C 417.898438 1275.5625 416.167969 1274.066406 414.472656 1272.53125 C 412.78125 1270.996094 411.125 1269.421875 409.507812 1267.804688 C 407.894531 1266.1875 406.316406 1264.535156 404.78125 1262.839844 C 403.246094 1261.148438 401.753906 1259.417969 400.304688 1257.648438 C 398.855469 1255.882812 397.449219 1254.082031 396.085938 1252.246094 C 394.722656 1250.40625 393.40625 1248.539062 392.136719 1246.640625 C 390.867188 1244.738281 389.644531 1242.808594 388.46875 1240.847656 C 387.296875 1238.886719 386.167969 1236.898438 385.089844 1234.882812 C 384.011719 1232.867188 382.984375 1230.824219 382.007812 1228.757812 C 381.03125 1226.691406 380.105469 1224.601562 379.230469 1222.492188 C 378.355469 1220.378906 377.53125 1218.246094 376.761719 1216.09375 C 375.992188 1213.941406 375.277344 1211.773438 374.613281 1209.585938 C 373.949219 1207.398438 373.339844 1205.195312 372.785156 1202.976562 C 372.226562 1200.757812 371.726562 1198.53125 371.28125 1196.289062 C 370.835938 1194.046875 370.445312 1191.792969 370.109375 1189.53125 C 369.773438 1187.273438 369.496094 1185.003906 369.269531 1182.730469 C 369.046875 1180.453125 368.878906 1178.175781 368.765625 1175.890625 C 368.652344 1173.609375 368.597656 1171.324219 368.597656 1169.039062 C 368.597656 1166.75 368.652344 1164.46875 368.765625 1162.183594 C 368.878906 1159.902344 369.046875 1157.621094 369.269531 1155.347656 C 369.496094 1153.070312 369.773438 1150.804688 370.109375 1148.542969 C 370.445312 1146.28125 370.835938 1144.03125 371.28125 1141.789062 C 371.726562 1139.546875 372.230469 1137.316406 372.785156 1135.097656 C 373.339844 1132.882812 373.949219 1130.679688 374.613281 1128.492188 C 375.277344 1126.304688 375.992188 1124.132812 376.761719 1121.980469 C 377.53125 1119.828125 378.355469 1117.695312 379.230469 1115.585938 C 380.105469 1113.472656 381.03125 1111.382812 382.007812 1109.316406 C 382.984375 1107.25 384.011719 1105.210938 385.089844 1103.191406 C 386.167969 1101.175781 387.296875 1099.1875 388.46875 1097.226562 C 389.644531 1095.265625 390.867188 1093.335938 392.136719 1091.4375 C 393.40625 1089.535156 394.722656 1087.667969 396.085938 1085.832031 C 397.449219 1083.996094 398.855469 1082.191406 400.304688 1080.425781 C 401.753906 1078.660156 403.246094 1076.929688 404.78125 1075.234375 C 406.316406 1073.542969 407.894531 1071.886719 409.507812 1070.269531 C 411.125 1068.652344 412.78125 1067.078125 414.472656 1065.542969 C 416.167969 1064.007812 417.898438 1062.515625 419.664062 1061.0625 C 421.433594 1059.613281 423.234375 1058.207031 425.070312 1056.847656 C 426.90625 1055.484375 428.773438 1054.167969 430.675781 1052.898438 C 432.578125 1051.628906 434.507812 1050.40625 436.46875 1049.230469 C 438.429688 1048.054688 440.417969 1046.929688 442.433594 1045.851562 C 444.449219 1044.773438 446.488281 1043.746094 448.554688 1042.769531 C 450.625 1041.792969 452.710938 1040.867188 454.824219 1039.992188 C 456.9375 1039.117188 459.070312 1038.292969 461.222656 1037.523438 C 463.375 1036.753906 465.542969 1036.035156 467.730469 1035.371094 C 469.917969 1034.710938 472.121094 1034.101562 474.339844 1033.542969 C 476.554688 1032.988281 478.785156 1032.488281 481.027344 1032.042969 C 483.269531 1031.597656 485.519531 1031.207031 487.78125 1030.871094 C 490.042969 1030.535156 492.3125 1030.253906 494.585938 1030.03125 C 496.863281 1029.808594 499.140625 1029.640625 501.421875 1029.527344 C 503.707031 1029.414062 505.992188 1029.359375 508.277344 1029.359375 Z M 508.277344 1029.359375 " fill-opacity="1" fill-rule="nonzero"/></g><path fill="#000000" d="M 136.1875 1032.851562 C 138.417969 1032.851562 140.644531 1032.90625 142.871094 1033.015625 C 145.097656 1033.125 147.316406 1033.289062 149.535156 1033.507812 C 151.753906 1033.726562 153.964844 1033.996094 156.171875 1034.324219 C 158.375 1034.652344 160.570312 1035.03125 162.757812 1035.46875 C 164.941406 1035.902344 167.117188 1036.390625 169.277344 1036.933594 C 171.441406 1037.472656 173.585938 1038.066406 175.71875 1038.714844 C 177.851562 1039.363281 179.96875 1040.058594 182.066406 1040.8125 C 184.164062 1041.5625 186.246094 1042.363281 188.304688 1043.21875 C 190.363281 1044.070312 192.398438 1044.972656 194.414062 1045.925781 C 196.429688 1046.878906 198.417969 1047.878906 200.386719 1048.929688 C 202.351562 1049.980469 204.289062 1051.082031 206.203125 1052.226562 C 208.113281 1053.371094 209.996094 1054.5625 211.847656 1055.800781 C 213.703125 1057.039062 215.523438 1058.324219 217.3125 1059.652344 C 219.105469 1060.980469 220.859375 1062.347656 222.582031 1063.761719 C 224.304688 1065.175781 225.992188 1066.632812 227.644531 1068.128906 C 229.296875 1069.625 230.910156 1071.164062 232.484375 1072.738281 C 234.0625 1074.316406 235.597656 1075.929688 237.09375 1077.578125 C 238.59375 1079.230469 240.046875 1080.917969 241.460938 1082.640625 C 242.875 1084.363281 244.246094 1086.121094 245.574219 1087.910156 C 246.902344 1089.699219 248.183594 1091.523438 249.421875 1093.375 C 250.660156 1095.230469 251.851562 1097.113281 253 1099.023438 C 254.144531 1100.933594 255.242188 1102.875 256.292969 1104.839844 C 257.34375 1106.804688 258.347656 1108.796875 259.300781 1110.808594 C 260.253906 1112.824219 261.15625 1114.863281 262.007812 1116.921875 C 262.859375 1118.980469 263.664062 1121.058594 264.414062 1123.15625 C 265.164062 1125.257812 265.863281 1127.371094 266.511719 1129.503906 C 267.15625 1131.636719 267.75 1133.785156 268.292969 1135.945312 C 268.835938 1138.109375 269.324219 1140.28125 269.757812 1142.46875 C 270.191406 1144.65625 270.574219 1146.851562 270.902344 1149.054688 C 271.226562 1151.257812 271.5 1153.472656 271.71875 1155.6875 C 271.9375 1157.90625 272.101562 1160.128906 272.210938 1162.355469 C 272.320312 1164.582031 272.375 1166.808594 272.375 1169.039062 C 272.375 1171.265625 272.320312 1173.492188 272.210938 1175.71875 C 272.101562 1177.945312 271.9375 1180.167969 271.71875 1182.386719 C 271.5 1184.605469 271.226562 1186.816406 270.902344 1189.019531 C 270.574219 1191.226562 270.191406 1193.421875 269.757812 1195.605469 C 269.324219 1197.792969 268.835938 1199.964844 268.292969 1202.128906 C 267.75 1204.289062 267.15625 1206.4375 266.511719 1208.570312 C 265.863281 1210.703125 265.164062 1212.820312 264.414062 1214.917969 C 263.664062 1217.015625 262.859375 1219.09375 262.007812 1221.152344 C 261.15625 1223.214844 260.253906 1225.25 259.300781 1227.265625 C 258.347656 1229.28125 257.34375 1231.269531 256.292969 1233.234375 C 255.242188 1235.203125 254.144531 1237.140625 253 1239.050781 C 251.851562 1240.964844 250.660156 1242.847656 249.421875 1244.699219 C 248.183594 1246.550781 246.902344 1248.375 245.574219 1250.164062 C 244.246094 1251.953125 242.875 1253.710938 241.460938 1255.433594 C 240.046875 1257.15625 238.59375 1258.84375 237.09375 1260.496094 C 235.597656 1262.148438 234.0625 1263.761719 232.484375 1265.335938 C 230.910156 1266.914062 229.296875 1268.449219 227.644531 1269.945312 C 225.992188 1271.441406 224.304688 1272.898438 222.582031 1274.3125 C 220.859375 1275.726562 219.105469 1277.097656 217.3125 1278.425781 C 215.523438 1279.75 213.703125 1281.035156 211.847656 1282.273438 C 209.996094 1283.511719 208.113281 1284.703125 206.203125 1285.847656 C 204.289062 1286.996094 202.351562 1288.09375 200.386719 1289.144531 C 198.417969 1290.195312 196.429688 1291.195312 194.414062 1292.148438 C 192.398438 1293.101562 190.363281 1294.003906 188.304688 1294.859375 C 186.246094 1295.710938 184.164062 1296.511719 182.066406 1297.265625 C 179.96875 1298.015625 177.851562 1298.714844 175.71875 1299.359375 C 173.585938 1300.007812 171.441406 1300.601562 169.277344 1301.144531 C 167.117188 1301.683594 164.941406 1302.171875 162.757812 1302.609375 C 160.570312 1303.042969 158.375 1303.421875 156.171875 1303.75 C 153.964844 1304.078125 151.753906 1304.351562 149.535156 1304.570312 C 147.316406 1304.789062 145.097656 1304.953125 142.871094 1305.0625 C 140.644531 1305.171875 138.417969 1305.226562 136.1875 1305.226562 C 133.957031 1305.226562 131.730469 1305.171875 129.503906 1305.0625 C 127.277344 1304.949219 125.058594 1304.789062 122.839844 1304.570312 C 120.621094 1304.351562 118.410156 1304.078125 116.203125 1303.75 C 114 1303.421875 111.804688 1303.042969 109.617188 1302.609375 C 107.433594 1302.171875 105.257812 1301.683594 103.097656 1301.144531 C 100.933594 1300.601562 98.785156 1300.007812 96.652344 1299.359375 C 94.519531 1298.714844 92.40625 1298.015625 90.308594 1297.261719 C 88.207031 1296.511719 86.128906 1295.710938 84.070312 1294.859375 C 82.011719 1294.003906 79.972656 1293.101562 77.960938 1292.148438 C 75.945312 1291.195312 73.953125 1290.195312 71.988281 1289.144531 C 70.023438 1288.09375 68.085938 1286.996094 66.171875 1285.847656 C 64.261719 1284.703125 62.378906 1283.511719 60.527344 1282.273438 C 58.671875 1281.035156 56.851562 1279.75 55.0625 1278.421875 C 53.269531 1277.097656 51.515625 1275.726562 49.789062 1274.3125 C 48.066406 1272.898438 46.382812 1271.441406 44.730469 1269.945312 C 43.078125 1268.449219 41.464844 1266.914062 39.886719 1265.335938 C 38.3125 1263.761719 36.777344 1262.148438 35.277344 1260.496094 C 33.78125 1258.84375 32.328125 1257.15625 30.914062 1255.433594 C 29.5 1253.710938 28.128906 1251.953125 26.800781 1250.164062 C 25.472656 1248.375 24.191406 1246.550781 22.953125 1244.699219 C 21.714844 1242.847656 20.519531 1240.964844 19.375 1239.050781 C 18.230469 1237.140625 17.132812 1235.203125 16.082031 1233.234375 C 15.03125 1231.269531 14.027344 1229.28125 13.074219 1227.265625 C 12.121094 1225.25 11.21875 1223.214844 10.367188 1221.152344 C 9.511719 1219.09375 8.710938 1217.015625 7.960938 1214.917969 C 7.210938 1212.820312 6.511719 1210.703125 5.863281 1208.570312 C 5.21875 1206.4375 4.621094 1204.289062 4.082031 1202.128906 C 3.539062 1199.964844 3.050781 1197.792969 2.617188 1195.605469 C 2.183594 1193.421875 1.800781 1191.226562 1.472656 1189.019531 C 1.148438 1186.816406 0.875 1184.605469 0.65625 1182.386719 C 0.4375 1180.167969 0.273438 1177.945312 0.164062 1175.71875 C 0.0546875 1173.492188 0 1171.265625 0 1169.039062 C 0 1166.808594 0.0546875 1164.582031 0.164062 1162.355469 C 0.273438 1160.128906 0.4375 1157.90625 0.65625 1155.6875 C 0.875 1153.472656 1.148438 1151.257812 1.472656 1149.054688 C 1.800781 1146.851562 2.183594 1144.65625 2.617188 1142.46875 C 3.050781 1140.28125 3.539062 1138.109375 4.082031 1135.945312 C 4.621094 1133.785156 5.21875 1131.636719 5.863281 1129.503906 C 6.511719 1127.371094 7.210938 1125.257812 7.960938 1123.15625 C 8.710938 1121.058594 9.511719 1118.980469 10.367188 1116.921875 C 11.21875 1114.863281 12.121094 1112.824219 13.074219 1110.808594 C 14.027344 1108.796875 15.03125 1106.804688 16.082031 1104.839844 C 17.132812 1102.875 18.230469 1100.933594 19.375 1099.023438 C 20.519531 1097.113281 21.714844 1095.230469 22.953125 1093.375 C 24.191406 1091.523438 25.472656 1089.703125 26.800781 1087.910156 C 28.128906 1086.121094 29.5 1084.363281 30.914062 1082.640625 C 32.328125 1080.917969 33.78125 1079.230469 35.277344 1077.578125 C 36.777344 1075.929688 38.3125 1074.316406 39.886719 1072.738281 C 41.464844 1071.164062 43.078125 1069.625 44.730469 1068.128906 C 46.382812 1066.632812 48.066406 1065.175781 49.789062 1063.761719 C 51.515625 1062.347656 53.269531 1060.980469 55.0625 1059.652344 C 56.851562 1058.324219 58.671875 1057.039062 60.527344 1055.800781 C 62.378906 1054.5625 64.261719 1053.371094 66.171875 1052.226562 C 68.085938 1051.078125 70.023438 1049.980469 71.988281 1048.929688 C 73.953125 1047.878906 75.945312 1046.878906 77.960938 1045.925781 C 79.972656 1044.972656 82.011719 1044.070312 84.070312 1043.21875 C 86.128906 1042.363281 88.207031 1041.5625 90.308594 1040.8125 C 92.40625 1040.0625 94.519531 1039.363281 96.652344 1038.714844 C 98.785156 1038.066406 100.933594 1037.472656 103.097656 1036.933594 C 105.257812 1036.390625 107.433594 1035.902344 109.617188 1035.46875 C 111.804688 1035.03125 114 1034.652344 116.203125 1034.324219 C 118.410156 1033.996094 120.621094 1033.726562 122.839844 1033.507812 C 125.054688 1033.289062 127.277344 1033.125 129.503906 1033.015625 C 131.730469 1032.90625 133.957031 1032.851562 136.1875 1032.851562 Z M 136.1875 1032.851562 " fill-opacity="1" fill-rule="nonzero"/></svg>