<svg xmlns="http://www.w3.org/2000/svg" xmlns:xlink="http://www.w3.org/1999/xlink" width="2000" zoomAndPan="magnify" viewBox="0 0 1500 1499.999933" height="2000" preserveAspectRatio="xMidYMid meet" version="1.0"><defs><clipPath id="98e2d88591"><path d="M 0 242.8125 L 1500 242.8125 L 1500 1174 L 0 1174 Z M 0 242.8125 " clip-rule="nonzero"/></clipPath><clipPath id="fcbc4c476a"><path d="M 3 1100 L 1031 1100 L 1031 1257.5625 L 3 1257.5625 Z M 3 1100 " clip-rule="nonzero"/></clipPath></defs><g clip-path="url(#98e2d88591)"><path fill="#000000" d="M 1033.09375 396.988281 L 1113.492188 335.035156 L 1135.113281 325.535156 L 1464.769531 325.398438 C 1483.753906 328.578125 1498.574219 344.1875 1499.824219 363.476562 L 1499.636719 1138.375 C 1496.4375 1154.039062 1487.175781 1166.324219 1471.480469 1170.902344 C 1360.996094 1176.808594 1249.222656 1172.097656 1138.289062 1173.328125 L 1116.253906 1165.8125 C 1075.0625 1132.871094 1028.832031 1104.527344 987.480469 1072.089844 C 981.21875 1067.179688 966.195312 1055.304688 966.195312 1046.703125 L 966.195312 957.222656 C 955.929688 960.433594 945.179688 962.828125 934.375 963.511719 C 859.546875 968.265625 773.386719 963.285156 697.921875 961.820312 C 681.066406 961.496094 664.144531 962.191406 647.296875 961.886719 L 647.296875 1011.679688 L 721.1875 1011.679688 C 721.722656 1011.679688 729.820312 1015.023438 731.152344 1015.71875 C 755.132812 1028.304688 749.910156 1062.355469 724.207031 1069.160156 C 592.613281 1070.480469 460.640625 1067.011719 329.261719 1070.882812 C 315.011719 1071.308594 303.15625 1069.929688 294.195312 1057.578125 C 285.238281 1045.222656 287.765625 1025.992188 300.894531 1017.609375 C 303.121094 1016.1875 313.300781 1011.679688 315.191406 1011.679688 L 387.523438 1011.679688 L 387.523438 964.214844 C 387.523438 959.59375 374.070312 963.410156 371.25 963.5 C 302.136719 965.703125 232.859375 961.449219 164.214844 961.820312 C 135.210938 961.976562 94.117188 966.710938 66.726562 958.328125 C 31.144531 947.441406 2.558594 912.945312 0.105469 875.574219 L 0.105469 326.128906 C 5.027344 283.730469 41.390625 248.453125 83.335938 242.867188 L 949.832031 242.945312 C 987.972656 245.621094 1033.082031 289.257812 1033.082031 327.726562 L 1033.082031 396.976562 Z M 973.980469 803.144531 L 973.980469 329.292969 C 973.980469 317.378906 951.878906 298.625 939.039062 300.449219 C 654.042969 301.890625 368.488281 297.820312 83.839844 302.496094 C 53.070312 313.214844 58.046875 343.425781 57.664062 369.820312 C 57.039062 413.546875 57.777344 458.082031 57.664062 501.953125 C 57.410156 601.828125 58.011719 701.738281 57.746094 801.589844 L 971.65625 801.589844 C 971.992188 801.589844 973.421875 803.929688 973.992188 803.144531 Z M 1440.65625 382.992188 L 1157.539062 382.992188 L 1157.539062 1114.394531 C 1157.539062 1114.394531 1440.65625 1114.394531 1440.65625 1114.394531 Z M 1099.980469 1080.144531 L 1099.980469 420.328125 L 1036.125 467.726562 L 1033.128906 472.503906 L 1033.148438 870.90625 C 1031.832031 890.277344 1023.765625 901.710938 1023.820312 920.578125 C 1023.945312 956.023438 1023.308594 991.503906 1024.066406 1026.917969 L 1099.96875 1080.136719 Z M 60.070312 859.171875 C 55.863281 859.171875 58.984375 876.179688 59.980469 879.488281 C 63.449219 890.96875 77.375 903.167969 89.621094 904.308594 L 942.160156 904.363281 C 956.375 904.507812 970.523438 891.863281 973.613281 878.246094 C 974.28125 875.273438 976.621094 859.171875 973.210938 859.171875 Z M 589.738281 961.875 L 445.074219 961.875 L 445.074219 1011.667969 L 589.738281 1011.667969 Z M 589.738281 961.875 " fill-opacity="1" fill-rule="nonzero"/></g><g clip-path="url(#fcbc4c476a)"><path fill="#000000" d="M 93.101562 1100.746094 L 937.25 1100.542969 C 946.945312 1102.179688 956.265625 1106.484375 962.179688 1114.507812 C 978.8125 1146.585938 1012.199219 1181.375 1027.15625 1212.90625 C 1038.273438 1236.347656 1022.523438 1256.355469 998.140625 1257.597656 L 30.644531 1257.40625 C 11.5625 1254.472656 -1.726562 1235.394531 5.164062 1216.632812 L 73.292969 1112.046875 Z M 949.082031 1199.960938 L 921.847656 1159.535156 L 917.296875 1157.867188 L 114.050781 1158.292969 L 87.296875 1198.417969 L 949.09375 1199.972656 Z M 949.082031 1199.960938 " fill-opacity="1" fill-rule="nonzero"/></g><path fill="#000000" d="M 1208.464844 425.375 L 1389.964844 425.140625 C 1423.746094 432.648438 1423.914062 475.203125 1389.964844 482.441406 L 1209.785156 482.441406 C 1176.578125 475.449219 1175.535156 433.769531 1208.464844 425.363281 Z M 1208.464844 425.375 " fill-opacity="1" fill-rule="nonzero"/><path fill="#000000" d="M 1205.332031 523.394531 L 1391.519531 523.179688 C 1418.175781 526.851562 1424.292969 565.375 1400.054688 576.5625 C 1389.730469 581.332031 1366.722656 578.847656 1354.261719 579.003906 C 1318.382812 579.429688 1281.503906 578.613281 1245.375 578.96875 C 1235.140625 579.070312 1225.734375 581.667969 1214.515625 580.4375 C 1178.96875 576.53125 1172.28125 536.28125 1205.34375 523.40625 Z M 1205.332031 523.394531 " fill-opacity="1" fill-rule="nonzero"/><path fill="#000000" d="M 1294.074219 875.183594 C 1364.261719 867.773438 1372.40625 970.941406 1307.476562 978.828125 C 1236.574219 987.445312 1224.761719 882.488281 1294.074219 875.183594 Z M 1297.128906 915.472656 C 1287.601562 917.476562 1288.09375 931.285156 1295.507812 933.566406 C 1313.996094 939.242188 1312.933594 912.152344 1297.128906 915.472656 Z M 1297.128906 915.472656 " fill-opacity="1" fill-rule="nonzero"/><path fill="#000000" d="M 1252.007812 1013.59375 C 1266.058594 1010.695312 1327.304688 1011.65625 1343.492188 1013.179688 C 1378.5 1016.480469 1377.941406 1066.113281 1344.84375 1070.679688 C 1331.613281 1072.503906 1262.386719 1072.671875 1251.160156 1069.75 C 1245.757812 1068.351562 1237.648438 1061.382812 1234.617188 1056.738281 C 1224.515625 1041.261719 1233.976562 1017.308594 1252.007812 1013.59375 Z M 1252.007812 1013.59375 " fill-opacity="1" fill-rule="nonzero"/></svg>