<svg xmlns="http://www.w3.org/2000/svg" xmlns:xlink="http://www.w3.org/1999/xlink" width="2000" zoomAndPan="magnify" viewBox="0 0 1500 1499.999933" height="2000" preserveAspectRatio="xMidYMid meet" version="1.0"><defs><clipPath id="38918589b1"><path d="M 819 460 L 1456.066406 460 L 1456.066406 1280 L 819 1280 Z M 819 460 " clip-rule="nonzero"/></clipPath><clipPath id="bada2c5350"><path d="M 43.816406 0 L 681 0 L 681 1497 L 43.816406 1497 Z M 43.816406 0 " clip-rule="nonzero"/></clipPath></defs><g clip-path="url(#38918589b1)"><path fill="#000000" d="M 1443.527344 534.425781 L 1225.738281 461.832031 C 1216.40625 458.746094 1206.3125 463.277344 1202.457031 472.285156 L 1165.332031 558.917969 L 1128.203125 472.285156 C 1124.347656 463.277344 1114.25 458.757812 1104.917969 461.832031 L 887.140625 534.425781 C 879.449219 536.996094 874.257812 544.191406 874.257812 552.308594 L 874.257812 642.363281 L 838.652344 642.363281 C 828.246094 642.363281 819.808594 650.804688 819.808594 661.210938 L 819.808594 788.265625 C 819.808594 798.683594 828.246094 807.113281 838.652344 807.113281 L 874.257812 807.113281 L 874.257812 842.011719 L 838.652344 842.011719 C 828.246094 842.011719 819.808594 850.441406 819.808594 860.859375 L 819.808594 951.625 C 819.808594 962.042969 828.246094 970.472656 838.652344 970.472656 L 874.257812 970.472656 L 874.257812 987.921875 C 874.257812 1148.425781 1004.832031 1279.023438 1165.332031 1279.023438 C 1325.835938 1279.023438 1456.410156 1148.425781 1456.410156 987.921875 L 1456.410156 552.308594 C 1456.410156 544.191406 1451.21875 536.996094 1443.527344 534.425781 Z M 874.257812 932.773438 L 857.5 932.773438 L 857.5 879.707031 L 874.257812 879.707031 Z M 874.257812 769.414062 L 857.5 769.414062 L 857.5 680.058594 L 874.257812 680.058594 Z M 1147.886719 698.210938 L 1182.78125 698.210938 L 1182.78125 805.714844 L 1147.886719 805.714844 Z M 911.953125 788.265625 L 911.953125 565.894531 L 1100.390625 503.078125 L 1146.488281 610.628906 L 1146.488281 660.511719 L 1129.039062 660.511719 C 1118.632812 660.511719 1110.191406 668.953125 1110.191406 679.359375 L 1110.191406 756.199219 L 911.953125 817.1875 Z M 1418.714844 987.921875 C 1418.714844 1127.648438 1305.046875 1241.328125 1165.332031 1241.328125 C 1025.621094 1241.328125 911.953125 1127.648438 911.953125 987.921875 L 911.953125 856.636719 L 1110.191406 795.640625 L 1110.191406 824.5625 C 1110.191406 834.980469 1118.632812 843.410156 1129.039062 843.410156 L 1201.628906 843.410156 C 1212.035156 843.410156 1220.476562 834.980469 1220.476562 824.5625 L 1220.476562 795.640625 L 1418.714844 856.636719 Z M 1418.714844 817.1875 L 1220.476562 756.199219 L 1220.476562 679.359375 C 1220.476562 668.953125 1212.035156 660.511719 1201.628906 660.511719 L 1184.179688 660.511719 L 1184.179688 610.625 L 1230.265625 503.078125 L 1418.714844 565.894531 Z M 1418.714844 817.1875 " fill-opacity="1" fill-rule="nonzero"/></g><path fill="#000000" d="M 1165.332031 896.476562 C 1154.925781 896.476562 1146.488281 904.90625 1146.488281 915.324219 L 1146.488281 969.773438 C 1146.488281 980.191406 1154.925781 988.621094 1165.332031 988.621094 C 1175.742188 988.621094 1184.179688 980.191406 1184.179688 969.773438 L 1184.179688 915.324219 C 1184.179688 904.90625 1175.742188 896.476562 1165.332031 896.476562 Z M 1165.332031 896.476562 " fill-opacity="1" fill-rule="nonzero"/><g clip-path="url(#bada2c5350)"><path fill="#000000" d="M 661.230469 -11.046875 L 62.320312 -11.046875 C 51.914062 -11.046875 43.472656 -2.605469 43.472656 7.800781 L 43.472656 1477.980469 C 43.472656 1488.398438 51.914062 1496.828125 62.320312 1496.828125 L 661.230469 1496.828125 C 671.636719 1496.828125 680.074219 1488.398438 680.074219 1477.980469 L 680.074219 7.800781 C 680.074219 -2.605469 671.636719 -11.046875 661.230469 -11.046875 Z M 642.382812 1459.132812 L 81.167969 1459.132812 L 81.167969 26.652344 L 642.382812 26.652344 Z M 642.382812 1459.132812 " fill-opacity="1" fill-rule="nonzero"/></g><path fill="#000000" d="M 479.738281 208.148438 L 552.335938 208.148438 C 562.742188 208.148438 571.183594 199.710938 571.183594 189.300781 L 571.183594 116.707031 C 571.183594 106.296875 562.742188 97.855469 552.335938 97.855469 L 479.738281 97.855469 C 469.328125 97.855469 460.890625 106.296875 460.890625 116.707031 L 460.890625 189.300781 C 460.890625 199.710938 469.328125 208.148438 479.738281 208.148438 Z M 498.585938 135.554688 L 533.488281 135.554688 L 533.488281 170.453125 L 498.585938 170.453125 Z M 498.585938 135.554688 " fill-opacity="1" fill-rule="nonzero"/><path fill="#000000" d="M 334.550781 208.148438 L 407.148438 208.148438 C 417.554688 208.148438 425.996094 199.710938 425.996094 189.300781 L 425.996094 116.707031 C 425.996094 106.296875 417.554688 97.855469 407.148438 97.855469 L 334.550781 97.855469 C 324.140625 97.855469 315.703125 106.296875 315.703125 116.707031 L 315.703125 189.300781 C 315.703125 199.710938 324.140625 208.148438 334.550781 208.148438 Z M 353.394531 135.554688 L 388.300781 135.554688 L 388.300781 170.453125 L 353.394531 170.453125 Z M 353.394531 135.554688 " fill-opacity="1" fill-rule="nonzero"/><path fill="#000000" d="M 189.359375 208.148438 L 261.960938 208.148438 C 272.367188 208.148438 280.804688 199.710938 280.804688 189.300781 L 280.804688 116.707031 C 280.804688 106.296875 272.367188 97.855469 261.960938 97.855469 L 189.359375 97.855469 C 178.953125 97.855469 170.515625 106.296875 170.515625 116.707031 L 170.515625 189.300781 C 170.515625 199.710938 178.953125 208.148438 189.359375 208.148438 Z M 208.207031 135.554688 L 243.113281 135.554688 L 243.113281 170.453125 L 208.207031 170.453125 Z M 208.207031 135.554688 " fill-opacity="1" fill-rule="nonzero"/><path fill="#000000" d="M 334.550781 353.359375 L 407.148438 353.359375 C 417.554688 353.359375 425.996094 344.921875 425.996094 334.511719 L 425.996094 261.90625 C 425.996094 251.496094 417.554688 243.058594 407.148438 243.058594 L 334.550781 243.058594 C 324.140625 243.058594 315.703125 251.496094 315.703125 261.90625 L 315.703125 334.511719 C 315.703125 344.921875 324.140625 353.359375 334.550781 353.359375 Z M 353.394531 280.753906 L 388.300781 280.753906 L 388.300781 315.664062 L 353.394531 315.664062 Z M 353.394531 280.753906 " fill-opacity="1" fill-rule="nonzero"/><path fill="#000000" d="M 189.359375 353.359375 L 261.960938 353.359375 C 272.367188 353.359375 280.804688 344.921875 280.804688 334.511719 L 280.804688 261.90625 C 280.804688 251.496094 272.367188 243.058594 261.960938 243.058594 L 189.359375 243.058594 C 178.953125 243.058594 170.515625 251.496094 170.515625 261.90625 L 170.515625 334.511719 C 170.515625 344.921875 178.953125 353.359375 189.359375 353.359375 Z M 208.207031 280.753906 L 243.113281 280.753906 L 243.113281 315.664062 L 208.207031 315.664062 Z M 208.207031 280.753906 " fill-opacity="1" fill-rule="nonzero"/><path fill="#000000" d="M 334.550781 498.5625 L 407.148438 498.5625 C 417.554688 498.5625 425.996094 490.121094 425.996094 479.710938 L 425.996094 407.109375 C 425.996094 396.699219 417.554688 388.257812 407.148438 388.257812 L 334.550781 388.257812 C 324.140625 388.257812 315.703125 396.699219 315.703125 407.109375 L 315.703125 479.710938 C 315.703125 490.121094 324.140625 498.5625 334.550781 498.5625 Z M 353.394531 425.957031 L 388.300781 425.957031 L 388.300781 460.863281 L 353.394531 460.863281 Z M 353.394531 425.957031 " fill-opacity="1" fill-rule="nonzero"/><path fill="#000000" d="M 334.550781 643.761719 L 407.148438 643.761719 C 417.554688 643.761719 425.996094 635.324219 425.996094 624.914062 L 425.996094 552.308594 C 425.996094 541.898438 417.554688 533.460938 407.148438 533.460938 L 334.550781 533.460938 C 324.140625 533.460938 315.703125 541.898438 315.703125 552.308594 L 315.703125 624.914062 C 315.703125 635.324219 324.140625 643.761719 334.550781 643.761719 Z M 353.394531 571.15625 L 388.300781 571.15625 L 388.300781 606.066406 L 353.394531 606.066406 Z M 353.394531 571.15625 " fill-opacity="1" fill-rule="nonzero"/><path fill="#000000" d="M 334.550781 788.964844 L 407.148438 788.964844 C 417.554688 788.964844 425.996094 780.53125 425.996094 770.113281 L 425.996094 697.519531 C 425.996094 687.109375 417.554688 678.671875 407.148438 678.671875 L 334.550781 678.671875 C 324.140625 678.671875 315.703125 687.109375 315.703125 697.519531 L 315.703125 770.113281 C 315.703125 780.53125 324.140625 788.964844 334.550781 788.964844 Z M 353.394531 716.367188 L 388.300781 716.367188 L 388.300781 751.265625 L 353.394531 751.265625 Z M 353.394531 716.367188 " fill-opacity="1" fill-rule="nonzero"/><path fill="#000000" d="M 189.359375 788.964844 L 261.960938 788.964844 C 272.367188 788.964844 280.804688 780.53125 280.804688 770.113281 L 280.804688 407.109375 C 280.804688 396.699219 272.367188 388.257812 261.960938 388.257812 L 189.359375 388.257812 C 178.953125 388.257812 170.515625 396.699219 170.515625 407.109375 L 170.515625 770.113281 C 170.515625 780.53125 178.953125 788.964844 189.359375 788.964844 Z M 208.207031 425.957031 L 243.113281 425.957031 L 243.113281 751.265625 L 208.207031 751.265625 Z M 208.207031 425.957031 " fill-opacity="1" fill-rule="nonzero"/><path fill="#000000" d="M 334.550781 934.171875 L 407.148438 934.171875 C 417.554688 934.171875 425.996094 925.742188 425.996094 915.324219 L 425.996094 842.710938 C 425.996094 832.292969 417.554688 823.863281 407.148438 823.863281 L 334.550781 823.863281 C 324.140625 823.863281 315.703125 832.292969 315.703125 842.710938 L 315.703125 915.324219 C 315.703125 925.742188 324.140625 934.171875 334.550781 934.171875 Z M 353.394531 861.558594 L 388.300781 861.558594 L 388.300781 896.476562 L 353.394531 896.476562 Z M 353.394531 861.558594 " fill-opacity="1" fill-rule="nonzero"/><path fill="#000000" d="M 189.359375 934.171875 L 261.960938 934.171875 C 272.367188 934.171875 280.804688 925.742188 280.804688 915.324219 L 280.804688 842.710938 C 280.804688 832.292969 272.367188 823.863281 261.960938 823.863281 L 189.359375 823.863281 C 178.953125 823.863281 170.515625 832.292969 170.515625 842.710938 L 170.515625 915.324219 C 170.515625 925.742188 178.953125 934.171875 189.359375 934.171875 Z M 208.207031 861.558594 L 243.113281 861.558594 L 243.113281 896.476562 L 208.207031 896.476562 Z M 208.207031 861.558594 " fill-opacity="1" fill-rule="nonzero"/><path fill="#000000" d="M 334.550781 1079.367188 L 407.148438 1079.367188 C 417.554688 1079.367188 425.996094 1070.933594 425.996094 1060.515625 L 425.996094 987.921875 C 425.996094 977.503906 417.554688 969.074219 407.148438 969.074219 L 334.550781 969.074219 C 324.140625 969.074219 315.703125 977.503906 315.703125 987.921875 L 315.703125 1060.515625 C 315.703125 1070.933594 324.140625 1079.367188 334.550781 1079.367188 Z M 353.394531 1006.769531 L 388.300781 1006.769531 L 388.300781 1041.667969 L 353.394531 1041.667969 Z M 353.394531 1006.769531 " fill-opacity="1" fill-rule="nonzero"/><path fill="#000000" d="M 189.359375 1079.367188 L 261.960938 1079.367188 C 272.367188 1079.367188 280.804688 1070.933594 280.804688 1060.515625 L 280.804688 987.921875 C 280.804688 977.503906 272.367188 969.074219 261.960938 969.074219 L 189.359375 969.074219 C 178.953125 969.074219 170.515625 977.503906 170.515625 987.921875 L 170.515625 1060.515625 C 170.515625 1070.933594 178.953125 1079.367188 189.359375 1079.367188 Z M 208.207031 1006.769531 L 243.113281 1006.769531 L 243.113281 1041.667969 L 208.207031 1041.667969 Z M 208.207031 1006.769531 " fill-opacity="1" fill-rule="nonzero"/><path fill="#000000" d="M 334.550781 1224.574219 L 407.148438 1224.574219 C 417.554688 1224.574219 425.996094 1216.144531 425.996094 1205.726562 L 425.996094 1133.132812 C 425.996094 1122.714844 417.554688 1114.285156 407.148438 1114.285156 L 334.550781 1114.285156 C 324.140625 1114.285156 315.703125 1122.714844 315.703125 1133.132812 L 315.703125 1205.726562 C 315.703125 1216.144531 324.140625 1224.574219 334.550781 1224.574219 Z M 353.394531 1151.980469 L 388.300781 1151.980469 L 388.300781 1186.878906 L 353.394531 1186.878906 Z M 353.394531 1151.980469 " fill-opacity="1" fill-rule="nonzero"/><path fill="#000000" d="M 189.359375 1224.574219 L 261.960938 1224.574219 C 272.367188 1224.574219 280.804688 1216.144531 280.804688 1205.726562 L 280.804688 1133.132812 C 280.804688 1122.714844 272.367188 1114.285156 261.960938 1114.285156 L 189.359375 1114.285156 C 178.953125 1114.285156 170.515625 1122.714844 170.515625 1133.132812 L 170.515625 1205.726562 C 170.515625 1216.144531 178.953125 1224.574219 189.359375 1224.574219 Z M 208.207031 1151.980469 L 243.113281 1151.980469 L 243.113281 1186.878906 L 208.207031 1186.878906 Z M 208.207031 1151.980469 " fill-opacity="1" fill-rule="nonzero"/><path fill="#000000" d="M 334.550781 1369.769531 L 407.148438 1369.769531 C 417.554688 1369.769531 425.996094 1361.335938 425.996094 1350.917969 L 425.996094 1278.324219 C 425.996094 1267.90625 417.554688 1259.476562 407.148438 1259.476562 L 334.550781 1259.476562 C 324.140625 1259.476562 315.703125 1267.90625 315.703125 1278.324219 L 315.703125 1350.917969 C 315.703125 1361.335938 324.140625 1369.769531 334.550781 1369.769531 Z M 353.394531 1297.171875 L 388.300781 1297.171875 L 388.300781 1332.070312 L 353.394531 1332.070312 Z M 353.394531 1297.171875 " fill-opacity="1" fill-rule="nonzero"/><path fill="#000000" d="M 189.359375 1369.769531 L 261.960938 1369.769531 C 272.367188 1369.769531 280.804688 1361.335938 280.804688 1350.917969 L 280.804688 1278.324219 C 280.804688 1267.90625 272.367188 1259.476562 261.960938 1259.476562 L 189.359375 1259.476562 C 178.953125 1259.476562 170.515625 1267.90625 170.515625 1278.324219 L 170.515625 1350.917969 C 170.515625 1361.335938 178.953125 1369.769531 189.359375 1369.769531 Z M 208.207031 1297.171875 L 243.113281 1297.171875 L 243.113281 1332.070312 L 208.207031 1332.070312 Z M 208.207031 1297.171875 " fill-opacity="1" fill-rule="nonzero"/><path fill="#000000" d="M 479.738281 353.359375 L 552.335938 353.359375 C 562.742188 353.359375 571.183594 344.921875 571.183594 334.511719 L 571.183594 261.90625 C 571.183594 251.496094 562.742188 243.058594 552.335938 243.058594 L 479.738281 243.058594 C 469.328125 243.058594 460.890625 251.496094 460.890625 261.90625 L 460.890625 334.511719 C 460.890625 344.921875 469.328125 353.359375 479.738281 353.359375 Z M 498.585938 280.753906 L 533.488281 280.753906 L 533.488281 315.664062 L 498.585938 315.664062 Z M 498.585938 280.753906 " fill-opacity="1" fill-rule="nonzero"/><path fill="#000000" d="M 479.738281 498.5625 L 552.335938 498.5625 C 562.742188 498.5625 571.183594 490.121094 571.183594 479.710938 L 571.183594 407.109375 C 571.183594 396.699219 562.742188 388.257812 552.335938 388.257812 L 479.738281 388.257812 C 469.328125 388.257812 460.890625 396.699219 460.890625 407.109375 L 460.890625 479.710938 C 460.890625 490.121094 469.328125 498.5625 479.738281 498.5625 Z M 498.585938 425.957031 L 533.488281 425.957031 L 533.488281 460.863281 L 498.585938 460.863281 Z M 498.585938 425.957031 " fill-opacity="1" fill-rule="nonzero"/><path fill="#000000" d="M 479.738281 643.761719 L 552.335938 643.761719 C 562.742188 643.761719 571.183594 635.324219 571.183594 624.914062 L 571.183594 552.308594 C 571.183594 541.898438 562.742188 533.460938 552.335938 533.460938 L 479.738281 533.460938 C 469.328125 533.460938 460.890625 541.898438 460.890625 552.308594 L 460.890625 624.914062 C 460.890625 635.324219 469.328125 643.761719 479.738281 643.761719 Z M 498.585938 571.15625 L 533.488281 571.15625 L 533.488281 606.066406 L 498.585938 606.066406 Z M 498.585938 571.15625 " fill-opacity="1" fill-rule="nonzero"/><path fill="#000000" d="M 479.738281 788.964844 L 552.335938 788.964844 C 562.742188 788.964844 571.183594 780.53125 571.183594 770.113281 L 571.183594 697.519531 C 571.183594 687.109375 562.742188 678.671875 552.335938 678.671875 L 479.738281 678.671875 C 469.328125 678.671875 460.890625 687.109375 460.890625 697.519531 L 460.890625 770.113281 C 460.890625 780.53125 469.328125 788.964844 479.738281 788.964844 Z M 498.585938 716.367188 L 533.488281 716.367188 L 533.488281 751.265625 L 498.585938 751.265625 Z M 498.585938 716.367188 " fill-opacity="1" fill-rule="nonzero"/><path fill="#000000" d="M 479.738281 934.171875 L 552.335938 934.171875 C 562.742188 934.171875 571.183594 925.742188 571.183594 915.324219 L 571.183594 842.710938 C 571.183594 832.292969 562.742188 823.863281 552.335938 823.863281 L 479.738281 823.863281 C 469.328125 823.863281 460.890625 832.292969 460.890625 842.710938 L 460.890625 915.324219 C 460.890625 925.742188 469.328125 934.171875 479.738281 934.171875 Z M 498.585938 861.558594 L 533.488281 861.558594 L 533.488281 896.476562 L 498.585938 896.476562 Z M 498.585938 861.558594 " fill-opacity="1" fill-rule="nonzero"/><path fill="#000000" d="M 479.738281 1079.367188 L 552.335938 1079.367188 C 562.742188 1079.367188 571.183594 1070.933594 571.183594 1060.515625 L 571.183594 987.921875 C 571.183594 977.503906 562.742188 969.074219 552.335938 969.074219 L 479.738281 969.074219 C 469.328125 969.074219 460.890625 977.503906 460.890625 987.921875 L 460.890625 1060.515625 C 460.890625 1070.933594 469.328125 1079.367188 479.738281 1079.367188 Z M 498.585938 1006.769531 L 533.488281 1006.769531 L 533.488281 1041.667969 L 498.585938 1041.667969 Z M 498.585938 1006.769531 " fill-opacity="1" fill-rule="nonzero"/><path fill="#000000" d="M 479.738281 1369.769531 L 552.335938 1369.769531 C 562.742188 1369.769531 571.183594 1361.335938 571.183594 1350.917969 L 571.183594 1278.324219 C 571.183594 1267.90625 562.742188 1259.476562 552.335938 1259.476562 L 479.738281 1259.476562 C 469.328125 1259.476562 460.890625 1267.90625 460.890625 1278.324219 L 460.890625 1350.917969 C 460.890625 1361.335938 469.328125 1369.769531 479.738281 1369.769531 Z M 498.585938 1297.171875 L 533.488281 1297.171875 L 533.488281 1332.070312 L 498.585938 1332.070312 Z M 498.585938 1297.171875 " fill-opacity="1" fill-rule="nonzero"/></svg>