<svg xmlns="http://www.w3.org/2000/svg" xmlns:xlink="http://www.w3.org/1999/xlink" width="2000" zoomAndPan="magnify" viewBox="0 0 1500 1499.999933" height="2000" preserveAspectRatio="xMidYMid meet" version="1.0"><defs><clipPath id="807499b330"><path d="M 11.25 5 L 1500 5 L 1500 1495 L 11.25 1495 Z M 11.25 5 " clip-rule="nonzero"/></clipPath></defs><path fill="#000000" d="M 755.625 910.761719 C 666.953125 910.761719 594.753906 838.671875 594.753906 749.890625 C 594.753906 661.109375 666.84375 589.128906 755.625 589.128906 C 844.40625 589.128906 916.496094 661.21875 916.496094 749.890625 C 916.496094 838.5625 844.40625 910.761719 755.625 910.761719 Z M 755.625 671.472656 C 712.324219 671.472656 677.207031 706.699219 677.207031 749.890625 C 677.207031 793.082031 712.433594 828.308594 755.625 828.308594 C 798.816406 828.308594 834.042969 793.082031 834.042969 749.890625 C 834.042969 706.699219 798.816406 671.472656 755.625 671.472656 Z M 755.625 671.472656 " fill-opacity="1" fill-rule="nonzero"/><path fill="#000000" d="M 1066.355469 1101.300781 C 1034.398438 1101.300781 1002.878906 1091.15625 976.703125 1071.960938 C 892.285156 1009.902344 834.589844 954.5 805.359375 907.164062 L 792.597656 886.441406 C 780.601562 867.136719 786.601562 841.722656 805.90625 829.726562 C 825.210938 817.839844 850.621094 823.726562 862.617188 843.140625 L 875.488281 863.863281 C 898.828125 901.601562 950.742188 950.679688 1025.5625 1005.542969 C 1041.597656 1017.320312 1061.226562 1021.464844 1080.640625 1017.429688 C 1100.273438 1013.285156 1116.742188 1001.398438 1126.777344 984.054688 L 1181.855469 888.730469 C 1072.570312 879.023438 965.796875 845.433594 870.582031 790.464844 C 850.839844 779.121094 844.1875 753.925781 855.53125 734.183594 C 866.871094 714.445312 892.066406 707.792969 911.808594 719.132812 C 1007.894531 774.539062 1117.179688 805.625 1228.097656 808.894531 L 1252.53125 809.660156 C 1267.035156 810.09375 1280.230469 818.167969 1287.320312 830.816406 C 1294.410156 843.46875 1294.191406 858.957031 1286.996094 871.5 L 1198.214844 1025.28125 C 1176.621094 1062.691406 1139.972656 1089.195312 1097.765625 1098.136719 C 1087.511719 1100.320312 1077.042969 1101.410156 1066.679688 1101.410156 Z M 1066.355469 1101.300781 " fill-opacity="1" fill-rule="nonzero"/><path fill="#000000" d="M 620.273438 786.320312 C 613.292969 786.320312 606.203125 784.574219 599.660156 780.757812 C 503.574219 725.351562 394.179688 694.265625 283.371094 690.886719 L 258.9375 690.121094 C 244.433594 689.6875 231.234375 681.726562 224.253906 668.964844 C 217.167969 656.3125 217.277344 640.824219 224.582031 628.28125 L 313.363281 474.5 C 334.957031 437.089844 371.605469 410.476562 413.8125 401.644531 C 456.019531 392.808594 499.972656 402.40625 534.546875 427.820312 C 618.964844 489.769531 676.660156 545.175781 705.890625 592.617188 L 718.652344 613.339844 C 730.648438 632.644531 724.648438 658.058594 705.34375 670.054688 C 686.039062 682.050781 660.628906 676.054688 648.632812 656.640625 L 635.761719 635.917969 C 612.421875 598.070312 560.507812 549.101562 485.6875 494.242188 C 469.652344 482.460938 450.132812 478.207031 430.609375 482.351562 C 410.976562 486.496094 394.617188 498.386719 384.472656 515.835938 L 329.503906 611.160156 C 438.789062 620.867188 545.5625 654.457031 640.667969 709.425781 C 660.410156 720.769531 667.0625 745.964844 655.71875 765.707031 C 648.085938 778.902344 634.234375 786.320312 620.054688 786.320312 Z M 620.273438 786.320312 " fill-opacity="1" fill-rule="nonzero"/><path fill="#000000" d="M 420.464844 1169.6875 L 419.8125 1169.6875 C 405.304688 1169.46875 392 1161.613281 384.800781 1149.070312 L 296.019531 995.289062 C 274.425781 957.878906 269.734375 912.835938 283.261719 871.828125 C 296.675781 830.925781 326.886719 797.554688 366.257812 780.320312 C 462.128906 738.222656 539.019531 715.972656 594.644531 714.335938 L 619.074219 713.570312 C 641.976562 713.355469 660.738281 730.804688 661.5 753.488281 C 662.15625 776.175781 644.269531 795.152344 621.582031 795.917969 L 597.152344 796.679688 C 552.761719 797.988281 484.378906 818.382812 399.414062 855.792969 C 381.203125 863.753906 367.785156 878.589844 361.570312 897.566406 C 355.242188 916.652344 357.425781 936.722656 367.460938 954.171875 L 422.539062 1049.496094 C 485.578125 959.734375 568.03125 884.042969 663.246094 829.074219 C 682.878906 817.730469 708.070312 824.492188 719.523438 844.125 C 730.867188 863.863281 724.214844 889.058594 704.472656 900.402344 C 608.386719 955.808594 526.804688 1034.988281 468.5625 1129.332031 L 455.695312 1150.164062 C 448.167969 1162.269531 434.972656 1169.6875 420.683594 1169.6875 Z M 420.464844 1169.6875 " fill-opacity="1" fill-rule="nonzero"/><path fill="#000000" d="M 890.976562 786.320312 C 868.835938 786.320312 850.511719 768.648438 849.859375 746.402344 C 849.203125 723.714844 867.089844 704.738281 889.777344 703.972656 L 914.097656 703.210938 C 958.488281 701.902344 1026.871094 681.398438 1111.835938 644.097656 C 1130.046875 636.136719 1143.464844 621.300781 1149.679688 602.324219 C 1155.898438 583.238281 1153.824219 563.171875 1143.789062 545.71875 L 1088.710938 450.394531 C 1025.671875 540.265625 943.21875 615.847656 848.003906 670.816406 C 828.371094 682.160156 803.179688 675.507812 791.726562 655.765625 C 780.382812 636.027344 787.035156 610.941406 806.777344 599.488281 C 902.863281 543.972656 984.445312 464.792969 1042.6875 370.449219 L 1055.449219 349.726562 C 1063.082031 337.402344 1075.1875 330.097656 1091.113281 330.207031 C 1105.617188 330.421875 1118.921875 338.277344 1126.121094 350.820312 L 1214.902344 504.601562 C 1236.496094 542.011719 1241.1875 587.054688 1227.769531 628.0625 C 1214.355469 668.964844 1184.144531 702.339844 1144.773438 719.570312 C 1048.902344 761.671875 972.011719 783.917969 916.386719 785.554688 L 892.066406 786.320312 C 892.066406 786.320312 891.195312 786.320312 890.757812 786.320312 Z M 890.976562 786.320312 " fill-opacity="1" fill-rule="nonzero"/><path fill="#000000" d="M 818.992188 671.582031 C 812.449219 671.582031 805.6875 669.945312 799.46875 666.671875 C 779.402344 655.875 771.984375 630.898438 782.78125 610.832031 L 794.34375 589.347656 C 815.394531 550.300781 831.863281 480.824219 842.003906 388.554688 C 844.1875 368.816406 838.078125 349.726562 824.773438 334.894531 C 811.359375 319.953125 792.925781 311.664062 772.75 311.664062 L 662.699219 311.664062 C 708.945312 411.242188 733.265625 520.523438 733.265625 630.355469 C 733.265625 653.148438 714.835938 671.582031 692.039062 671.582031 C 669.246094 671.582031 650.8125 653.148438 650.8125 630.355469 C 650.8125 519.433594 623 409.167969 570.429688 311.554688 L 558.871094 290.070312 C 552 277.308594 552.324219 261.820312 559.742188 249.386719 C 567.160156 236.953125 580.574219 229.320312 595.078125 229.320312 L 772.640625 229.320312 C 815.828125 229.320312 857.164062 247.75 885.957031 279.925781 C 914.644531 311.992188 928.386719 354.855469 923.695312 397.609375 C 912.242188 501.765625 893.046875 579.421875 866.652344 628.390625 L 855.09375 649.878906 C 847.675781 663.621094 833.5 671.472656 818.773438 671.472656 Z M 818.992188 671.582031 " fill-opacity="1" fill-rule="nonzero"/><path fill="#000000" d="M 915.84375 1270.679688 L 738.285156 1270.679688 C 695.09375 1270.679688 653.757812 1252.25 624.964844 1220.074219 C 596.28125 1188.007812 582.539062 1145.144531 587.226562 1102.5 C 598.679688 998.453125 617.875 920.6875 644.269531 871.71875 L 655.828125 850.230469 C 666.628906 830.273438 691.601562 822.746094 711.5625 833.433594 C 731.628906 844.234375 739.15625 869.210938 728.359375 889.167969 L 716.796875 910.652344 C 695.746094 949.808594 679.277344 1019.175781 669.136719 1111.445312 C 666.953125 1131.183594 673.0625 1150.273438 686.367188 1165.105469 C 699.785156 1180.046875 718.214844 1188.335938 738.394531 1188.335938 L 848.441406 1188.335938 C 802.195312 1088.867188 777.875 979.582031 777.875 869.644531 C 777.875 846.851562 796.308594 828.417969 819.101562 828.417969 C 841.894531 828.417969 860.328125 846.851562 860.328125 869.644531 C 860.328125 980.566406 888.140625 1090.832031 940.710938 1188.445312 L 952.269531 1209.929688 C 959.140625 1222.691406 958.816406 1238.070312 951.289062 1250.613281 C 943.871094 1263.046875 930.457031 1270.679688 915.953125 1270.679688 Z M 915.84375 1270.679688 " fill-opacity="1" fill-rule="nonzero"/><path fill="#000000" d="M 1066.355469 1101.300781 C 1034.398438 1101.300781 1002.878906 1091.15625 976.703125 1071.960938 C 892.285156 1009.902344 834.589844 954.5 805.359375 907.164062 L 792.597656 886.441406 C 780.601562 867.136719 786.601562 841.722656 805.90625 829.726562 C 825.210938 817.839844 850.621094 823.726562 862.617188 843.140625 L 875.488281 863.863281 C 898.828125 901.601562 950.742188 950.679688 1025.5625 1005.542969 C 1041.597656 1017.320312 1061.226562 1021.464844 1080.640625 1017.429688 C 1100.273438 1013.285156 1116.742188 1001.398438 1126.777344 984.054688 L 1181.855469 888.730469 C 1072.570312 879.023438 965.796875 845.433594 870.582031 790.464844 C 850.839844 779.121094 844.1875 753.925781 855.53125 734.183594 C 866.871094 714.445312 892.066406 707.792969 911.808594 719.132812 C 1007.894531 774.539062 1117.179688 805.625 1228.097656 808.894531 L 1252.53125 809.660156 C 1267.035156 810.09375 1280.230469 818.167969 1287.320312 830.816406 C 1294.410156 843.46875 1294.191406 858.957031 1286.996094 871.5 L 1198.214844 1025.28125 C 1176.621094 1062.691406 1139.972656 1089.195312 1097.765625 1098.136719 C 1087.511719 1100.320312 1077.042969 1101.410156 1066.679688 1101.410156 Z M 1066.355469 1101.300781 " fill-opacity="1" fill-rule="nonzero"/><path fill="#000000" d="M 620.273438 786.320312 C 613.292969 786.320312 606.203125 784.574219 599.660156 780.757812 C 503.574219 725.351562 394.179688 694.265625 283.371094 690.886719 L 258.9375 690.121094 C 244.433594 689.6875 231.234375 681.726562 224.253906 668.964844 C 217.167969 656.3125 217.277344 640.824219 224.582031 628.28125 L 313.363281 474.5 C 334.957031 437.089844 371.605469 410.476562 413.8125 401.644531 C 456.019531 392.808594 499.972656 402.40625 534.546875 427.820312 C 618.964844 489.769531 676.660156 545.175781 705.890625 592.617188 L 718.652344 613.339844 C 730.648438 632.644531 724.648438 658.058594 705.34375 670.054688 C 686.039062 682.050781 660.628906 676.054688 648.632812 656.640625 L 635.761719 635.917969 C 612.421875 598.070312 560.507812 549.101562 485.6875 494.242188 C 469.652344 482.460938 450.132812 478.207031 430.609375 482.351562 C 410.976562 486.496094 394.617188 498.386719 384.472656 515.835938 L 329.503906 611.160156 C 438.789062 620.867188 545.5625 654.457031 640.667969 709.425781 C 660.410156 720.769531 667.0625 745.964844 655.71875 765.707031 C 648.085938 778.902344 634.234375 786.320312 620.054688 786.320312 Z M 620.273438 786.320312 " fill-opacity="1" fill-rule="nonzero"/><path fill="#000000" d="M 420.464844 1169.6875 L 419.8125 1169.6875 C 405.304688 1169.46875 392 1161.613281 384.800781 1149.070312 L 296.019531 995.289062 C 274.425781 957.878906 269.734375 912.835938 283.261719 871.828125 C 296.675781 830.925781 326.886719 797.554688 366.257812 780.320312 C 462.128906 738.222656 539.019531 715.972656 594.644531 714.335938 L 619.074219 713.570312 C 641.976562 713.355469 660.738281 730.804688 661.5 753.488281 C 662.15625 776.175781 644.269531 795.152344 621.582031 795.917969 L 597.152344 796.679688 C 552.761719 797.988281 484.378906 818.382812 399.414062 855.792969 C 381.203125 863.753906 367.785156 878.589844 361.570312 897.566406 C 355.242188 916.652344 357.425781 936.722656 367.460938 954.171875 L 422.539062 1049.496094 C 485.578125 959.734375 568.03125 884.042969 663.246094 829.074219 C 682.878906 817.730469 708.070312 824.492188 719.523438 844.125 C 730.867188 863.863281 724.214844 889.058594 704.472656 900.402344 C 608.386719 955.808594 526.804688 1034.988281 468.5625 1129.332031 L 455.695312 1150.164062 C 448.167969 1162.269531 434.972656 1169.6875 420.683594 1169.6875 Z M 420.464844 1169.6875 " fill-opacity="1" fill-rule="nonzero"/><path fill="#000000" d="M 890.976562 786.320312 C 868.835938 786.320312 850.511719 768.648438 849.859375 746.402344 C 849.203125 723.714844 867.089844 704.738281 889.777344 703.972656 L 914.097656 703.210938 C 958.488281 701.902344 1026.871094 681.398438 1111.835938 644.097656 C 1130.046875 636.136719 1143.464844 621.300781 1149.679688 602.324219 C 1155.898438 583.238281 1153.824219 563.171875 1143.789062 545.71875 L 1088.710938 450.394531 C 1025.671875 540.265625 943.21875 615.847656 848.003906 670.816406 C 828.371094 682.160156 803.179688 675.507812 791.726562 655.765625 C 780.382812 636.027344 787.035156 610.941406 806.777344 599.488281 C 902.863281 543.972656 984.445312 464.792969 1042.6875 370.449219 L 1055.449219 349.726562 C 1063.082031 337.402344 1075.1875 330.097656 1091.113281 330.207031 C 1105.617188 330.421875 1118.921875 338.277344 1126.121094 350.820312 L 1214.902344 504.601562 C 1236.496094 542.011719 1241.1875 587.054688 1227.769531 628.0625 C 1214.355469 668.964844 1184.144531 702.339844 1144.773438 719.570312 C 1048.902344 761.671875 972.011719 783.917969 916.386719 785.554688 L 892.066406 786.320312 C 892.066406 786.320312 891.195312 786.320312 890.757812 786.320312 Z M 890.976562 786.320312 " fill-opacity="1" fill-rule="nonzero"/><path fill="#000000" d="M 818.992188 671.582031 C 812.449219 671.582031 805.6875 669.945312 799.46875 666.671875 C 779.402344 655.875 771.984375 630.898438 782.78125 610.832031 L 794.34375 589.347656 C 815.394531 550.300781 831.863281 480.824219 842.003906 388.554688 C 844.1875 368.816406 838.078125 349.726562 824.773438 334.894531 C 811.359375 319.953125 792.925781 311.664062 772.75 311.664062 L 662.699219 311.664062 C 708.945312 411.242188 733.265625 520.523438 733.265625 630.355469 C 733.265625 653.148438 714.835938 671.582031 692.039062 671.582031 C 669.246094 671.582031 650.8125 653.148438 650.8125 630.355469 C 650.8125 519.433594 623 409.167969 570.429688 311.554688 L 558.871094 290.070312 C 552 277.308594 552.324219 261.820312 559.742188 249.386719 C 567.160156 236.953125 580.574219 229.320312 595.078125 229.320312 L 772.640625 229.320312 C 815.828125 229.320312 857.164062 247.75 885.957031 279.925781 C 914.644531 311.992188 928.386719 354.855469 923.695312 397.609375 C 912.242188 501.765625 893.046875 579.421875 866.652344 628.390625 L 855.09375 649.878906 C 847.675781 663.621094 833.5 671.472656 818.773438 671.472656 Z M 818.992188 671.582031 " fill-opacity="1" fill-rule="nonzero"/><path fill="#000000" d="M 915.84375 1270.679688 L 738.285156 1270.679688 C 695.09375 1270.679688 653.757812 1252.25 624.964844 1220.074219 C 596.28125 1188.007812 582.539062 1145.144531 587.226562 1102.5 C 598.679688 998.453125 617.875 920.6875 644.269531 871.71875 L 655.828125 850.230469 C 666.628906 830.273438 691.601562 822.746094 711.5625 833.433594 C 731.628906 844.234375 739.15625 869.210938 728.359375 889.167969 L 716.796875 910.652344 C 695.746094 949.808594 679.277344 1019.175781 669.136719 1111.445312 C 666.953125 1131.183594 673.0625 1150.273438 686.367188 1165.105469 C 699.785156 1180.046875 718.214844 1188.335938 738.394531 1188.335938 L 848.441406 1188.335938 C 802.195312 1088.867188 777.875 979.582031 777.875 869.644531 C 777.875 846.851562 796.308594 828.417969 819.101562 828.417969 C 841.894531 828.417969 860.328125 846.851562 860.328125 869.644531 C 860.328125 980.566406 888.140625 1090.832031 940.710938 1188.445312 L 952.269531 1209.929688 C 959.140625 1222.691406 958.816406 1238.070312 951.289062 1250.613281 C 943.871094 1263.046875 930.457031 1270.679688 915.953125 1270.679688 Z M 915.84375 1270.679688 " fill-opacity="1" fill-rule="nonzero"/><path fill="#000000" d="M 755.625 1314.742188 C 444.242188 1314.742188 190.882812 1061.382812 190.882812 749.890625 C 190.882812 438.398438 444.132812 185.148438 755.625 185.148438 C 1067.117188 185.148438 1320.367188 438.507812 1320.367188 749.890625 C 1320.367188 1061.273438 1067.007812 1314.742188 755.625 1314.742188 Z M 755.625 267.492188 C 489.613281 267.492188 273.226562 483.878906 273.226562 749.890625 C 273.226562 1015.902344 489.613281 1232.398438 755.625 1232.398438 C 1021.636719 1232.398438 1238.023438 1016.011719 1238.023438 749.890625 C 1238.023438 483.769531 1021.636719 267.492188 755.625 267.492188 Z M 755.625 267.492188 " fill-opacity="1" fill-rule="nonzero"/><path fill="#000000" d="M 1278.597656 1314.199219 C 1275.871094 1314.199219 1273.144531 1313.980469 1270.632812 1313.433594 C 1267.90625 1312.890625 1265.398438 1312.015625 1263 1310.925781 C 1260.273438 1310.164062 1258.089844 1308.746094 1255.910156 1307.328125 C 1253.402344 1305.691406 1251.546875 1304.054688 1249.585938 1302.089844 C 1241.839844 1294.347656 1237.476562 1283.660156 1237.476562 1272.972656 C 1237.476562 1262.28125 1241.839844 1251.59375 1249.585938 1243.851562 C 1251.546875 1241.886719 1253.402344 1240.25 1255.910156 1238.617188 C 1258.089844 1237.199219 1260.273438 1235.886719 1263 1234.796875 C 1265.507812 1234.035156 1267.90625 1233.160156 1270.632812 1232.617188 C 1275.871094 1231.527344 1281.324219 1231.527344 1286.558594 1232.617188 C 1289.285156 1233.160156 1291.792969 1234.035156 1294.300781 1234.796875 C 1296.808594 1235.886719 1299.210938 1237.304688 1301.390625 1238.617188 C 1303.570312 1240.25 1305.753906 1241.886719 1307.714844 1243.851562 C 1315.460938 1251.59375 1319.824219 1261.957031 1319.824219 1272.972656 C 1319.824219 1283.988281 1315.460938 1294.347656 1307.714844 1302.089844 C 1299.972656 1309.726562 1289.285156 1314.199219 1278.597656 1314.199219 Z M 1278.597656 1314.199219 " fill-opacity="1" fill-rule="nonzero"/><path fill="#000000" d="M 1278.597656 268.039062 C 1275.871094 268.039062 1273.144531 267.710938 1270.632812 267.492188 C 1267.90625 266.945312 1265.398438 266.074219 1263 264.984375 C 1260.273438 263.894531 1258.089844 262.800781 1255.910156 261.167969 C 1253.402344 259.75 1251.546875 257.894531 1249.585938 256.257812 C 1241.839844 248.625 1237.476562 237.828125 1237.476562 227.136719 C 1237.476562 216.449219 1241.839844 205.433594 1249.585938 197.800781 C 1251.546875 195.835938 1253.402344 194.199219 1255.910156 192.890625 C 1258.089844 191.253906 1260.273438 190.164062 1263 189.074219 C 1265.507812 187.984375 1267.90625 187.109375 1270.632812 186.566406 C 1283.832031 184.058594 1298.117188 188.527344 1307.714844 197.800781 C 1315.460938 205.433594 1319.824219 216.230469 1319.824219 227.136719 C 1319.824219 238.042969 1315.460938 248.515625 1307.714844 256.257812 C 1299.972656 263.675781 1289.285156 268.039062 1278.597656 268.039062 Z M 1278.597656 268.039062 " fill-opacity="1" fill-rule="nonzero"/><path fill="#000000" d="M 232.4375 268.039062 C 221.746094 268.039062 211.058594 263.675781 203.316406 256.257812 C 195.679688 248.625 191.207031 237.828125 191.207031 227.136719 C 191.207031 216.449219 195.570312 205.433594 203.316406 197.800781 C 212.914062 188.417969 227.199219 184.058594 240.617188 186.566406 C 243.125 187.109375 245.851562 187.984375 248.359375 189.074219 C 250.867188 190.164062 253.265625 191.253906 255.449219 192.890625 C 257.628906 194.308594 259.8125 195.945312 261.445312 197.800781 C 269.410156 205.433594 273.773438 216.230469 273.773438 227.136719 C 273.773438 229.644531 273.554688 232.371094 272.898438 235.101562 C 272.355469 237.609375 271.480469 240.335938 270.390625 242.84375 C 269.300781 245.351562 268.210938 247.75 266.574219 249.933594 C 265.15625 252.113281 263.300781 254.296875 261.339844 256.257812 C 259.703125 257.894531 257.519531 259.859375 255.339844 261.167969 C 253.160156 262.800781 250.648438 263.894531 248.25 264.984375 C 245.742188 266.074219 243.015625 266.945312 240.507812 267.164062 C 237.78125 267.710938 235.054688 268.039062 232.328125 268.039062 Z M 232.4375 268.039062 " fill-opacity="1" fill-rule="nonzero"/><path fill="#000000" d="M 232.4375 1314.199219 C 221.746094 1314.199219 211.058594 1309.835938 203.316406 1302.089844 C 195.679688 1294.347656 191.207031 1283.660156 191.207031 1272.972656 C 191.207031 1262.28125 195.570312 1251.59375 203.316406 1243.851562 C 212.914062 1234.253906 227.199219 1229.890625 240.617188 1232.617188 C 243.125 1233.164062 245.851562 1234.035156 248.359375 1234.796875 C 250.867188 1235.890625 253.265625 1237.304688 255.449219 1238.617188 C 257.628906 1240.25 259.8125 1241.886719 261.445312 1243.851562 C 269.410156 1251.59375 273.773438 1262.28125 273.773438 1272.972656 C 273.773438 1275.699219 273.554688 1278.425781 272.898438 1280.933594 C 272.355469 1283.660156 271.480469 1286.167969 270.390625 1288.566406 C 269.300781 1291.074219 268.210938 1293.476562 266.574219 1295.765625 C 265.15625 1297.945312 263.300781 1300.128906 261.339844 1302.089844 C 259.703125 1304.054688 257.519531 1305.691406 255.339844 1307.328125 C 253.160156 1308.746094 250.648438 1310.054688 248.25 1310.925781 C 245.742188 1312.015625 243.015625 1312.890625 240.507812 1313.433594 C 237.78125 1313.980469 235.054688 1314.199219 232.328125 1314.199219 Z M 232.4375 1314.199219 " fill-opacity="1" fill-rule="nonzero"/><g clip-path="url(#807499b330)"><path fill="#000000" d="M 1348.945312 1494.375 L 1170.949219 1494.375 C 1142.808594 1494.375 1116.523438 1480.523438 1100.601562 1457.292969 L 412.832031 1456.09375 C 394.617188 1480.523438 368.222656 1494.375 340.082031 1494.375 L 162.199219 1494.375 C 78.980469 1494.375 11.25 1426.644531 11.25 1343.425781 L 11.25 1165.433594 C 11.25 1137.292969 25.101562 1111.007812 48.332031 1095.085938 L 49.640625 407.316406 C 25.210938 388.992188 11.359375 362.707031 11.359375 334.566406 L 11.359375 156.570312 C 11.25 73.355469 78.980469 5.625 162.199219 5.625 L 340.191406 5.625 C 368.332031 5.625 394.617188 19.476562 410.539062 42.707031 L 1098.308594 43.90625 C 1116.632812 19.367188 1142.917969 5.625 1170.949219 5.625 L 1348.945312 5.625 C 1432.160156 5.625 1499.890625 73.355469 1499.890625 156.570312 L 1499.890625 334.566406 C 1499.890625 362.707031 1486.039062 388.992188 1462.808594 404.914062 L 1461.609375 1092.683594 C 1461.609375 1093.667969 1462.046875 1094.539062 1462.917969 1095.085938 L 1482.003906 1108.171875 C 1493.238281 1115.808594 1499.890625 1128.566406 1499.890625 1142.199219 L 1499.890625 1343.425781 C 1499.890625 1426.644531 1432.160156 1494.375 1348.945312 1494.375 Z M 412.832031 1373.640625 L 1098.308594 1373.640625 C 1126.449219 1373.640625 1152.734375 1387.492188 1168.65625 1410.722656 L 1348.945312 1411.921875 C 1386.789062 1411.921875 1417.546875 1381.164062 1417.546875 1343.320312 L 1416.238281 1163.03125 C 1393.007812 1147.109375 1379.15625 1120.824219 1379.15625 1092.683594 L 1379.15625 407.316406 C 1379.15625 379.175781 1393.007812 352.890625 1416.238281 336.96875 L 1417.546875 156.570312 C 1417.546875 118.726562 1386.789062 87.96875 1348.945312 87.96875 L 1170.949219 87.96875 C 1152.625 112.402344 1126.339844 126.25 1098.308594 126.25 L 412.941406 126.25 C 384.800781 126.25 358.515625 112.402344 342.59375 89.167969 L 162.304688 87.859375 C 124.460938 87.859375 93.703125 118.617188 93.703125 156.464844 L 93.703125 334.566406 C 118.132812 352.78125 131.984375 379.175781 131.984375 407.316406 L 131.984375 1092.683594 C 131.984375 1120.824219 118.132812 1147.109375 94.902344 1163.03125 L 93.703125 1343.320312 C 93.703125 1381.164062 124.460938 1411.921875 162.304688 1411.921875 L 340.191406 1411.921875 C 358.515625 1387.382812 384.800781 1373.640625 412.941406 1373.640625 Z M 412.832031 1373.640625 " fill-opacity="1" fill-rule="nonzero"/></g></svg>