<svg xmlns="http://www.w3.org/2000/svg" xmlns:xlink="http://www.w3.org/1999/xlink" width="2000" zoomAndPan="magnify" viewBox="0 0 1500 1499.999933" height="2000" preserveAspectRatio="xMidYMid meet" version="1.0"><defs><clipPath id="5a429e664a"><path d="M 304.6875 0 L 1195.6875 0 L 1195.6875 1500 L 304.6875 1500 Z M 304.6875 0 " clip-rule="nonzero"/></clipPath></defs><g clip-path="url(#5a429e664a)"><path fill="#000000" d="M 1194.375 305.863281 C 1189.972656 277.667969 1176.019531 251.351562 1152.886719 227.722656 C 1137.757812 212.671875 1121.765625 198.597656 1104.90625 185.511719 C 1071.753906 159.164062 1052.859375 129.015625 1047.175781 93.425781 C 1040.117188 50.4375 1014.527344 22.644531 970.953125 10.746094 C 943.890625 3.429688 916.34375 -0.144531 888.308594 0.0273438 C 866.988281 0.101562 845.804688 1.847656 824.761719 5.269531 C 775.773438 12.964844 744.671875 41.363281 732.265625 89.726562 C 730.289062 97.28125 727.835938 104.671875 724.902344 111.910156 C 713.539062 140.609375 690.507812 159.195312 669.460938 173.613281 C 664.046875 177.3125 658.566406 180.976562 653.117188 184.636719 C 636.308594 195.863281 619.09375 207.457031 603.289062 220.363281 C 561.902344 254.207031 548.621094 297.359375 563.851562 348.613281 C 567.214844 359.535156 571.078125 370.460938 574.914062 381.011719 C 577.199219 387.296875 579.550781 393.785156 581.636719 400.203125 C 585.753906 412.375 588.59375 424.835938 590.15625 437.585938 C 591.71875 450.339844 591.972656 463.117188 590.917969 475.921875 C 589 502.171875 578.746094 526.03125 568.828125 549.121094 C 561.890625 564.292969 556.050781 579.878906 551.308594 595.871094 C 542.992188 592.832031 534.46875 590.554688 525.738281 589.046875 C 517.011719 587.539062 508.21875 586.824219 499.363281 586.898438 C 494.722656 586.898438 489.882812 586.898438 484.9375 587.4375 C 466.246094 588.945312 447.765625 591.820312 429.5 596.0625 C 411.234375 600.304688 393.378906 605.863281 375.933594 612.742188 C 356.097656 620.339844 335.585938 629.546875 318.777344 645.277344 C 317.457031 646.449219 316.21875 647.699219 315.058594 649.027344 C 313.898438 650.355469 312.828125 651.75 311.84375 653.214844 C 310.863281 654.675781 309.976562 656.195312 309.183594 657.773438 C 308.394531 659.347656 307.707031 660.96875 307.121094 662.628906 C 306.535156 664.292969 306.054688 665.984375 305.683594 667.710938 C 305.3125 669.433594 305.050781 671.171875 304.902344 672.929688 C 304.75 674.683594 304.710938 676.445312 304.78125 678.207031 C 304.851562 679.96875 305.035156 681.714844 305.328125 683.457031 C 305.664062 685.101562 306.109375 686.71875 306.65625 688.304688 C 307.203125 689.894531 307.847656 691.441406 308.59375 692.945312 C 309.339844 694.453125 310.175781 695.902344 311.109375 697.300781 C 312.039062 698.699219 313.058594 700.03125 314.160156 701.300781 C 315.261719 702.570312 316.441406 703.761719 317.695312 704.878906 C 318.953125 705.992188 320.273438 707.027344 321.660156 707.972656 C 323.050781 708.917969 324.492188 709.773438 325.988281 710.535156 C 327.488281 711.296875 329.027344 711.960938 330.609375 712.527344 C 338.273438 715.714844 346.167969 718.15625 354.292969 719.851562 C 362.417969 721.546875 370.628906 722.464844 378.925781 722.609375 C 386.648438 722.621094 394.269531 721.757812 401.789062 720.019531 C 401.789062 722.542969 401.789062 724.960938 401.621094 727.347656 C 401.285156 733.027344 401.410156 738.695312 401.992188 744.355469 C 404.007812 759.277344 399.300781 768.082031 386.726562 772.886719 C 384.417969 773.886719 382.277344 775.164062 380.304688 776.71875 C 379.496094 777.324219 378.65625 777.929688 377.816406 778.464844 C 350.648438 796.347656 333.097656 822.5625 328.425781 852.40625 C 323.75 882.25 332.324219 912.597656 352.667969 937.972656 C 371.394531 961.5 398.058594 976.015625 434.132812 982.738281 C 492.773438 993.660156 552.621094 1003.574219 610.519531 1013.152344 L 657.894531 1021.050781 C 668.449219 1022.800781 679.210938 1024.109375 690.609375 1025.453125 L 706.882812 1027.4375 C 706.175781 1029.453125 705.636719 1031.503906 705.097656 1033.488281 C 703.855469 1038.058594 702.78125 1041.992188 700.390625 1043.570312 C 688.457031 1050.863281 682.574219 1059.902344 681.832031 1072.035156 C 681.160156 1083.597656 680.511719 1095.148438 679.882812 1106.6875 C 679.433594 1114.886719 678.976562 1123.085938 678.503906 1131.289062 C 677.945312 1141.304688 677.347656 1151.328125 676.722656 1161.367188 L 675.980469 1173.902344 L 659.003906 1169.601562 C 645.554688 1166.242188 632.878906 1162.878906 619.867188 1160.492188 C 603.199219 1157.359375 586.390625 1155.714844 569.433594 1155.554688 L 568.289062 1155.554688 C 551.007812 1155.554688 536.347656 1168.023438 535.640625 1183.113281 C 535.621094 1185.898438 535.328125 1188.65625 534.761719 1191.382812 C 534.195312 1194.113281 533.367188 1196.757812 532.273438 1199.320312 C 531.183594 1201.886719 529.851562 1204.316406 528.28125 1206.617188 C 526.707031 1208.917969 524.925781 1211.042969 522.933594 1212.992188 C 521.101562 1215.144531 518.859375 1216.714844 516.207031 1217.695312 C 509.078125 1219.410156 501.75 1221.054688 494.6875 1222.535156 C 485.171875 1224.617188 475.324219 1226.738281 465.707031 1229.257812 L 462.34375 1230.199219 C 434.808594 1237.390625 406.363281 1244.851562 378.792969 1253.523438 C 362.550781 1258.628906 353.777344 1271.535156 354.144531 1289.820312 C 354.144531 1294.085938 354.582031 1298.289062 354.953125 1302.757812 C 354.953125 1304.707031 355.289062 1306.691406 355.425781 1308.742188 L 353.710938 1310.085938 C 352.027344 1311.394531 350.113281 1312.839844 348.261719 1314.355469 C 347.347656 1315.042969 346.453125 1315.761719 345.582031 1316.507812 C 344.710938 1317.25 343.867188 1318.023438 343.042969 1318.820312 C 342.21875 1319.617188 341.421875 1320.441406 340.652344 1321.289062 C 339.878906 1322.132812 339.132812 1323.003906 338.417969 1323.898438 C 337.699219 1324.792969 337.007812 1325.707031 336.347656 1326.640625 C 335.6875 1327.578125 335.054688 1328.535156 334.453125 1329.507812 C 333.851562 1330.484375 333.28125 1331.476562 332.742188 1332.488281 C 332.199219 1333.5 331.691406 1334.523438 331.214844 1335.566406 C 330.738281 1336.609375 330.296875 1337.664062 329.886719 1338.734375 C 329.476562 1339.804688 329.097656 1340.886719 328.753906 1341.980469 C 328.410156 1343.070312 328.101562 1344.175781 327.824219 1345.285156 C 327.550781 1346.398438 327.3125 1347.519531 327.105469 1348.644531 C 326.898438 1349.773438 326.730469 1350.90625 326.59375 1352.042969 C 326.457031 1353.179688 326.359375 1354.324219 326.292969 1355.464844 C 326.230469 1356.609375 326.199219 1357.753906 326.207031 1358.902344 C 326.214844 1360.046875 326.253906 1361.191406 326.332031 1362.335938 C 326.410156 1363.476562 326.523438 1364.617188 326.671875 1365.753906 C 326.820312 1366.890625 327.003906 1368.019531 327.222656 1369.144531 C 327.441406 1370.269531 327.695312 1371.386719 327.984375 1372.496094 C 328.269531 1373.605469 328.59375 1374.703125 328.949219 1375.792969 C 329.304688 1376.882812 329.695312 1377.957031 330.117188 1379.023438 C 330.539062 1380.089844 330.996094 1381.140625 331.484375 1382.175781 C 331.972656 1383.210938 332.492188 1384.234375 333.042969 1385.238281 C 333.597656 1386.242188 334.179688 1387.226562 334.792969 1388.195312 C 335.40625 1389.164062 336.046875 1390.113281 336.71875 1391.042969 C 337.390625 1391.96875 338.089844 1392.875 338.816406 1393.761719 C 339.546875 1394.648438 340.300781 1395.507812 341.082031 1396.347656 C 341.863281 1397.183594 342.671875 1397.996094 343.503906 1398.785156 C 344.335938 1399.574219 345.191406 1400.335938 346.070312 1401.070312 C 346.949219 1401.804688 347.851562 1402.511719 348.773438 1403.191406 C 349.695312 1403.871094 350.640625 1404.519531 351.605469 1405.140625 C 352.566406 1405.761719 353.550781 1406.351562 354.550781 1406.910156 C 361.164062 1410.8125 368.183594 1413.753906 375.605469 1415.726562 C 383.027344 1417.703125 390.578125 1418.640625 398.257812 1418.539062 L 401.082031 1418.539062 C 403.183594 1418.488281 405.277344 1418.328125 407.359375 1418.054688 C 409.445312 1417.785156 411.507812 1417.402344 413.550781 1416.910156 C 415.59375 1416.417969 417.605469 1415.820312 419.585938 1415.113281 C 421.566406 1414.40625 423.503906 1413.597656 425.394531 1412.6875 C 427.289062 1411.773438 429.128906 1410.765625 430.914062 1409.660156 C 432.699219 1408.550781 434.421875 1407.351562 436.082031 1406.0625 C 437.738281 1404.773438 439.324219 1403.398438 440.835938 1401.9375 C 442.351562 1400.480469 443.78125 1398.945312 445.128906 1397.332031 C 446.417969 1395.792969 447.617188 1394.183594 448.734375 1392.511719 C 449.847656 1390.839844 450.871094 1389.113281 451.796875 1387.332031 C 452.726562 1385.550781 453.554688 1383.722656 454.285156 1381.851562 C 455.011719 1379.980469 455.640625 1378.074219 456.164062 1376.132812 C 456.6875 1374.195312 457.105469 1372.230469 457.417969 1370.246094 C 457.730469 1368.261719 457.933594 1366.265625 458.027344 1364.261719 C 458.125 1362.253906 458.109375 1360.246094 457.988281 1358.242188 C 457.867188 1356.238281 457.636719 1354.246094 457.300781 1352.265625 C 455.671875 1344.375 452.992188 1336.855469 449.265625 1329.710938 C 447.886719 1326.753906 446.472656 1323.730469 445.230469 1320.738281 L 452.324219 1319.191406 C 458.679688 1317.816406 465.773438 1316.269531 472.96875 1315.261719 L 480.902344 1314.152344 C 522.933594 1308.203125 566.40625 1302.085938 609.242188 1296.742188 C 630.324219 1294.085938 651.402344 1293.113281 667.441406 1292.574219 L 670.097656 1292.574219 C 682.304688 1292.574219 685.261719 1295.9375 685.832031 1310.355469 C 686.035156 1314.925781 685.832031 1319.628906 685.832031 1324.132812 C 685.832031 1329.8125 685.832031 1335.695312 686.136719 1341.441406 C 686.84375 1352.027344 687.984375 1362.785156 689.128906 1373.136719 C 689.597656 1377.605469 690.070312 1382.042969 690.507812 1386.578125 C 690.238281 1388.191406 687.917969 1389.9375 685.664062 1391.921875 L 684.589844 1392.796875 C 683.121094 1394.039062 681.714844 1395.355469 680.375 1396.738281 C 679.039062 1398.125 677.773438 1399.570312 676.578125 1401.082031 C 675.382812 1402.59375 674.269531 1404.160156 673.230469 1405.78125 C 672.191406 1407.40625 671.238281 1409.074219 670.367188 1410.792969 C 669.496094 1412.507812 668.714844 1414.265625 668.019531 1416.0625 C 667.324219 1417.859375 666.722656 1419.683594 666.207031 1421.539062 C 665.695312 1423.394531 665.277344 1425.273438 664.953125 1427.171875 C 664.625 1429.066406 664.398438 1430.976562 664.261719 1432.898438 C 664.128906 1434.820312 664.089844 1436.742188 664.148438 1438.667969 C 664.203125 1440.589844 664.359375 1442.507812 664.609375 1444.417969 C 664.855469 1446.328125 665.199219 1448.21875 665.636719 1450.09375 C 666.078125 1451.96875 666.609375 1453.816406 667.230469 1455.640625 C 667.851562 1457.460938 668.566406 1459.246094 669.367188 1461 C 670.167969 1462.75 671.054688 1464.457031 672.027344 1466.117188 C 673 1467.78125 674.050781 1469.390625 675.183594 1470.949219 C 676.316406 1472.503906 677.523438 1474.003906 678.804688 1475.4375 C 692.660156 1490.730469 711.65625 1498.761719 736.90625 1499.941406 L 740.269531 1499.941406 C 742.414062 1499.984375 744.554688 1499.917969 746.691406 1499.734375 C 748.832031 1499.554688 750.953125 1499.257812 753.058594 1498.851562 C 755.164062 1498.445312 757.242188 1497.925781 759.292969 1497.296875 C 761.347656 1496.667969 763.359375 1495.933594 765.332031 1495.089844 C 767.304688 1494.25 769.226562 1493.304688 771.097656 1492.257812 C 772.972656 1491.210938 774.78125 1490.066406 776.535156 1488.828125 C 778.285156 1487.589844 779.964844 1486.261719 781.574219 1484.84375 C 783.183594 1483.425781 784.714844 1481.925781 786.164062 1480.347656 C 787.621094 1478.671875 788.984375 1476.925781 790.253906 1475.105469 C 791.523438 1473.289062 792.695312 1471.40625 793.765625 1469.464844 C 794.835938 1467.519531 795.800781 1465.527344 796.65625 1463.480469 C 797.515625 1461.433594 798.261719 1459.347656 798.898438 1457.222656 C 799.535156 1455.097656 800.054688 1452.945312 800.464844 1450.765625 C 800.871094 1448.582031 801.160156 1446.386719 801.332031 1444.175781 C 801.503906 1441.964844 801.5625 1439.75 801.5 1437.53125 C 801.4375 1435.3125 801.253906 1433.105469 800.957031 1430.90625 C 799.410156 1416.726562 792.148438 1404.257812 779.339844 1393.9375 C 780.347656 1389.601562 781.289062 1385.4375 782.230469 1381.402344 C 784.3125 1372.394531 786.296875 1363.894531 788.046875 1355.390625 C 789.792969 1346.886719 791.578125 1337.644531 793.222656 1329.007812 C 794.636719 1321.613281 796.117188 1313.984375 797.628906 1306.488281 C 797.742188 1305.667969 797.921875 1304.863281 798.171875 1304.078125 C 798.425781 1303.289062 798.742188 1302.527344 799.125 1301.792969 C 799.507812 1301.058594 799.949219 1300.363281 800.453125 1299.707031 C 800.957031 1299.050781 801.515625 1298.441406 802.125 1297.882812 C 802.734375 1297.324219 803.386719 1296.820312 804.082031 1296.371094 C 804.777344 1295.925781 805.507812 1295.542969 806.273438 1295.21875 C 807.035156 1294.898438 807.820312 1294.648438 808.628906 1294.460938 C 809.433594 1294.277344 810.25 1294.164062 811.078125 1294.121094 C 817.800781 1293.617188 825.164062 1293.113281 832.394531 1293.113281 C 836.484375 1293.085938 840.5625 1293.277344 844.632812 1293.683594 C 882.492188 1297.515625 916.789062 1301.550781 949.433594 1305.917969 C 971.894531 1308.941406 994.019531 1312.4375 1017.421875 1316 C 1027.28125 1317.589844 1037.28125 1319.160156 1047.410156 1320.707031 C 1045.855469 1322.414062 1044.402344 1324.203125 1043.050781 1326.074219 C 1041.695312 1327.945312 1040.453125 1329.882812 1039.316406 1331.894531 C 1038.179688 1333.90625 1037.164062 1335.972656 1036.257812 1338.097656 C 1035.355469 1340.222656 1034.578125 1342.394531 1033.917969 1344.605469 C 1033.257812 1346.820312 1032.726562 1349.0625 1032.320312 1351.335938 C 1031.914062 1353.605469 1031.636719 1355.894531 1031.488281 1358.199219 C 1031.339844 1360.503906 1031.320312 1362.808594 1031.429688 1365.113281 C 1031.539062 1367.421875 1031.777344 1369.714844 1032.148438 1371.992188 C 1032.480469 1374.003906 1032.933594 1375.988281 1033.5 1377.945312 C 1034.070312 1379.902344 1034.75 1381.820312 1035.539062 1383.699219 C 1036.332031 1385.578125 1037.234375 1387.402344 1038.238281 1389.175781 C 1039.246094 1390.949219 1040.351562 1392.65625 1041.558594 1394.300781 C 1042.761719 1395.945312 1044.0625 1397.511719 1045.453125 1399.003906 C 1046.839844 1400.496094 1048.3125 1401.898438 1049.867188 1403.21875 C 1051.421875 1404.539062 1053.046875 1405.761719 1054.746094 1406.890625 C 1056.445312 1408.019531 1058.203125 1409.046875 1060.019531 1409.96875 C 1065.855469 1413.023438 1071.964844 1415.359375 1078.351562 1416.972656 C 1084.738281 1418.585938 1091.226562 1419.433594 1097.8125 1419.515625 C 1101.601562 1419.476562 1105.371094 1419.167969 1109.117188 1418.59375 C 1112.863281 1418.015625 1116.550781 1417.179688 1120.175781 1416.078125 C 1123.804688 1414.976562 1127.335938 1413.625 1130.769531 1412.023438 C 1134.203125 1410.421875 1137.507812 1408.582031 1140.679688 1406.507812 C 1144.410156 1404.058594 1147.820312 1401.222656 1150.910156 1398.007812 C 1154.003906 1394.789062 1156.703125 1391.273438 1159.003906 1387.453125 C 1173.867188 1363.152344 1167.980469 1334.351562 1143.976562 1314.117188 C 1142.644531 1313.070312 1141.570312 1311.800781 1140.761719 1310.3125 C 1139.949219 1308.824219 1139.460938 1307.234375 1139.300781 1305.546875 C 1144.042969 1275.03125 1133.417969 1257.789062 1104.839844 1249.65625 C 1073.503906 1240.75 1041.460938 1232.484375 1010.425781 1224.519531 L 997.414062 1221.15625 C 995.421875 1220.5625 993.609375 1219.617188 991.980469 1218.320312 C 990.351562 1217.027344 989.027344 1215.472656 988 1213.664062 L 987.363281 1212.824219 C 979.730469 1202.738281 977.441406 1191.816406 975.425781 1179.617188 C 974.683594 1177.125 973.597656 1174.792969 972.175781 1172.621094 C 970.75 1170.445312 969.042969 1168.519531 967.054688 1166.847656 C 965.117188 1164.894531 963.007812 1163.148438 960.726562 1161.617188 C 958.445312 1160.082031 956.03125 1158.785156 953.492188 1157.730469 C 950.953125 1156.675781 948.335938 1155.878906 945.636719 1155.34375 C 942.941406 1154.804688 940.214844 1154.539062 937.464844 1154.546875 C 936.1875 1154.546875 934.910156 1154.546875 933.632812 1154.714844 C 916.417969 1156.191406 898.5625 1158.679688 880.507812 1162.074219 C 865.78125 1164.863281 851.457031 1168.191406 836.296875 1171.71875 L 817.667969 1176.324219 C 817.535156 1174.777344 817.398438 1173.265625 817.265625 1171.785156 C 816.960938 1168.054688 816.625 1164.527344 816.523438 1160.964844 L 816.15625 1147.824219 C 815.515625 1127.121094 814.878906 1105.710938 814.574219 1084.671875 C 814.339844 1067.0625 811.210938 1050.222656 790.367188 1045.855469 L 790.367188 1034.160156 C 796.285156 1033.519531 802.269531 1033.050781 808.085938 1032.613281 C 822.160156 1031.960938 836.070312 1030.078125 849.8125 1026.96875 C 852.957031 1026.089844 856.164062 1025.621094 859.425781 1025.554688 C 866.957031 1025.554688 872.40625 1028.917969 877.71875 1036.511719 C 877.886719 1036.824219 878.023438 1037.148438 878.121094 1037.488281 L 878.355469 1038.160156 C 877.671875 1038.96875 877.054688 1039.824219 876.5 1040.730469 C 875.949219 1041.632812 875.46875 1042.574219 875.0625 1043.554688 C 874.652344 1044.53125 874.324219 1045.535156 874.070312 1046.566406 C 873.816406 1047.59375 873.644531 1048.636719 873.550781 1049.691406 C 873.457031 1050.75 873.449219 1051.804688 873.515625 1052.863281 C 873.585938 1053.921875 873.738281 1054.964844 873.96875 1056 C 874.199219 1057.035156 874.507812 1058.046875 874.894531 1059.03125 C 875.28125 1060.019531 875.738281 1060.96875 876.273438 1061.886719 C 882.828125 1074.925781 893.589844 1082.421875 905.792969 1082.421875 C 908.019531 1082.339844 910.21875 1082.058594 912.390625 1081.578125 C 914.566406 1081.097656 916.679688 1080.429688 918.730469 1079.566406 C 920.785156 1078.707031 922.742188 1077.667969 924.609375 1076.453125 C 926.472656 1075.238281 928.214844 1073.867188 929.832031 1072.339844 C 937.96875 1065.246094 940.558594 1057.617188 937.734375 1048.980469 C 934.371094 1038.898438 928.554688 1025.859375 914.871094 1025.859375 L 914.367188 1025.859375 C 903.675781 1025.859375 898.96875 1020.75 893.789062 1013.390625 L 896.445312 1012.28125 C 898.910156 1011.371094 901.273438 1010.25 903.539062 1008.917969 C 908.058594 1006.035156 912.890625 1003.847656 918.039062 1002.355469 C 923.1875 1000.863281 928.441406 1000.128906 933.800781 1000.148438 C 940.777344 1000.242188 947.636719 1001.195312 954.378906 1003.003906 C 961.148438 1004.746094 968.03125 1005.632812 975.023438 1005.660156 C 977.75 1005.742188 980.46875 1005.640625 983.183594 1005.355469 C 985.894531 1005.066406 988.578125 1004.597656 991.226562 1003.945312 C 993.875 1003.292969 996.46875 1002.46875 999.003906 1001.460938 C 1001.539062 1000.457031 1003.996094 999.289062 1006.375 997.949219 C 1008.753906 996.609375 1011.027344 995.117188 1013.203125 993.46875 C 1015.375 991.820312 1017.425781 990.035156 1019.359375 988.105469 C 1021.289062 986.179688 1023.078125 984.132812 1024.730469 981.960938 C 1026.382812 979.789062 1027.878906 977.519531 1029.222656 975.144531 C 1033.226562 967.328125 1036.097656 959.117188 1037.828125 950.507812 C 1038.9375 945.972656 1040.117188 941.265625 1041.628906 936.828125 C 1042.164062 934.777344 1042.960938 932.832031 1044.023438 930.996094 C 1045.085938 929.160156 1046.371094 927.496094 1047.882812 926.007812 C 1075.21875 904.699219 1093.910156 884.535156 1106.722656 862.554688 C 1154.296875 780.917969 1169.125 693.132812 1150.800781 601.585938 C 1143.203125 563.472656 1135.90625 519.042969 1146.328125 474.140625 C 1152.582031 447.085938 1164.890625 421.980469 1176.589844 397.683594 L 1178.875 393.246094 C 1193.570312 363.433594 1198.746094 334.0625 1194.375 305.863281 Z M 995.027344 816.007812 C 995.027344 801.015625 994.726562 785.492188 994.726562 770.230469 C 994.726562 757.292969 999.230469 752.488281 1013.316406 750.636719 L 1013.519531 751.109375 C 1004.070312 762.804688 1004.777344 776.214844 1005.449219 789.1875 C 1005.652344 792.785156 1005.820312 796.480469 1005.820312 800.078125 C 1005.6875 816.1875 1005.585938 832.273438 1005.519531 848.339844 C 1005.519531 876.671875 1005.25 905.941406 1004.777344 934.746094 C 1004.417969 940.941406 1003.398438 947.023438 1001.71875 952.996094 C 1001.078125 955.71875 1000.40625 958.539062 999.871094 961.296875 C 998.421875 968.65625 994.085938 973.429688 985.511719 977.09375 C 994.320312 949.265625 994.726562 921.941406 995.128906 895.523438 C 995.53125 869.109375 995.261719 842.085938 995.027344 816.007812 Z M 1121.046875 591.839844 C 1136.949219 660.902344 1131.636719 732.691406 1105.207031 805.183594 C 1104.402344 807.371094 1103.425781 809.488281 1102.148438 812.175781 C 1101.746094 813.050781 1101.34375 813.957031 1100.871094 814.929688 C 1094.484375 795.574219 1084.058594 782.0625 1068.796875 773.695312 L 1070.609375 763.207031 C 1072.863281 750.4375 1074.949219 738.371094 1077.335938 726.238281 C 1077.617188 725.386719 1078.050781 724.617188 1078.632812 723.929688 C 1079.214844 723.246094 1079.902344 722.691406 1080.699219 722.273438 C 1083.355469 720.964844 1086.089844 719.84375 1088.902344 718.910156 L 1091.960938 717.769531 C 1111.027344 710.511719 1122.222656 694.984375 1121.648438 676.230469 C 1121.144531 656.636719 1110.859375 644.234375 1091.019531 639.429688 C 1076.964844 636.066406 1071.957031 629.949219 1071.082031 615.398438 C 1070.410156 604.308594 1068.894531 593.046875 1067.449219 582.160156 C 1065.394531 568.722656 1064.082031 555.210938 1063.515625 541.628906 C 1062.542969 498.171875 1074.78125 456.394531 1099.863281 417.277344 L 1103.226562 412.101562 C 1111.699219 398.992188 1120.472656 385.414062 1127.734375 371.367188 C 1146.832031 334.398438 1149.085938 301.292969 1134.460938 270.238281 C 1124.375 248.832031 1107.359375 232.933594 1090.75 217.539062 L 1089.203125 216.09375 L 1079.722656 207.390625 C 1060.761719 189.980469 1041.023438 171.898438 1028.214844 147.902344 C 1018.5625 129.824219 1014.226562 109.691406 1010.425781 91.878906 C 1008.105469 81.125 1004.980469 70.636719 1001.953125 60.453125 C 1000.945312 57.09375 999.96875 53.734375 999.027344 50.371094 C 1003.832031 55.15625 1007.890625 60.507812 1011.207031 66.421875 C 1014.519531 72.339844 1016.960938 78.59375 1018.53125 85.191406 C 1021.285156 95.273438 1023.539062 104.582031 1025.253906 113.523438 C 1031.339844 142.726562 1046.636719 167.597656 1072.058594 189.542969 C 1077.167969 193.949219 1082.445312 198.382812 1087.523438 202.6875 C 1100.601562 213.710938 1114.152344 225.136719 1126.527344 237.300781 C 1171.917969 282.070312 1179.785156 326.363281 1152.71875 385.449219 C 1150.699219 389.851562 1148.648438 394.289062 1146.597656 398.691406 C 1137.425781 417.429688 1129.390625 436.640625 1122.492188 456.328125 C 1109.511719 496.625 1109.007812 539.609375 1121.046875 591.839844 Z M 603.929688 381.550781 C 596.648438 363.566406 590.539062 345.195312 585.605469 326.433594 C 584.785156 323.328125 584.199219 320.175781 583.851562 316.984375 C 583.5 313.792969 583.390625 310.589844 583.519531 307.378906 C 583.648438 304.171875 584.011719 300.988281 584.617188 297.832031 C 585.21875 294.679688 586.054688 291.585938 587.117188 288.554688 C 585.773438 320.820312 600.566406 348.210938 615.089844 374.726562 L 617.242188 378.691406 C 653.757812 446.113281 654.632812 513.128906 619.898438 583.707031 C 600.363281 623.328125 592.464844 655.222656 594.3125 687.152344 C 595.035156 696.140625 596.382812 705.035156 598.347656 713.835938 C 599.085938 717.535156 599.828125 721.367188 600.5 725.164062 C 597.136719 725.363281 593.773438 725.53125 591.019531 725.53125 C 577.164062 725.53125 575.25 722.003906 570.84375 702.007812 C 569.753906 696.71875 568.949219 691.382812 568.421875 686.007812 C 568.15625 683.589844 567.851562 681.203125 567.515625 678.785156 C 567.144531 676.710938 567.015625 674.621094 567.125 672.515625 C 567.234375 670.414062 567.578125 668.347656 568.164062 666.324219 C 568.746094 664.300781 569.550781 662.367188 570.578125 660.527344 C 571.601562 658.6875 572.824219 656.984375 574.238281 655.425781 C 584.328125 643.832031 581.605469 630.152344 577.265625 617.113281 C 576.53125 615.238281 576.105469 613.296875 575.984375 611.285156 C 575.863281 609.277344 576.054688 607.296875 576.558594 605.347656 C 586.242188 579.203125 595.253906 555.976562 604.097656 534.367188 C 624.472656 484.390625 624.40625 434.382812 603.929688 381.550781 Z M 938.441406 749.496094 C 930.074219 749.753906 921.761719 749.203125 913.5 747.839844 C 905.242188 746.476562 897.191406 744.328125 889.351562 741.394531 C 886.773438 739.910156 884.734375 737.882812 883.230469 735.3125 L 881.652344 733.195312 L 909.457031 737.328125 L 943.519531 742.4375 L 944.089844 749.460938 C 942.140625 749.496094 940.15625 749.496094 938.441406 749.496094 Z M 721.84375 571.371094 L 725.878906 536.753906 L 832.023438 542.566406 L 977.8125 550.566406 L 976.9375 567.070312 C 975.628906 591.199219 974.28125 616.136719 972.734375 640.671875 C 972.464844 641.75 971.980469 642.71875 971.28125 643.582031 C 970.582031 644.445312 969.730469 645.121094 968.734375 645.613281 C 950.847656 652.90625 932.859375 659.894531 915.441406 666.652344 C 913.910156 667.191406 912.328125 667.4375 910.703125 667.390625 L 910.296875 667.390625 C 844.058594 666.109375 778.144531 660.765625 712.5625 651.359375 Z M 732.671875 299.476562 C 731.554688 299.648438 730.433594 299.738281 729.308594 299.746094 C 728.015625 299.78125 726.734375 299.671875 725.46875 299.417969 C 724.199219 299.164062 722.972656 298.777344 721.792969 298.25 C 720.613281 297.722656 719.503906 297.074219 718.46875 296.300781 C 717.433594 295.527344 716.496094 294.648438 715.65625 293.664062 C 714.722656 292.417969 713.9375 291.085938 713.296875 289.664062 C 712.660156 288.246094 712.183594 286.769531 711.875 285.246094 C 711.5625 283.71875 711.421875 282.179688 711.453125 280.621094 C 711.484375 279.066406 711.6875 277.53125 712.058594 276.019531 C 712.847656 271.484375 714.1875 267.113281 716.078125 262.914062 C 717.96875 258.714844 720.347656 254.816406 723.222656 251.214844 C 731.691406 241.992188 740.660156 233.277344 750.121094 225.070312 C 754.054688 221.472656 758.121094 217.777344 762.257812 213.878906 L 798.941406 266.542969 L 808.792969 280.625 L 808.085938 282.640625 L 807.378906 284.625 C 800.117188 286.101562 792.789062 287.714844 785.660156 289.292969 C 768.277344 293.09375 750.421875 296.992188 732.671875 299.578125 Z M 992.101562 419.425781 L 978.382812 536.519531 L 850.617188 529.328125 L 727.726562 522.402344 L 728.332031 507.113281 L 732.164062 408.90625 C 757.046875 407.09375 782.835938 406.183594 808.824219 406.183594 C 870.21875 406.503906 931.3125 410.953125 992.101562 419.527344 Z M 1015.636719 308.148438 C 999.605469 305.152344 983.78125 301.296875 968.164062 296.585938 C 962.011719 294.839844 955.65625 293.226562 949.402344 291.410156 C 948.683594 291.285156 948.027344 291.003906 947.4375 290.574219 C 946.847656 290.144531 946.378906 289.605469 946.039062 288.957031 C 945.84375 288.074219 945.839844 287.1875 946.035156 286.300781 C 946.230469 285.414062 946.601562 284.605469 947.148438 283.882812 C 950.796875 277.703125 954.765625 271.730469 959.050781 265.96875 C 967.523438 254.914062 976.164062 243.992188 985.277344 232.363281 C 988.808594 227.925781 992.371094 223.386719 996.070312 218.683594 L 1006.390625 231.589844 C 1015.707031 243.148438 1024.515625 254.105469 1032.953125 265.433594 C 1036.238281 270.34375 1038.3125 275.71875 1039.175781 281.566406 C 1039.589844 283.320312 1039.808594 285.097656 1039.832031 286.898438 C 1039.855469 288.703125 1039.6875 290.484375 1039.320312 292.25 C 1038.953125 294.015625 1038.402344 295.71875 1037.664062 297.363281 C 1036.921875 299.007812 1036.015625 300.554688 1034.9375 302 C 1034.039062 303.066406 1033.03125 304.015625 1031.914062 304.851562 C 1030.796875 305.691406 1029.601562 306.390625 1028.328125 306.957031 C 1027.050781 307.519531 1025.726562 307.933594 1024.359375 308.199219 C 1022.988281 308.460938 1021.605469 308.570312 1020.210938 308.519531 C 1018.710938 308.558594 1017.222656 308.46875 1015.738281 308.25 Z M 918.972656 784.144531 C 915.914062 785.558594 912.820312 786.9375 909.761719 788.28125 C 902.53125 791.4375 895.101562 794.734375 888.140625 798.632812 C 875.734375 805.554688 863.359375 813.015625 851.390625 820.207031 L 833.941406 830.660156 C 832.921875 831.367188 831.800781 831.824219 830.578125 832.039062 L 830.378906 832.039062 C 822.339844 831.164062 814.136719 830.121094 806.238281 829.148438 C 790.601562 827.164062 774.429688 825.113281 758.457031 824.273438 C 693.703125 820.914062 630.253906 809.855469 565.53125 798.027344 C 559.210938 796.882812 552.890625 795.976562 545.59375 794.902344 L 536.683594 793.589844 L 538.363281 792.683594 C 539.6875 791.898438 541.078125 791.261719 542.535156 790.765625 L 577.03125 781.355469 C 597.472656 775.8125 618.621094 770.097656 639.332031 764.25 C 647.996094 761.804688 656.828125 760.605469 665.828125 760.652344 C 672.71875 760.695312 679.566406 761.265625 686.371094 762.367188 C 777.925781 776.652344 848.5 783.105469 915.003906 783.304688 C 915.988281 783.332031 916.960938 783.417969 917.929688 783.574219 L 918.738281 783.574219 Z M 866.1875 755.578125 L 865.847656 758.066406 L 833.605469 754.707031 L 693.332031 740.285156 L 710.144531 662.484375 C 768.800781 674.828125 828.097656 681.191406 888.039062 681.574219 C 853.8125 707.484375 847.523438 729.0625 866.1875 755.578125 Z M 1100.402344 245.367188 C 1131.636719 276.558594 1138.460938 313.863281 1120.136719 353.25 C 1110.234375 373.539062 1099.027344 393.074219 1086.515625 411.863281 C 1050.808594 467.722656 1039.8125 528.488281 1052.890625 597.585938 C 1054.40625 605.617188 1055.882812 613.648438 1057.296875 621.414062 L 1059.011719 630.789062 L 989.3125 638.585938 C 989.582031 633.917969 989.78125 629.144531 989.984375 624.304688 C 990.523438 612.808594 991.027344 600.945312 992.238281 589.183594 L 993.210938 579.636719 C 999.230469 520.488281 1005.484375 459.285156 1012.679688 399.261719 C 1014.859375 383.898438 1017.941406 368.71875 1021.925781 353.722656 C 1023.203125 348.480469 1024.515625 343.035156 1025.757812 337.691406 C 1026.261719 335.40625 1028.515625 332.144531 1030.164062 331.84375 C 1031.910156 331.507812 1033.628906 331.066406 1035.324219 330.519531 C 1037.019531 329.972656 1038.671875 329.324219 1040.285156 328.574219 C 1041.898438 327.824219 1043.460938 326.980469 1044.972656 326.042969 C 1046.484375 325.101562 1047.933594 324.074219 1049.320312 322.957031 C 1050.703125 321.839844 1052.015625 320.644531 1053.253906 319.367188 C 1054.496094 318.089844 1055.652344 316.746094 1056.726562 315.328125 C 1057.800781 313.910156 1058.785156 312.429688 1059.679688 310.894531 C 1060.574219 309.355469 1061.371094 307.769531 1062.070312 306.132812 C 1069.066406 290.203125 1067.214844 271.515625 1056.960938 254.847656 C 1049.046875 242.773438 1040.183594 231.449219 1030.363281 220.867188 C 1026.667969 216.667969 1022.867188 212.332031 1019.269531 207.996094 C 1014.933594 202.753906 1010.125 197.746094 1005.484375 192.9375 L 1003.296875 190.621094 C 1002.441406 189.628906 1001.496094 188.734375 1000.460938 187.933594 C 999.425781 187.132812 998.316406 186.441406 997.140625 185.863281 C 995.964844 185.285156 994.746094 184.832031 993.476562 184.5 C 992.210938 184.171875 990.921875 183.96875 989.613281 183.898438 C 988.496094 183.921875 987.394531 184.070312 986.3125 184.339844 C 985.226562 184.609375 984.1875 184.996094 983.1875 185.496094 C 982.191406 186 981.261719 186.609375 980.398438 187.320312 C 979.535156 188.03125 978.765625 188.828125 978.082031 189.710938 C 958.445312 213.238281 939.148438 237.503906 920.519531 261.097656 L 914.402344 268.894531 C 912.070312 272.316406 910.410156 276.035156 909.425781 280.050781 L 909.425781 280.289062 C 905.054688 294.4375 909.089844 303.109375 922.570312 308.382812 C 949.066406 318.835938 979.058594 330.632812 1011.335938 332.953125 L 997.648438 391.867188 L 993.953125 407.964844 C 940.253906 397.175781 886.023438 391.808594 831.25 391.867188 C 797.976562 391.914062 764.804688 393.75 731.730469 397.378906 L 730.6875 376.171875 L 728.265625 327.339844 L 747.566406 322.667969 L 811.785156 306.871094 C 815.226562 305.996094 818.589844 304.875 821.871094 303.511719 C 832.460938 299.109375 836.699219 291.3125 833.738281 281.566406 C 830.753906 271.203125 826.273438 261.535156 820.289062 252.5625 C 806.839844 233.035156 792.351562 213.777344 778.328125 195.15625 L 771.808594 186.488281 C 771.066406 185.402344 770.214844 184.417969 769.246094 183.535156 C 768.277344 182.652344 767.21875 181.890625 766.070312 181.253906 C 764.921875 180.621094 763.71875 180.125 762.453125 179.769531 C 761.191406 179.417969 759.902344 179.210938 758.59375 179.160156 C 756.84375 179.183594 755.148438 179.507812 753.515625 180.132812 C 751.878906 180.757812 750.398438 181.640625 749.078125 182.789062 L 742.351562 188.4375 C 724.667969 203.289062 706.410156 218.683594 689.9375 235.253906 C 686.007812 239.613281 682.71875 244.410156 680.058594 249.644531 C 677.402344 254.875 675.472656 260.363281 674.265625 266.105469 C 668.519531 290.472656 681.867188 312.585938 707.453125 321.121094 C 707.921875 321.203125 708.375 321.328125 708.820312 321.496094 C 709.261719 321.667969 709.6875 321.875 710.089844 322.125 C 710.492188 322.375 710.871094 322.660156 711.21875 322.980469 C 711.566406 323.300781 711.882812 323.652344 712.164062 324.035156 C 712.449219 324.414062 712.691406 324.820312 712.894531 325.246094 C 713.101562 325.675781 713.265625 326.117188 713.382812 326.578125 C 713.503906 327.035156 713.582031 327.5 713.613281 327.972656 C 713.644531 328.445312 713.628906 328.917969 713.574219 329.390625 C 716.621094 403.511719 714.707031 477.507812 707.824219 551.375 C 702.019531 613.453125 692.042969 674.855469 677.898438 735.582031 L 674.871094 735.246094 C 672.046875 734.941406 669.125 734.640625 666.230469 734.203125 C 661.59375 733.5 656.984375 732.757812 652.34375 731.984375 C 642.863281 730.472656 633.078125 728.859375 623.363281 727.75 C 622.828125 727.75 622.300781 727.707031 621.777344 727.617188 C 621.25 727.527344 620.738281 727.390625 620.234375 727.210938 C 619.734375 727.035156 619.25 726.8125 618.785156 726.550781 C 618.320312 726.289062 617.882812 725.988281 617.472656 725.652344 C 617.058594 725.3125 616.679688 724.941406 616.328125 724.539062 C 615.980469 724.136719 615.671875 723.707031 615.394531 723.25 C 615.121094 722.792969 614.886719 722.316406 614.695312 721.820312 C 614.503906 721.320312 614.355469 720.8125 614.25 720.289062 C 612.226562 713.960938 610.691406 707.519531 609.636719 700.957031 C 608.585938 694.398438 608.03125 687.796875 607.972656 681.152344 C 607.917969 674.511719 608.359375 667.898438 609.296875 661.324219 C 610.238281 654.746094 611.664062 648.277344 613.578125 641.914062 C 619.058594 622.269531 626.15625 603.226562 634.863281 584.78125 C 638.886719 576.878906 642.445312 568.769531 645.53125 560.457031 C 648.621094 552.140625 651.21875 543.679688 653.328125 535.066406 C 655.433594 526.449219 657.039062 517.742188 658.140625 508.945312 C 659.242188 500.144531 659.832031 491.3125 659.910156 482.441406 C 659.773438 473.582031 659.109375 464.757812 657.921875 455.972656 C 656.734375 447.191406 655.035156 438.507812 652.816406 429.925781 C 650.601562 421.34375 647.882812 412.921875 644.664062 404.664062 C 641.449219 396.402344 637.753906 388.363281 633.585938 380.542969 C 623.832031 361.585938 614.417969 342.96875 606.6875 323.644531 C 592.363281 287.816406 600.96875 254.578125 630.960938 230.007812 C 636.8125 225.269531 643.234375 221.003906 649.453125 216.867188 C 654.566406 213.507812 659.84375 209.980469 664.785156 206.179688 L 671.242188 201.273438 C 688.253906 188.300781 705.839844 174.890625 722.214844 160.609375 C 734.25 150.089844 743.429688 135.167969 750.253906 114.96875 C 751.632812 111 752.945312 107.003906 754.253906 103.003906 C 757.113281 94.332031 760.074219 85.359375 763.332031 76.722656 C 764.222656 74.148438 765.265625 71.636719 766.460938 69.1875 C 767.652344 66.738281 768.988281 64.371094 770.46875 62.085938 C 771.949219 59.796875 773.558594 57.605469 775.300781 55.515625 C 777.042969 53.421875 778.90625 51.441406 780.890625 49.570312 C 782.871094 47.703125 784.957031 45.960938 787.148438 44.339844 C 789.34375 42.722656 791.625 41.246094 793.992188 39.902344 C 796.363281 38.558594 798.808594 37.363281 801.320312 36.316406 C 803.835938 35.265625 806.40625 34.375 809.027344 33.636719 C 832.507812 26.929688 856.460938 23.78125 880.878906 24.191406 C 890.191406 24.191406 900.210938 24.5625 911.476562 25.265625 C 925.179688 26.359375 938.773438 28.242188 952.257812 30.914062 C 974.046875 34.914062 988.101562 49.027344 994.085938 72.921875 C 995.933594 80.453125 997.246094 88.25 998.457031 95.8125 C 999.195312 100.113281 999.902344 104.582031 1000.742188 108.953125 C 1001.621094 113.5625 1002.6875 118.132812 1003.953125 122.652344 C 1005.214844 127.175781 1006.667969 131.632812 1008.308594 136.035156 C 1009.949219 140.433594 1011.773438 144.753906 1013.78125 148.996094 C 1015.785156 153.242188 1017.96875 157.394531 1020.328125 161.453125 C 1022.6875 165.511719 1025.214844 169.464844 1027.910156 173.308594 C 1030.605469 177.15625 1033.457031 180.878906 1036.464844 184.484375 C 1039.476562 188.085938 1042.632812 191.558594 1045.9375 194.894531 C 1049.242188 198.230469 1052.679688 201.421875 1056.253906 204.46875 C 1073.941406 219.960938 1088.09375 232.933594 1100.402344 245.367188 Z M 623.328125 752.25 L 631.871094 753.527344 L 631.871094 753.863281 L 621.78125 755.714844 C 614.015625 757.160156 606.214844 758.570312 598.449219 760.050781 C 557.394531 767.777344 520.242188 784.347656 482.6875 802.09375 C 466.324219 809.546875 450.902344 818.597656 436.421875 829.25 C 397.585938 858.691406 387.703125 899.828125 408.515625 945.332031 L 407.773438 945.128906 C 406.558594 944.894531 405.382812 944.539062 404.242188 944.054688 C 401.628906 942.796875 399.082031 941.414062 396.605469 939.902344 C 394.128906 938.390625 391.730469 936.761719 389.414062 935.015625 C 387.097656 933.265625 384.875 931.40625 382.742188 929.4375 C 380.613281 927.472656 378.582031 925.402344 376.65625 923.230469 C 374.730469 921.0625 372.917969 918.800781 371.214844 916.453125 C 369.515625 914.101562 367.933594 911.675781 366.472656 909.167969 C 365.011719 906.660156 363.679688 904.089844 362.472656 901.449219 C 361.265625 898.8125 360.195312 896.117188 359.257812 893.375 C 358.402344 890.855469 357.671875 888.296875 357.070312 885.703125 C 356.464844 883.113281 355.996094 880.496094 355.652344 877.855469 C 355.308594 875.21875 355.101562 872.566406 355.019531 869.90625 C 354.941406 867.246094 354.996094 864.589844 355.183594 861.933594 C 355.367188 859.277344 355.683594 856.640625 356.132812 854.015625 C 356.582031 851.390625 357.160156 848.796875 357.863281 846.230469 C 358.570312 843.664062 359.402344 841.140625 360.359375 838.65625 C 361.316406 836.171875 362.394531 833.742188 363.59375 831.367188 C 376.167969 806.261719 399.605469 793.019531 418.601562 784.3125 C 431.117188 778.519531 443.914062 773.421875 456.984375 769.015625 C 470.054688 764.613281 483.328125 760.933594 496.800781 757.976562 C 510.273438 755.015625 523.867188 752.796875 537.582031 751.320312 C 551.296875 749.839844 565.050781 749.109375 578.847656 749.125 C 586.882812 749.125 595.085938 749.363281 603.222656 749.867188 C 609.8125 750.203125 616.671875 751.242188 623.328125 752.25 Z M 446.171875 839.164062 C 456.863281 831.464844 468.070312 824.609375 479.792969 818.59375 C 491.511719 812.578125 503.617188 807.46875 516.105469 803.269531 C 517.636719 802.785156 519.207031 802.550781 520.8125 802.5625 C 521.808594 802.566406 522.792969 802.65625 523.773438 802.832031 C 556.519531 809.152344 590.078125 815.738281 626.289062 822.996094 C 689.027344 835.5 751.230469 838.625 809.128906 840.136719 C 811.3125 840.136719 813.5 840.375 816.289062 840.609375 L 819.449219 840.878906 L 811.347656 848.4375 C 804.925781 854.421875 798.871094 860.066406 793.15625 866.015625 C 767.101562 893.070312 753.414062 924.460938 752.507812 959.210938 C 752.105469 975.074219 756.609375 989.964844 766.664062 1005.929688 C 759.9375 1005.324219 753.214844 1004.820312 746.722656 1004.28125 C 731.460938 1003.070312 717 1001.960938 702.542969 999.878906 C 639.703125 990.90625 573.265625 980.925781 505.078125 970.269531 C 494.992188 968.691406 484.90625 966.40625 474.816406 964.1875 C 464.730469 961.96875 455.621094 959.886719 445.902344 958.304688 C 434.035156 956.390625 426.234375 949.800781 420.585938 936.964844 C 408.347656 908.800781 407.605469 866.285156 446.171875 839.164062 Z M 888.375 717.667969 L 884.542969 715.585938 C 886.023438 714.207031 887.402344 712.828125 888.710938 711.484375 C 891.402344 708.558594 894.40625 706.007812 897.722656 703.820312 C 950.410156 672.632812 1000.039062 657.476562 1049.460938 657.476562 L 1056.691406 657.476562 C 1064.652344 657.984375 1072.5 659.230469 1080.226562 661.207031 C 1083.589844 661.945312 1086.953125 662.71875 1090.480469 663.355469 L 1090.480469 665.910156 L 1086.816406 667.289062 C 1083.859375 668.433594 1080.800781 669.574219 1077.738281 670.648438 C 1069.804688 673.203125 1061.734375 675.726562 1053.902344 678.144531 C 1036.351562 683.589844 1018.261719 689.203125 1000.878906 695.925781 C 990.84375 700.160156 981.214844 705.179688 971.996094 710.980469 C 966.851562 714.039062 961.539062 717.199219 956.195312 719.988281 C 951.742188 722.804688 946.902344 724.519531 941.667969 725.128906 L 941.199219 725.128906 C 925.5625 724.523438 910.0625 722.640625 895.539062 720.792969 C 892.957031 720.195312 890.570312 719.152344 888.375 717.667969 Z M 960.328125 739.816406 C 960.765625 736.859375 963.691406 734.539062 966.71875 732.421875 C 993.210938 713.636719 1023.371094 703.117188 1049.394531 695.453125 C 1059.71875 692.363281 1070.175781 689.136719 1080.292969 686.007812 L 1093.742188 681.875 L 1094.652344 682.816406 L 1095.324219 683.457031 C 1094.246094 684.464844 1093.238281 685.539062 1092.230469 686.582031 C 1089.976562 689.390625 1087.25 691.628906 1084.058594 693.300781 C 1075.890625 696.664062 1067.417969 699.824219 1059.214844 702.8125 C 1049.460938 706.410156 1039.34375 710.105469 1029.660156 714.339844 C 1015.875 720.390625 1002.222656 727.246094 989.007812 733.867188 C 982.921875 736.925781 976.636719 740.085938 970.414062 743.109375 C 968.566406 744.019531 966.683594 744.789062 964.699219 745.628906 L 962.582031 746.539062 C 961.777344 745.609375 961.179688 744.566406 960.789062 743.402344 C 960.398438 742.238281 960.246094 741.042969 960.328125 739.816406 Z M 788.851562 1006.097656 L 788.851562 1005.691406 C 786.097656 1005.691406 782.296875 1001.726562 779.875 998.332031 C 767.367188 980.789062 768.074219 960.488281 770.058594 944.558594 C 774.363281 910.480469 795.34375 885.609375 813.128906 867.765625 C 836.261719 844.539062 864.671875 824.914062 900.011719 807.773438 C 906.09375 804.816406 912.179688 801.621094 918.097656 798.53125 C 925.023438 794.902344 932.21875 791.136719 939.414062 787.742188 C 942.710938 786.410156 946.132812 785.570312 949.671875 785.222656 C 951.417969 784.953125 953.335938 784.648438 955.421875 784.246094 C 955.421875 787.609375 955.421875 790.96875 955.421875 794.328125 C 955.421875 803.707031 955.421875 812.546875 955.117188 821.214844 C 955.117188 823.199219 952.160156 826.15625 949.773438 827.367188 C 921.125 841.988281 884.644531 862.992188 856.636719 895.492188 C 850.394531 902.484375 845.074219 910.121094 840.667969 918.394531 C 836.261719 926.667969 832.898438 935.34375 830.578125 944.425781 C 826.039062 963.042969 824.054688 983.074219 839.757812 1003.476562 L 826.542969 1004.179688 C 813.398438 1004.921875 800.992188 1005.625 788.71875 1005.625 L 788.71875 1006.03125 Z M 846.886719 943.519531 C 855.695312 916.628906 873.449219 894.988281 904.515625 872.941406 C 915.644531 865.042969 927.109375 857.816406 939.246094 850.152344 L 954.949219 840.070312 C 954.949219 842.085938 954.949219 843.9375 954.949219 845.71875 C 954.949219 850.1875 954.949219 854.019531 954.949219 857.847656 C 953.46875 890.316406 952.125 919.589844 950.476562 949.0625 C 950.382812 950.523438 950.003906 951.90625 949.339844 953.207031 C 948.671875 954.511719 947.773438 955.628906 946.644531 956.558594 C 921.765625 968.625 893.589844 982.335938 865.949219 994.570312 C 862.929688 996.085938 859.738281 996.972656 856.367188 997.222656 C 851.492188 997.222656 848.632812 993.863281 845.40625 984.519531 C 840.933594 972.554688 841.472656 959.480469 846.71875 943.519531 Z M 336.761719 666.449219 L 333.738281 664.800781 C 359.054688 638.320312 442.171875 611.699219 499.867188 611.699219 C 522.089844 611.699219 539.003906 615.667969 548.921875 623.160156 L 544.148438 624.539062 C 539.945312 625.75 536.011719 626.890625 532.042969 627.898438 L 518.15625 630.789062 C 487.660156 637.109375 456.125 643.664062 426.703125 656.0625 L 423.039062 657.578125 C 417.351562 659.535156 412.09375 662.316406 407.269531 665.910156 C 405.324219 667.523438 403.25 668.941406 401.042969 670.171875 C 398.835938 671.398438 396.535156 672.414062 394.140625 673.21875 C 391.746094 674.023438 389.300781 674.605469 386.800781 674.957031 C 384.296875 675.308594 381.785156 675.433594 379.261719 675.320312 C 373.910156 675.226562 368.585938 674.789062 363.292969 674.011719 C 357.082031 673.382812 350.964844 672.261719 344.933594 670.648438 C 342.046875 669.566406 339.324219 668.167969 336.761719 666.449219 Z M 405.1875 690.613281 C 406.058594 688.160156 406.96875 685.605469 408.546875 684.765625 C 411.304688 683.320312 414.0625 681.808594 416.820312 680.296875 C 428.105469 673.65625 439.941406 668.210938 452.324219 663.960938 C 475.859375 656.769531 500.203125 650.519531 523.738281 644.605469 C 533.152344 642.21875 542.902344 639.730469 552.488281 637.242188 L 552.824219 637.714844 L 553.796875 639.226562 C 552.65625 640.132812 551.578125 641.109375 550.433594 642.082031 C 548.007812 644.640625 545.171875 646.613281 541.929688 648 C 534.632812 650.382812 527.066406 652.402344 519.773438 654.351562 C 511.566406 656.535156 502.960938 658.785156 494.890625 661.609375 C 475.324219 668.332031 455.585938 675.691406 436.488281 682.816406 L 412.75 691.621094 C 410.96875 692.261719 409.1875 692.964844 407.40625 693.671875 L 405.386719 694.445312 L 404.582031 693.941406 L 404.007812 693.570312 C 404.480469 692.628906 404.816406 691.621094 405.1875 690.613281 Z M 547.746094 723.886719 L 525.589844 727.617188 L 485.476562 734.339844 C 485.476562 731.28125 485.476562 728.253906 485.476562 725.195312 C 485.476562 715.382812 485.476562 705.265625 485.746094 695.320312 C 486.039062 694.050781 486.59375 692.914062 487.414062 691.902344 C 488.234375 690.894531 489.238281 690.117188 490.417969 689.570312 C 503.261719 685.335938 516.375 681.335938 529.050781 677.507812 L 540.179688 674.144531 Z M 459.351562 699.855469 L 459.351562 742.136719 L 455.652344 743.34375 L 440.757812 748.21875 C 440.757812 744.320312 440.757812 740.488281 440.554688 736.792969 C 440.058594 727.882812 440.261719 718.984375 441.160156 710.105469 C 441.933594 703.988281 446.742188 702.949219 452.796875 701.605469 C 455.019531 701.167969 457.203125 700.585938 459.351562 699.855469 Z M 386.492188 691.183594 L 386.492188 697.46875 C 383.171875 698.214844 379.808594 698.574219 376.40625 698.546875 C 358.417969 698.546875 335.855469 690.175781 332.695312 682.613281 Z M 732.804688 1030.261719 L 747.765625 1031.101562 L 763.769531 1031.976562 L 763.769531 1052.878906 L 761.789062 1053.351562 C 760.074219 1053.753906 758.425781 1054.125 756.910156 1054.359375 C 752.742188 1055.128906 748.542969 1055.566406 744.304688 1055.667969 C 742.554688 1055.898438 740.835938 1055.742188 739.15625 1055.207031 C 737.472656 1054.675781 735.984375 1053.808594 734.6875 1052.609375 C 731.324219 1048.949219 731.460938 1041.015625 732.738281 1030.261719 Z M 789.527344 1135.691406 C 789.894531 1152.863281 790.703125 1168.257812 791.980469 1182.742188 C 792.6875 1190.605469 789.625 1195.546875 782.699219 1197.898438 C 771.398438 1201.816406 759.761719 1203.789062 747.800781 1203.816406 C 734.261719 1203.714844 721.160156 1201.273438 708.496094 1196.488281 C 707.570312 1196.066406 706.707031 1195.539062 705.902344 1194.914062 C 705.101562 1194.289062 704.382812 1193.582031 703.746094 1192.785156 C 703.109375 1191.992188 702.574219 1191.136719 702.136719 1190.21875 C 701.703125 1189.300781 701.378906 1188.34375 701.164062 1187.347656 C 702.679688 1158.007812 704.527344 1129.304688 706.714844 1098.921875 C 707.25 1091.304688 707.777344 1083.640625 708.292969 1075.933594 C 719.84375 1080.347656 731.804688 1082.589844 744.167969 1082.65625 C 759.34375 1082.144531 774.417969 1080.632812 789.390625 1078.121094 C 789.390625 1083.730469 789.390625 1089.34375 789.390625 1094.921875 C 789.257812 1108.402344 789.191406 1122.179688 789.457031 1135.691406 Z M 1056.589844 1358.3125 C 1057.0625 1354.652344 1058.070312 1351.144531 1059.617188 1347.792969 C 1063.785156 1338.316406 1067.011719 1335.59375 1073.871094 1335.59375 C 1076.757812 1335.648438 1079.617188 1335.960938 1082.445312 1336.535156 C 1070.375 1354.113281 1068.996094 1371.890625 1078.679688 1389.46875 C 1077.300781 1389.332031 1075.945312 1389.058594 1074.617188 1388.652344 C 1073.289062 1388.246094 1072.015625 1387.710938 1070.796875 1387.050781 C 1069.574219 1386.390625 1068.429688 1385.613281 1067.363281 1384.726562 C 1066.296875 1383.839844 1065.328125 1382.851562 1064.457031 1381.773438 C 1063.027344 1380.191406 1061.777344 1378.484375 1060.699219 1376.648438 C 1059.617188 1374.808594 1058.738281 1372.882812 1058.054688 1370.867188 C 1057.375 1368.847656 1056.902344 1366.78125 1056.644531 1364.667969 C 1056.386719 1362.554688 1056.347656 1360.4375 1056.523438 1358.3125 Z M 708.628906 1409.332031 C 711.84375 1409.425781 714.90625 1410.167969 717.808594 1411.550781 C 702.175781 1428.722656 699.449219 1447.175781 709.707031 1466.398438 C 707.933594 1465.65625 706.242188 1464.761719 704.636719 1463.714844 C 703.027344 1462.664062 701.527344 1461.476562 700.136719 1460.152344 C 698.746094 1458.828125 697.488281 1457.390625 696.363281 1455.835938 C 695.234375 1454.28125 694.257812 1452.636719 693.433594 1450.90625 C 692.433594 1448.90625 691.644531 1446.828125 691.066406 1444.671875 C 690.488281 1442.515625 690.132812 1440.320312 690 1438.089844 C 689.867188 1435.859375 689.957031 1433.640625 690.277344 1431.429688 C 690.59375 1429.21875 691.128906 1427.0625 691.886719 1424.960938 C 695.851562 1414.441406 701.433594 1409.332031 708.628906 1409.332031 Z M 1113.78125 1285.886719 C 1112.742188 1292.609375 1105.511719 1293.246094 1098.820312 1293.246094 L 1097.476562 1293.246094 C 1089.699219 1293.515625 1082.035156 1292.71875 1074.476562 1290.859375 C 1018.460938 1274.695312 962.042969 1266.933594 899.40625 1259.167969 C 870.523438 1255.605469 844.734375 1253.1875 820.625 1251.84375 L 818.542969 1251.84375 C 809.84375 1252.28125 801.40625 1253.996094 793.222656 1256.984375 L 792.886719 1256.984375 C 791.566406 1257.398438 790.28125 1257.90625 789.03125 1258.5 C 787.78125 1259.097656 786.578125 1259.777344 785.425781 1260.539062 C 784.269531 1261.304688 783.175781 1262.144531 782.136719 1263.0625 C 781.101562 1263.980469 780.132812 1264.964844 779.234375 1266.015625 C 778.332031 1267.070312 777.511719 1268.179688 776.769531 1269.347656 C 776.023438 1270.515625 775.367188 1271.730469 774.792969 1272.988281 C 774.21875 1274.246094 773.734375 1275.542969 773.339844 1276.867188 C 772.949219 1278.195312 772.648438 1279.542969 772.445312 1280.914062 C 767.46875 1308.167969 764.074219 1330.621094 761.789062 1351.492188 C 760.675781 1361.304688 756.84375 1366.246094 749.347656 1367.554688 C 744.957031 1368.347656 740.527344 1368.761719 736.066406 1368.800781 C 732.589844 1368.824219 729.148438 1368.488281 725.742188 1367.792969 C 714.78125 1365.503906 712.96875 1360.296875 713.066406 1349.472656 L 713.066406 1339.964844 C 713.269531 1322.992188 713.472656 1305.480469 712.363281 1288.308594 C 710.648438 1261.183594 702.273438 1253.625 671.8125 1251.574219 C 668.148438 1251.335938 664.28125 1251.203125 660.347656 1251.203125 C 641.136719 1251.648438 622.082031 1253.617188 603.1875 1257.117188 C 559.851562 1264.042969 515.9375 1271.90625 473.472656 1279.5 L 432.554688 1286.761719 C 428.285156 1287.535156 424.015625 1288.476562 419.878906 1289.382812 C 414.398438 1290.59375 408.714844 1291.871094 403.066406 1292.742188 C 401.605469 1292.949219 400.136719 1293.050781 398.664062 1293.046875 C 395.277344 1293.0625 391.984375 1292.523438 388.777344 1291.433594 C 387.082031 1290.789062 385.519531 1289.910156 384.09375 1288.792969 C 382.664062 1287.675781 381.4375 1286.371094 380.40625 1284.878906 C 381.09375 1282.710938 382.136719 1280.730469 383.539062 1278.9375 C 384.9375 1277.148438 386.605469 1275.652344 388.542969 1274.460938 C 391.949219 1272.800781 395.523438 1271.683594 399.269531 1271.097656 C 401.320312 1270.664062 403.4375 1270.226562 405.488281 1269.621094 C 472.734375 1249.457031 542.769531 1236.515625 610.585938 1223.945312 L 637.183594 1218.972656 C 646.855469 1216.980469 656.40625 1214.503906 665.828125 1211.546875 C 670.066406 1210.300781 674.46875 1208.992188 678.875 1207.78125 C 689.230469 1221.222656 715.65625 1229.929688 746.488281 1229.929688 C 770.394531 1229.929688 800.285156 1224.082031 813.296875 1207.714844 C 833 1216.621094 854.351562 1219.914062 875.027344 1223.105469 L 884.609375 1224.617188 C 970.113281 1238.363281 1038.332031 1253.757812 1099.222656 1272.980469 L 1101.242188 1273.621094 C 1108.03125 1275.839844 1114.992188 1277.957031 1113.78125 1285.886719 Z M 431.847656 1361.171875 C 431.847656 1376.5625 420.113281 1391.25 406.632812 1392.628906 C 405.847656 1392.675781 405.0625 1392.675781 404.277344 1392.628906 C 394.359375 1392.628906 386.894531 1385.90625 384.304688 1374.648438 C 380.539062 1358.246094 388.777344 1340.46875 402.359375 1335.898438 C 404.863281 1335.011719 407.441406 1334.566406 410.09375 1334.550781 C 422.667969 1334.6875 431.816406 1345.84375 431.847656 1361.171875 Z M 720.734375 1444.652344 C 720.765625 1442.53125 721 1440.429688 721.441406 1438.351562 C 721.878906 1436.273438 722.515625 1434.257812 723.351562 1432.304688 C 724.183594 1430.351562 725.199219 1428.496094 726.390625 1426.742188 C 727.585938 1424.984375 728.941406 1423.359375 730.449219 1421.867188 C 731.65625 1420.59375 732.976562 1419.445312 734.40625 1418.429688 C 735.835938 1417.414062 737.351562 1416.542969 738.949219 1415.824219 C 740.550781 1415.101562 742.207031 1414.542969 743.914062 1414.148438 C 745.625 1413.75 747.355469 1413.523438 749.113281 1413.464844 C 763.132812 1413.464844 774.160156 1425.933594 774.261719 1441.664062 C 774.269531 1443.84375 774.066406 1446.003906 773.648438 1448.144531 C 773.230469 1450.289062 772.605469 1452.367188 771.777344 1454.386719 C 770.949219 1456.402344 769.933594 1458.320312 768.726562 1460.140625 C 767.519531 1461.957031 766.148438 1463.640625 764.613281 1465.1875 C 763.304688 1466.558594 761.878906 1467.785156 760.332031 1468.871094 C 758.785156 1469.957031 757.144531 1470.878906 755.414062 1471.640625 C 753.679688 1472.402344 751.890625 1472.988281 750.046875 1473.394531 C 748.199219 1473.800781 746.328125 1474.023438 744.4375 1474.0625 L 744.4375 1474.464844 L 744.4375 1474.0625 C 731.460938 1473.925781 720.769531 1460.785156 720.734375 1444.652344 Z M 1090.214844 1359.019531 C 1092.464844 1346.382812 1099.460938 1338.25 1111.09375 1334.886719 C 1113.078125 1334.289062 1115.105469 1333.984375 1117.179688 1333.980469 C 1129.921875 1333.980469 1139.90625 1345.777344 1139.941406 1360.867188 C 1139.917969 1362.914062 1139.710938 1364.941406 1139.320312 1366.949219 C 1138.925781 1368.957031 1138.355469 1370.914062 1137.605469 1372.816406 C 1136.855469 1374.722656 1135.941406 1376.539062 1134.859375 1378.277344 C 1133.777344 1380.015625 1132.542969 1381.636719 1131.164062 1383.148438 C 1129.917969 1384.621094 1128.53125 1385.945312 1127.007812 1387.128906 C 1125.480469 1388.308594 1123.851562 1389.316406 1122.113281 1390.152344 C 1120.375 1390.988281 1118.570312 1391.636719 1116.695312 1392.09375 C 1114.820312 1392.550781 1112.921875 1392.804688 1110.992188 1392.863281 L 1110.152344 1392.863281 C 1108.375 1392.824219 1106.644531 1392.519531 1104.964844 1391.945312 C 1103.285156 1391.371094 1101.730469 1390.558594 1100.300781 1389.503906 C 1091.457031 1381.972656 1088.09375 1371.691406 1090.214844 1359.019531 Z M 561.734375 1182.472656 C 563.179688 1182.003906 564.625 1181.398438 566.035156 1180.792969 C 568.867188 1179.367188 571.859375 1178.503906 575.011719 1178.207031 C 575.394531 1178.171875 575.777344 1178.171875 576.15625 1178.207031 C 594.882812 1180.828125 613.8125 1184.085938 632.136719 1187.210938 L 650.832031 1190.40625 L 650.5625 1192.253906 C 646.363281 1194.28125 641.996094 1195.835938 637.460938 1196.917969 C 632.925781 1198 628.328125 1198.585938 623.664062 1198.671875 C 619.675781 1198.660156 615.730469 1198.21875 611.835938 1197.351562 C 607.941406 1196.484375 604.183594 1195.210938 600.566406 1193.53125 C 591.882812 1190.046875 582.917969 1187.59375 573.667969 1186.171875 C 569.800781 1185.429688 565.835938 1184.660156 561.96875 1183.71875 L 561.765625 1182.976562 Z M 370.417969 1386.542969 C 369.066406 1386.027344 367.757812 1385.414062 366.496094 1384.699219 C 365.234375 1383.984375 364.03125 1383.179688 362.894531 1382.285156 C 361.753906 1381.390625 360.6875 1380.414062 359.695312 1379.359375 C 358.703125 1378.300781 357.792969 1377.175781 356.972656 1375.984375 C 356.148438 1374.789062 355.421875 1373.539062 354.789062 1372.238281 C 354.152344 1370.933594 353.621094 1369.589844 353.191406 1368.207031 C 352.761719 1366.820312 352.4375 1365.414062 352.21875 1363.980469 C 352.003906 1362.546875 351.894531 1361.105469 351.894531 1359.65625 C 351.289062 1345.777344 357.980469 1334.285156 368.570312 1330.921875 C 369.171875 1330.742188 369.789062 1330.652344 370.417969 1330.652344 C 372.546875 1330.800781 374.621094 1331.214844 376.640625 1331.898438 C 377.917969 1332.234375 379.230469 1332.601562 380.609375 1332.90625 C 366.554688 1347.894531 363.324219 1365.070312 370.417969 1386.542969 Z M 945.570312 1184.492188 L 938.238281 1186.070312 C 934.472656 1186.875 930.605469 1187.582031 926.875 1188.289062 C 918.257812 1189.570312 909.828125 1191.632812 901.589844 1194.472656 C 893.347656 1197.660156 884.808594 1199.261719 875.96875 1199.277344 C 866.257812 1199.183594 856.867188 1197.402344 847.792969 1193.933594 C 856.769531 1192.253906 865.75 1190.070312 874.492188 1187.984375 C 893.082031 1183.515625 912.28125 1178.878906 931.648438 1178.878906 C 937.042969 1178.878906 942.414062 1179.257812 947.753906 1180.019531 L 948.257812 1183.953125 Z M 1058.203125 797.152344 L 1057.835938 798.464844 L 1051.648438 797.824219 L 1042.636719 796.949219 L 1042.300781 790.867188 L 1042.300781 788.984375 L 1048.824219 792.347656 Z M 1062.878906 729.0625 L 1058.84375 748.152344 L 1055.078125 766.300781 L 1049.058594 764.71875 L 1041.226562 762.636719 C 1041.058594 759.78125 1040.890625 757.191406 1040.71875 754.90625 C 1039.476562 736.050781 1039.476562 736.050781 1062.878906 729.0625 Z M 1045.089844 814.5625 L 1064.960938 809.082031 L 1067.417969 808.378906 C 1069.125 811.011719 1070.5625 813.789062 1071.730469 816.703125 C 1072.894531 819.621094 1073.765625 822.621094 1074.34375 825.710938 C 1074.917969 828.796875 1075.191406 831.910156 1075.15625 835.050781 C 1075.125 838.191406 1074.785156 841.296875 1074.140625 844.371094 C 1073.3125 849.015625 1072.050781 853.542969 1070.359375 857.945312 C 1068.667969 862.351562 1066.578125 866.554688 1064.082031 870.5625 C 1061.589844 874.570312 1058.742188 878.304688 1055.535156 881.765625 C 1052.328125 885.230469 1048.828125 888.359375 1045.023438 891.15625 Z M 900.246094 1047.335938 C 901.140625 1046.40625 902.164062 1045.652344 903.316406 1045.074219 C 904.472656 1044.496094 905.6875 1044.128906 906.96875 1043.972656 C 909.121094 1043.972656 911.273438 1045.621094 914.164062 1049.484375 C 914.851562 1050.371094 915.316406 1051.363281 915.5625 1052.453125 C 915.808594 1053.546875 915.816406 1054.640625 915.578125 1055.734375 C 915.378906 1056.722656 914.988281 1057.621094 914.402344 1058.4375 C 913.816406 1059.25 913.085938 1059.910156 912.214844 1060.40625 C 911.691406 1060.710938 911.140625 1060.960938 910.570312 1061.164062 C 910 1061.363281 909.414062 1061.511719 908.816406 1061.605469 C 908.214844 1061.695312 907.613281 1061.734375 907.007812 1061.714844 C 906.402344 1061.695312 905.804688 1061.621094 905.214844 1061.492188 C 904.621094 1061.363281 904.046875 1061.179688 903.488281 1060.945312 C 902.929688 1060.710938 902.398438 1060.425781 901.894531 1060.089844 C 901.386719 1059.757812 900.917969 1059.378906 900.484375 1058.957031 C 900.046875 1058.535156 899.65625 1058.078125 899.304688 1057.585938 C 899 1057.214844 898.738281 1056.820312 898.511719 1056.402344 C 898.285156 1055.980469 898.101562 1055.542969 897.960938 1055.085938 C 897.824219 1054.628906 897.726562 1054.164062 897.679688 1053.691406 C 897.628906 1053.214844 897.625 1052.742188 897.671875 1052.265625 C 897.714844 1051.792969 897.804688 1051.324219 897.9375 1050.867188 C 898.074219 1050.410156 898.25 1049.96875 898.472656 1049.546875 C 898.691406 1049.125 898.953125 1048.726562 899.25 1048.355469 C 899.546875 1047.980469 899.878906 1047.640625 900.246094 1047.335938 Z M 940.15625 150.828125 C 938.339844 150.878906 936.535156 151.058594 934.742188 151.367188 L 933.128906 151.566406 C 927.679688 152.273438 922.101562 153.113281 916.71875 153.886719 C 900.40625 156.695312 883.976562 158.308594 867.429688 158.726562 L 866.1875 158.726562 C 854.367188 158.21875 842.722656 156.527344 831.25 153.652344 C 824.527344 152.238281 817.800781 150.761719 810.84375 149.785156 C 809.660156 149.621094 808.472656 149.539062 807.277344 149.550781 C 803.144531 149.550781 798 150.492188 795.878906 153.113281 C 795.257812 154.304688 794.796875 155.554688 794.496094 156.867188 C 794.191406 158.175781 794.058594 159.5 794.09375 160.84375 C 794.128906 162.1875 794.332031 163.507812 794.703125 164.796875 C 795.074219 166.089844 795.601562 167.316406 796.285156 168.472656 C 816.691406 196.769531 837.503906 224.160156 858.753906 252.089844 C 860.605469 254.164062 862.757812 255.855469 865.210938 257.164062 C 866.421875 257.90625 867.699219 258.675781 868.941406 259.550781 L 869.414062 259.886719 L 869.882812 259.585938 C 871.160156 258.746094 872.4375 258.074219 873.648438 257.398438 C 875.988281 256.292969 878.0625 254.8125 879.871094 252.964844 C 893.722656 236.597656 907.675781 219.894531 921.160156 203.761719 C 929.542969 193.722656 937.925781 183.707031 946.308594 173.714844 C 949.671875 169.546875 953.875 163.128906 949.097656 155.601562 C 948.640625 154.832031 948.089844 154.140625 947.441406 153.527344 C 946.796875 152.910156 946.078125 152.390625 945.292969 151.972656 C 944.503906 151.550781 943.671875 151.242188 942.800781 151.050781 C 941.929688 150.855469 941.046875 150.78125 940.15625 150.828125 Z M 903.171875 186.351562 L 894.628906 196.9375 L 875.363281 220.734375 L 859.160156 197.980469 L 850.886719 186.351562 Z M 903.171875 186.351562 " fill-opacity="1" fill-rule="nonzero"/></g></svg>